<?xml version="1.0" encoding="utf-8"?>
<!-- Generator: Adobe Illustrator 21.0.2, SVG Export Plug-In . SVG Version: 6.00 Build 0)  -->
<svg version="1.1" id="Layer_1" xmlns="http://www.w3.org/2000/svg" xmlns:xlink="http://www.w3.org/1999/xlink" x="0px" y="0px"
	 viewBox="0 0 370 310" style="enable-background:new 0 0 370 310;" xml:space="preserve">
<style type="text/css">
	.st0{fill:#CCCCCC;}
	.st1{fill:#324C8E;}
	.st2{fill:#6EBB70;}
	.st3{fill:#C64387;}
	.st4{fill:#C64387;stroke:#324C8E;stroke-width:2;stroke-miterlimit:10;}
	.st5{fill:#EAD123;stroke:#324C8E;stroke-width:2;stroke-miterlimit:10;}
	.st6{fill:none;stroke:#324C8E;stroke-width:6;stroke-miterlimit:10;}
	.st7{fill:#6EBB70;stroke:#324C8E;stroke-width:5;stroke-miterlimit:10;}
</style>
<rect x="182.1" y="150.6" class="st0" width="8.8" height="8.8"/>
<rect class="st1" width="186.5" height="310"/>
<rect x="186.5" class="st2" width="183.5" height="134.4"/>
<rect x="186.5" y="134.4" class="st3" width="183.5" height="175.6"/>
<g>
	<path class="st4" d="M238.5,94.8c1,0,1.5-0.5,1.5-1.6V64.4c0-2.7,0.5-4.6,1.4-5.9c1-1.2,2.5-1.8,4.6-1.8c4.1,0,6.2,2.6,6.2,7.7
		v40.5c0,3.1-1.3,4.6-3.8,4.6h-34.7c-2.6,0-3.8-1.5-3.8-4.6V64.4c0-5.1,2-7.6,6.1-7.6c4.1,0,6.1,2.5,6.1,7.6v28.5
		c0,1.3,0.5,1.9,1.6,1.9H238.5z"/>
	<path class="st4" d="M271.1,71.6c-1.1,0-1.6,0.6-1.6,1.9v28.6c0,2.7-0.5,4.6-1.4,5.9c-0.9,1.2-2.5,1.8-4.6,1.8
		c-4.1,0-6.1-2.6-6.1-7.7V61.5c0-3.1,1.3-4.6,3.8-4.6h34.6c2.6,0,3.9,1.5,3.9,4.6v40.6c0,5.1-2,7.6-6.1,7.6c-4.1,0-6.1-2.5-6.1-7.6
		V73.6c0-1.3-0.5-1.9-1.6-1.9H271.1z"/>
	<path class="st4" d="M316.1,102.6c0,1-0.2,1.9-0.5,2.8c-0.3,0.9-0.8,1.6-1.3,2.3c-0.6,0.6-1.2,1.2-2,1.6c-0.8,0.4-1.5,0.6-2.3,0.6
		c-0.8,0-1.6-0.2-2.4-0.6c-0.7-0.4-1.4-0.9-1.9-1.6c-0.5-0.6-1-1.4-1.3-2.3c-0.3-0.9-0.5-1.8-0.5-2.8c0-1,0.2-1.9,0.5-2.8
		c0.3-0.9,0.8-1.6,1.3-2.3c0.5-0.7,1.2-1.2,1.9-1.6c0.7-0.4,1.5-0.6,2.4-0.6c0.8,0,1.6,0.2,2.3,0.6c0.8,0.4,1.4,0.9,2,1.6
		c0.6,0.7,1,1.4,1.3,2.3C316,100.6,316.1,101.6,316.1,102.6z"/>
</g>
<g>
	<path class="st5" d="M218.4,210.6c-4.2,0-6.3-2.6-6.3-7.7v-40.2c0-2.5,0.6-4.4,1.9-5.7c1.3-1.3,2.7-1.9,4.4-1.9
		c1.7,0,3.1,0.7,4.4,2c1.3,1.3,1.9,3.2,1.9,5.7v32.5h12.9c2,0,3.4,0.8,4.5,2.3c1,1.5,1.5,3.3,1.5,5.4c0,2.1-0.5,4-1.5,5.5
		c-1,1.5-2.5,2.2-4.5,2.2H218.4z"/>
	<path class="st5" d="M262.3,203.3c0,2.5-0.6,4.4-1.9,5.7c-1.3,1.3-2.8,1.9-4.5,1.9c-1.7,0-3.2-0.6-4.4-1.9
		c-1.2-1.3-1.9-3.2-1.9-5.7v-32.6h-4.4c-2,0-3.6-0.8-4.7-2.3c-1.1-1.5-1.7-3.3-1.7-5.4c0-2.1,0.6-3.9,1.7-5.4
		c1.1-1.5,2.7-2.3,4.7-2.3h21.4c2,0,3.6,0.8,4.7,2.3c1.1,1.5,1.7,3.3,1.7,5.4c0,2.1-0.6,3.9-1.7,5.4c-1.1,1.5-2.7,2.3-4.7,2.3h-4.3
		V203.3z"/>
	<path class="st5" d="M276.8,163c0-0.9,0.2-1.9,0.5-2.8c0.3-0.9,0.8-1.7,1.4-2.5c0.6-0.7,1.3-1.3,2.1-1.8c0.8-0.4,1.7-0.7,2.6-0.7
		h10.1c3.8,0,7.2,0.7,10.2,2.2c3,1.5,5.6,3.5,7.7,6c2.1,2.5,3.7,5.4,4.9,8.8c1.2,3.3,1.7,6.8,1.7,10.6c0,3.9-0.6,7.5-1.8,10.9
		c-1.2,3.3-2.8,6.2-4.9,8.6c-2.1,2.4-4.6,4.4-7.5,5.8c-2.9,1.4-6,2.3-9.4,2.5h-11c-2.1,0-3.7-0.7-4.9-2c-1.2-1.4-1.7-3.2-1.7-5.7
		V163z M289.5,195.2h5c1.5,0,2.9-0.3,4.1-0.9c1.3-0.6,2.4-1.4,3.4-2.4c1-1,1.7-2.3,2.3-3.8c0.5-1.5,0.8-3.2,0.8-5.1
		c0-1.9-0.3-3.6-0.8-5.1c-0.5-1.5-1.3-2.8-2.2-3.8c-1-1.1-2.1-1.9-3.4-2.4c-1.3-0.5-2.7-0.8-4.3-0.8h-5V195.2z"/>
</g>
<line class="st6" x1="186.5" y1="134.4" x2="370" y2="134.4"/>
<g>
	<path class="st7" d="M153.4,47.1h10.3c2.2,2.8,4.3,8.3,6.2,16.4v3.2c0,14.1-2,26.3-5.9,36.7c0,1.7-0.7,3.7-2.1,6.2
		c0,3-1.8,6.4-5.4,10.2c0,2.1-2.3,7.6-6.9,16.4l-6.2,9.4l-10.9,14.9c-3.1,7.3-6.3,12.2-9.6,14.8l-13.7,18.1l-0.4-0.8h-0.4l-0.7,2.3
		v0.8c0,2.8,4.1,4.9,12.3,6.2l4.8-2.3h23.3l1.3-2.3h12l5.1,2.3h3.1v-3.2l-5.1-14.8l-0.4-0.8v-18.8c0.4-1.9,1.8-4.8,4.1-8.6h9.6
		l5.1,8.6l0.7,7v4.7c0,1.3-1.8,5.3-5.5,11.7c0,2.1,0.8,5,2.4,8.6c0,2,1.6,5.7,4.8,11.1c1,6.7,5.9,14.8,14.8,24.1
		c2.2,0.6,4.9,5,8.2,13.4v7.7c-1,4.6-2.7,8.8-5.1,12.6h-1.7c-3.2-5.8-8.8-12.1-16.8-18.8l-8.9-10.2l-1,0.8c0-1.6-1.6-3.1-4.8-4.7
		c-1.5-1.7-4.2-3.2-8.2-4.7h-3.7l-1-1.5H152l-0.4-0.8l-0.3,0.8h-1.8l-1.3-2.3h-2.1l-1.4,2.3h-1.4l-0.3-0.8l-0.4,0.8h-18.9l-1,1.5
		h-0.3c-9,1.6-14.8,3.4-17.5,5.5l-2.1-0.8h-1.8c-1.8,1.6-6.3,2.6-13.4,3.2l-12.3,7.7l-0.3,0.8h-4.8c-5.7,3.6-9.7,5.4-12,5.4h-0.3
		c-2,0-4.3-3.4-6.9-10.1l0.4-0.8v-0.7l-0.4-2.3l5.9-13.4c0.7-1.7,4.4-5.8,10.9-12.4c0-1,2.6-2.9,7.9-5.5c3.9-1.3,8.2-5.8,13-13.2
		c5.5-6.3,8.7-9.4,9.6-9.4c6.8-4.4,12.1-9.8,15.8-16.4c3-3.5,6.6-8.7,10.9-15.8l9.9-11.7c4.6-3.4,11.4-16.7,20.3-39.9l2.3-13.2v-6.2
		c0-1.5-0.9-2.5-2.7-3.2h-6.8c-3.7,0-8.8,3.6-15.4,10.9l-12,9.4c-8.1,10.7-15.6,21.5-22.6,32.2c-4.1,6.4-6.2,10-6.2,10.9
		c-5.8,12-9.4,17.9-10.9,17.9c0,1.1-0.6,1.7-1.7,1.7h-3.5c-2.6,0-4.5-2.9-5.8-8.7v-7c0.9-1.7,1.5-3.7,1.7-6.2c0.4,0,0.8-2.1,1-6.2
		l0.7-1.7v-16.4c-2.5-5.3-3.7-8.6-3.7-10.1c1.9-8.9,4.9-13.4,8.9-13.4c3.4,0,6.2,3.4,8.2,10.2v9.4h0.7l2.7-3.2
		c4.2-9.4,10.3-17.7,18.1-25c0-2.1,3.4-5.3,10.3-9.4c1.8-2.6,4.3-4.6,7.6-6.2c8-8.9,13.1-13.4,15.4-13.4h0.7L153.4,47.1z"/>
</g>
</svg>
