<?xml version="1.0" encoding="utf-8"?>
<!-- Generator: Adobe Illustrator 21.0.2, SVG Export Plug-In . SVG Version: 6.00 Build 0)  -->
<svg version="1.1" id="Layer_1" xmlns="http://www.w3.org/2000/svg" xmlns:xlink="http://www.w3.org/1999/xlink" x="0px" y="0px"
	 viewBox="0 0 200 200" style="enable-background:new 0 0 200 200;" xml:space="preserve">
<style type="text/css">
	.st0{fill:#141414;}
</style>
<g>
	<path class="st0" d="M89.7,185.6c-0.1-0.6-0.6-1-1.2-1c-1.5,0.2-3,0.2-4.6,0c-1.6-0.2-3.2-0.4-4.8-0.8l-1.1-0.2l-0.6-0.1l-0.4-0.1
		c-0.8-0.2-1.5-0.5-2.3-0.8c-1.5-0.6-3-1.3-4.4-2l-0.4-0.2l-0.3-0.2l-1.1-0.7c-0.7-0.4-1.3-0.9-2-1.4c-1.3-1-2.5-2-3.7-3.1l-0.9-0.8
		l-0.2-0.2l-0.5-0.5c-0.6-0.6-1.1-1.2-1.6-1.8c-1.1-1.2-2.1-2.5-3.1-3.7c-2-2.6-3.8-5.3-5.5-8.1l-1.4-2.2l-0.7-1.1l-0.1-0.2l0,0
		l-0.3-0.5l-0.1-0.1c-0.9-1.5-1.7-3-2.4-4.6c-3-6.2-4.7-12.9-5.2-19.7c-0.4-7-0.2-14,0.6-21l0.3-2.6c0.1-0.9-1.3-1.1-1.5-0.2
		c-1.2,7.2-1.9,14.4-2.2,21.6c-0.3,7.2,1,14.4,3.7,21.2c1.4,3.4,3.1,6.6,5,9.7c1.7,2.9,3.6,5.7,5.5,8.5c3.8,5.6,8.7,10.4,14.3,14.1
		c3,1.9,6.2,3.3,9.7,4.2c1.6,0.5,3.3,0.7,4.9,0.8c1.7,0,3.4-0.1,5-0.3c0.8-0.1,1.6-0.4,2.4-0.6C89.3,186.8,89.7,186.2,89.7,185.6z"
		/>
	<path class="st0" d="M142.4,116.1c-0.2-0.6-0.9-1-1.5-0.8c-0.6,0.1-1.1,0.7-1,1.4c0,2.7-0.1,5.4-0.6,8.1c-0.5,2.7-1.2,5.3-2.2,7.9
		c-2.1,5-4.8,9.8-8,14.2c-3.2,4.6-6.6,9.2-10.2,13.6c-1.8,2.2-3.6,4.3-5.5,6.3c-0.6,0.6-1.2,1.2-1.8,1.8l-0.5,0.4
		c-0.5,0.4-0.9,0.8-1.3,1.3l-2.3,1.9c-2.4,2-4.7,4-7.2,5.9c-1.2,1-2.5,1.9-3.7,2.8c-1.2,0.9-2.4,1.9-3.5,3c-0.4,0.4,0.1,1.1,0.6,0.8
		c1.3-0.6,2.5-1.3,3.7-2.1c1.2-0.8,2.3-1.6,3.5-2.4c1.7-1.2,3.5-2.3,5.1-3.5c-1.1,2.8-1.7,5.7-2,8.7c-0.3,2.1-0.4,4.2-0.2,6.2
		c0,0.3,0.3,0.5,0.7,0.5c0.2,0,0.4-0.2,0.5-0.3c0.7-1.6,1.2-3.3,1.6-5.1c0.5-1.6,0.9-3.3,1.4-4.9c0.5-1.6,1.1-3.1,1.8-4.6
		c0.3-0.7,0.7-1.4,1-2l0.3-0.5l0.1-0.1l0.1-0.1l0.6-1l1.5-2.1c0.4-0.5,0.7-1.1,1-1.6c2.1-1.9,4.2-3.9,6.1-6.1
		c3.7-4.4,7.2-8.9,10.5-13.7c3.4-4.6,6.3-9.6,8.7-14.8C142.5,129.4,143.5,122.6,142.4,116.1z"/>
	<path class="st0" d="M98.3,88.3c-0.3-1.2-0.7-2.3-1.2-3.4c-0.5-1.1-1.2-2.1-1.9-3c-1.5-2-3.6-3.6-5.9-4.6c-0.8-0.3-1.7-0.5-2.6-0.6
		l0,0c-0.4-0.6-0.7-1.3-0.7-2c0-0.9-1.4-0.7-1.4,0.1c0,0.6,0,1.2,0.2,1.7l-0.2,0l-0.6-0.6c-0.5-0.6-0.8-1.4-0.8-2.2
		c0.1-0.8-1.1-1.2-1.4-0.4c-0.3,0.9-0.3,2-0.1,2.9l-0.2-0.1c-1.1-0.6-1.9-1.6-2.2-2.9c-0.1-0.4-0.4-0.6-0.8-0.6
		c-0.3,0.1-0.6,0.4-0.6,0.7c0.1,1.2,0.5,2.4,1.1,3.4l-0.3,0l-0.6-0.4c-0.9-0.6-1.5-1.6-1.6-2.6c-0.1-0.4-0.4-0.6-0.8-0.6
		c-0.4,0.1-0.6,0.4-0.6,0.7c0.1,0.9,0.3,1.7,0.7,2.5l-0.1-0.1c-0.5-0.3-0.9-0.7-1.2-1.2c-0.4-0.4-0.7-1-0.9-1.5
		c-0.2-0.7-1.4-0.4-1.3,0.3c0.1,0.8,0.3,1.6,0.7,2.3l0.3,0.4l-1.3-0.2c-1-0.1-2-0.6-2.8-1.4c-0.6-0.7-1.6,0.1-1.1,0.8
		c0.6,0.8,1.3,1.5,2.1,2.2c0.8,0.6,1.7,1.1,2.7,1.4l0.7,0.2l0,0.2c0,0.5,0.1,1,0.2,1.4c0.2,0.9,0.6,1.8,1.1,2.6
		c0.8,1.3,1.8,2.5,3,3.4c1.2,1,2.6,1.7,4.1,2.2c0.8,0.2,1.6,0.4,2.4,0.5c0.9,0.2,1.7,0.1,2.6-0.2c0.4-0.2,0.6-0.7,0.4-1.1
		c-0.1-0.2-0.2-0.3-0.4-0.4l-0.2-0.1c1-0.2,1.9-0.7,2.6-1.3c0.4-0.4,0.2-1.3-0.5-1.2c-2.2,0.8-4.6,0.4-6.5-1c-1.3-1.4-1.4-3.5-0.3-5
		l1.6-0.1c-0.4,0.6-0.6,1.3-0.5,2L83,82.1c0,0.9,0.4,1.9,1.3,2.1c0.5,0.4,1.1,0.6,1.7,0.5c0.8,0,1.5-0.5,1.9-1.1
		c0.7-0.5,1.2-1.3,1.2-2.1l0-0.1l0.9,0.4l0,0c-0.1,0.6-0.1,1.3-0.3,1.9l0.1,0.4l-0.4,0.7c-0.4,0.6,0.4,1.1,0.8,0.6
		c0.3-0.3,0.6-0.8,0.8-1.2c0.5-0.5,0.7-1.1,0.8-1.8l0.3-0.1l0.3,0.3c0.9,0.9,1.7,1.9,2.4,2.9c0.8,1.1,1.5,2.2,2.1,3.4
		c0.2,0.4,0.6,0.5,1,0.4C98.2,89.1,98.4,88.7,98.3,88.3z M79.4,85.6c-1.1-0.7-2-1.7-2.7-2.8c-0.4-0.7-0.7-1.4-0.9-2.1l-0.2-0.6
		c1.3,0.1,2.6,0,3.9-0.1l0.6-0.1c-1.1,1.9-1,4.3,0.3,6.1l0.3,0.4C80.2,86.2,79.8,85.9,79.4,85.6z"/>
	<path class="st0" d="M94.7,89.7c-1-0.4-2-0.5-3.1-0.2c-0.3,0.1-0.6,0.4-0.5,0.7c0,0.3,0.3,0.5,0.7,0.5c0.9,0,1.7,0,2.6,0.2
		c0.4,0,0.7-0.2,0.7-0.6C95.1,90.1,95,89.8,94.7,89.7z"/>
	<path class="st0" d="M147.5,103.3c-0.9,0-1.8,0-2.6-0.2c-0.7-0.1-1.3-0.4-1.9-0.7l-0.3-0.2l-0.4-0.3l-0.9-0.7l-1.7-1.4
		c-1.1-1-2.4-1.9-3.8-2.4c-1.8-0.5-3.8-0.6-5.7-0.2c-2.1,0.3-4.2,0.9-6.1,1.9c-0.8,0.4-0.3,1.7,0.5,1.3l1-0.4
		c-0.4,1.4,0.1,2.9,1.3,3.8c1.3,1.1,2.9,1.7,4.6,1.6c1.6-0.1,3.1-0.9,4.1-2.1c0.5-0.7,0.8-1.4,0.9-2.3l0.2,0.1
		c0.6,0.4,1.1,0.9,1.7,1.4c1.1,1.1,2.3,2,3.7,2.7c2,1,4.4,0.9,6.3-0.3c0.4-0.3,0.5-0.9,0.1-1.4C148.2,103.4,147.9,103.2,147.5,103.3
		z M134.6,100.7c-0.1,0.6-0.4,1.2-0.7,1.8c-1,1.3-2.7,1.8-4.2,1.2c-0.8-0.2-1.6-0.7-2.2-1.3c-0.7-0.6-1-1.5-0.7-2.4l0-0.4l1.4-0.2
		l-0.2,0.3c-0.3,1.1,0.4,2.2,1.5,2.4c0.1,0,0.2,0,0.3,0.1c0.5,0.3,1.1,0.4,1.6,0.2l0.6-0.4c0.9-0.5,1.4-1.4,1.3-2.4l1.1,0.3
		C134.6,100.2,134.6,100.5,134.6,100.7L134.6,100.7z"/>
	<path class="st0" d="M136.3,108L136.3,108L136.3,108z"/>
	<path class="st0" d="M139.4,106.8l0.5-0.6c0.3-0.6-0.3-1.2-0.9-1.2c-0.7,0.1-1.4,0.4-2.1,0.8c-0.6,0.3-1.3,0.5-2,0.7
		c-1.4,0.2-2.9,0-4.2-0.6c-0.7-0.3-1.1,0.7-0.4,1c1.5,0.7,3.1,1.1,4.8,1.1c0.4,0,0.7,0,1.1,0l0.1,0.2l0.1,0.1l0.1,0.2l0.1,0.2l0,0
		l0,0.2l0.1,0.2c0.1,0.3,0.3,0.5,0.6,0.7c0.3,0.1,0.6,0.1,0.9-0.1c0.4-0.3,0.6-0.9,0.4-1.5l0.1,0.1l0.5,0.3c0.3,0.1,0.6,0,0.8-0.1
		c0.2-0.2,0.3-0.4,0.3-0.7C140.3,107.2,139.9,106.9,139.4,106.8z"/>
	<path class="st0" d="M143,95.3c-0.5-0.7-1.1-1.3-1.9-1.8c-1.3-0.9-2.8-1.5-4.4-1.8c-1.5-0.2-3.1-0.1-4.6,0.2
		c-1.5,0.4-2.8,1.1-4,2.1c-0.6,0.4,0.1,1.2,0.6,0.8c0.6-0.4,1.1-0.7,1.8-0.9c0.6-0.2,1.2-0.3,1.8-0.3c1.2-0.2,2.5-0.1,3.7,0.1
		c2.5,0.3,4.6,1.9,5.6,4.1c0.2,0.5,0.8,0.7,1.2,0.5c0.2-0.1,0.4-0.3,0.5-0.5C143.7,97.1,143.6,96.1,143,95.3z"/>
	<path class="st0" d="M99.8,83.9c-0.2-1.2-0.6-2.3-1.2-3.3c-0.6-1-1.2-1.9-2-2.7c-0.8-0.8-1.7-1.5-2.6-2.1c-1-0.6-2-1-3.1-1.4
		c-0.3-0.1-0.6,0-0.7,0.3c-0.1,0.3,0,0.6,0.3,0.7c1.8,0.9,3.4,2.2,4.7,3.8c0.7,0.7,1.2,1.5,1.7,2.4c0.5,0.9,0.9,2,1.4,2.9
		C98.7,85.3,99.8,84.7,99.8,83.9z"/>
	<path class="st0" d="M108.6,72.5c-0.1-0.4-0.3-0.7-0.5-0.9l0,0l0,0c-0.9-1.2-1.9-2.2-3-3.1c-1.2-1-2.4-2-3.7-2.9
		c-1.8-1.4-3.8-2.6-5.9-3.4c-2.6-1.1-5.3-1.7-8-1.9c-3.1-0.2-6.2,0.2-9.2,1c-1.5,0.5-3.1,1-4.5,1.7c-1.5,0.8-3,1.6-4.3,2.6
		c-0.6,0.4,0,1.4,0.6,1.1c1.3-0.6,2.7-1.2,4.1-1.6c1.3-0.5,2.6-0.8,4-1.1c1.2-0.2,2.3-0.3,3.5-0.4l0.3,0.1c1.5,0.3,3,0.7,4.5,1.2
		c1.5,0.5,3,1,4.4,1.6c2.8,1.1,5.5,2.6,8,4.4c1.3,0.9,2.4,1.9,3.6,2.9c0.6,0.6,1.3,1.1,2.1,1.4c0.8,0.2,1.6,0.3,2.3,0.3
		c0.8,0,1.8-0.4,2-1.2C108.9,73.7,108.8,73.1,108.6,72.5z"/>
	<path class="st0" d="M147.2,86.3c-0.8-1.9-2.3-3.4-4.3-4c-1.9-0.7-3.9-1.1-5.9-1.1c-0.9,0-1.9,0.2-2.8,0.6
		c-0.8,0.4-1.6,0.9-2.4,1.4c-0.3,0.2-0.4,0.5-0.2,0.8c0,0,0.1,0.1,0.1,0.1c-0.6,0.2-0.3,1.3,0.3,1.2c1.3-0.2,2.6-0.1,3.8,0.2
		c1.2,0.1,2.4,0.4,3.6,0.7c1.2,0.4,2.3,0.9,3.3,1.6l1.6,1.1l0.8,0.5c0.2,0.8,0.3,1.5,0.4,2.3c0.1,0.4,0.4,0.7,0.8,0.6
		c0.3,0,0.5-0.3,0.6-0.6C147.7,90,147.7,88.1,147.2,86.3z"/>
	<path class="st0" d="M126.3,88c-0.8,0.3-1.5,0.8-2.1,1.3c-0.6,0.6-1.2,1.2-1.7,1.9c-1,1.6-1.7,3.3-2.1,5.2c-0.3,2-0.5,4.1-0.4,6.2
		c-0.1,2,0.1,4.1,0.8,6c0.8,1.7,2.4,3.1,2.6,5.1c0.1,0.4,0.5,0.7,0.9,0.7c0.4-0.1,0.7-0.4,0.7-0.8c-0.2-1.6-0.7-3.1-1.5-4.6
		c-0.6-1.6-0.9-3.4-0.8-5.1c-0.2-3.6,0.2-7.1,1.3-10.5c0.6-1.6,1.6-3,2.9-4.2C127.5,88.7,127,87.6,126.3,88z"/>
	<path class="st0" d="M100.1,120.5c-1.3,0.1-2.6-0.4-3.4-1.4c-0.8-1.1-0.8-2.7-0.1-3.8c0.5-0.7-0.5-1.5-1-0.8
		c-1.3,1.6-1.4,3.9-0.3,5.6c1.1,1.7,3.3,2.5,5.2,1.9C101.3,121.7,101,120.5,100.1,120.5z"/>
	<path class="st0" d="M109.3,118.3c-1.1-0.1-2.2-0.3-3.3-0.5c-1.1-0.3-2.3,0.1-3.1,1c-0.3,0.1-0.5,0.5-0.3,0.9
		c0.1,0.3,0.4,0.4,0.6,0.4c0.9,0.4,2,0.4,2.9,0c0.9-0.3,1.9-0.4,2.9-0.3C110,119.8,110.2,118.4,109.3,118.3z"/>
	<path class="st0" d="M121.7,120.1c-0.5,0.4-1.1,0.8-1.7,1.1c-0.6,0.3-1.2,0.8-1.9,1.1c-1.3,0.6-3.1,1-2.9,2.7
		c0,0.3,0.2,0.6,0.4,0.8c0.2,0.2,0.4,0.3,0.6,0.4c0.3,0.1,0.7,0,0.8-0.3c0.1-0.1,0.1-0.3,0-0.4l0.1-0.1l0.3-0.3c0.6-0.4,1.3-0.7,2-1
		c0.6-0.3,1.2-0.7,1.7-1.2c0.5-0.5,1-1.1,1.5-1.6C123.4,120.6,122.3,119.5,121.7,120.1z"/>
	<path class="st0" d="M122.7,123.5c-0.4,1.5-1.4,2.7-2.8,3.4c-0.7,0.4-0.3,1.5,0.4,1.1c1.8-0.8,3.1-2.4,3.6-4.3
		C124.2,122.9,122.9,122.7,122.7,123.5z"/>
	<path class="st0" d="M114.9,140.7L114.9,140.7l-0.4-0.9l-0.3-0.4c-0.3-0.5-0.7-1-1.1-1.4c-0.9-0.8-2.1-1.3-3.4-1.2
		c-1.2,0-2.3,0.2-3.4,0.6l-0.5,0.2c-0.2-0.4-0.4-0.8-0.6-1.2c-0.7-1-1.7-1.8-2.8-2.2c-4.4-1.2-9.1-0.3-12.8,2.4
		c-2.1,1.3-4.1,2.7-6.1,4.2c-1,0.7-1.9,1.5-2.9,2.3c-0.9,0.8-1.9,1.5-3,2c-0.2,0.1-0.3,0.3-0.4,0.5c-0.6,0-1.1-0.1-1.6-0.4
		c-0.7-0.6-1.7,0.6-0.9,1.2c0.4,0.4,0.8,0.8,1.2,1.1c0.4,0.3,0.9,0.5,1.4,0.7c0.1,0.5,0.2,1,0.3,1.5c0.2,0.8,0.5,1.7,0.8,2.5
		c0.6,1.5,1.3,2.9,2.2,4.3c1.7,2.7,3.9,5.1,6.5,6.9c5.1,4,12,4.8,17.9,2.2c1.4-0.7,2.6-1.7,3.7-2.8c0.5-0.6,1-1.3,1.4-2
		c0.3-0.7,0.5-1.5,0.6-2.3c0.1-0.2,0-0.5-0.2-0.7l-0.1-0.4c2.7-3,4.5-6.8,5.2-10.8C116,144.6,115.7,142.6,114.9,140.7z M98.7,137
		l0.4,0l0.1,0l-0.8,0L98.7,137z M108.6,151.7c-0.4,1.2-1,2.3-1.8,3.3l-0.2,0.2l-0.1,0c-1,0.4-2,0.8-3,1.3l-0.6,0.1
		c-0.4-1-0.9-2-1.5-3c-0.9-1.4-2-2.8-3.2-4c-0.6-0.6-1.6,0.1-1.1,0.8c0.9,1.3,1.6,2.7,2.1,4.2c0.3,0.8,0.4,1.7,0.6,2.6l-0.1,0
		l-0.2,0c-1-0.2-2-0.4-3-0.6l-1.5-0.4l-0.2-0.1l-0.4-0.1l-0.9-0.3c-1.1-0.4-2.2-0.9-3.2-1.4c-1-0.5-2-1-3-1.6l-0.4-0.3l-0.8-0.5
		l-1.4-1c-1-0.7-2-1.5-3-2.3l-0.7-0.6l1-0.2c2.6-0.8,5.1-1.8,7.6-3l1.7-0.8c0.9,0.1,1.8,0.2,2.7,0.3c1.8,0.2,3.5,0.3,5.3,0.5
		c3.2,0.2,6.1,1.5,8.4,3.7c0.5,0.6,0.9,1.2,1.2,1.9L108.6,151.7z M106.2,145.1c-3.3-1.6-7-2.4-10.7-2.3l-1-0.1
		c0.7-0.3,1.5-0.6,2.3-0.8c2-0.6,4.2-0.7,6.2-0.2c0.9,0.2,1.8,0.5,2.6,0.9l0,0l0.4,0.2l0.2,0.1l0.7,0.5c0.5,0.4,1,0.8,1.5,1.3
		l0.2,0.2l0.3,0.3l0,0c0.1,0.7,0.2,1.3,0.3,2C108.3,146.4,107.3,145.7,106.2,145.1L106.2,145.1z M110.2,157.2L110.2,157.2l0-0.1
		L110.2,157.2z"/>
	<path class="st0" d="M34.2,114.8l-0.8-0.1l-0.1,0h0l-0.3-0.1c-0.5-0.2-1-0.3-1.5-0.6l-0.3-0.2l-0.2-0.1l-0.5-0.3
		c-0.4-0.3-0.9-0.6-1.3-1l-1.1-1l0,0l-0.2-0.2l-0.6-0.6c-0.7-0.8-1.3-1.6-1.9-2.4c-2.3-3.1-3.9-6.7-4.4-10.6c-0.3-2.2-0.3-4.5,0-6.7
		c0.1-0.8-1.1-1-1.3-0.2c-2.3,8.8,0.3,18.1,6.9,24.4c1,0.9,2.1,1.7,3.4,2.2c1.3,0.6,2.7,0.9,4.1,0.8c0.9-0.1,1.6-0.9,1.5-1.9
		C35.5,115.5,34.9,114.9,34.2,114.8L34.2,114.8z"/>
	<path class="st0" d="M156.3,95.8c-1-4-2.3-7.9-4-11.6c-0.8-1.8-1.4-3.6-1.9-5.5l-0.1-0.5l-0.1-0.6l-0.3-1.6c-0.2-1-0.3-2.1-0.3-3.1
		c-0.2-4.1,0.1-8.2-0.1-12.2c-0.1-4-0.8-8-1.9-11.9c-1.9-6.9-6.5-12.8-12.6-16.4c-3.3-1.7-6.9-2.6-10.6-2.7c-3.8-0.2-7.6,0.2-11.3,1
		c-0.9,0.2-1.8,0.4-2.7,0.6c-0.4,0.1-0.7,0.4-0.6,0.8c0,0.4,0.4,0.6,0.8,0.6c1.8-0.1,3.6,0,5.3,0c1.7,0,3.5,0,5.2,0
		c1.7,0.1,3.5,0.3,5.2,0.6c1.6,0.3,3.2,0.7,4.7,1.3c0.8,0.3,1.6,0.7,2.4,1.1l0.2,0.1l-0.1-0.1l0.1,0.1l0.4,0.3l1.1,0.7
		c0.6,0.5,1.2,0.9,1.8,1.5l0.8,0.7l0.2,0.2l0.5,0.5c1.1,1.2,2,2.5,2.8,3.8l0.3,0.5l0,0l0.1,0.2l0.6,1.1c0.4,0.7,0.7,1.5,1,2.2
		c0.3,0.9,0.6,1.7,0.9,2.6l0.4,1.4l0,0.1l0,0.1l0.2,0.8c0.4,1.8,0.7,3.7,0.8,5.5c0.4,3.9,0.2,7.8,0.2,11.7c0,2,0.1,4,0.3,5.9
		c0.3,2,0.8,3.9,1.4,5.8c1.2,3.6,3,7,4.2,10.6c1.4,3.3,1.8,6.9,1.3,10.4l-0.1,0.5l-0.1,0.3l0,0.1l0,0.1l-0.1,0.3l-0.2,0.6l-0.4,1
		l-0.2,0.4l-0.1,0.1l-0.1,0.2c-0.7,1.2-1.6,2.3-2.6,3.2c-0.5,0.5-1.1,0.8-1.7,1.2c-0.9,0.5-0.7,1.9,0.4,1.8c1.6-0.2,3.2-0.8,4.5-1.8
		c1.3-1.1,2.4-2.4,3.1-4C156.8,103.3,157.2,99.5,156.3,95.8z"/>
	<path class="st0" d="M133.4,35.9"/>
	<path class="st0" d="M177.9,86.3c-1.3-2.1-2.9-4.1-4.8-5.9c-1.8-1.8-3.8-3.4-5.7-5.1c-1-0.8-1.9-1.6-2.9-2.5l-1.4-1.3l-0.7-0.6
		l-0.3-0.3l0,0l-0.2-0.2c-1.9-1.9-3.5-4.1-4.8-6.4c-0.4-0.8-0.7-1.6-1-2.4c0.6,1.1,1.4,2.1,2.3,3.1c1,1,2.1,2,3.2,2.8
		c2.2,1.7,4.6,3.1,6.9,4.6c1.1,0.7,2.3,1.5,3.3,2.3c0.5,0.4,1,0.8,1.5,1.3l0.6,0.6l0.2,0.2l0.5,0.5c0.5,0.6,1,1.2,1.5,1.9l0.7,1.1
		l0.5,0.9c0.8,1.5,1.4,3,1.8,4.6c0.1,0.7,0.7,1.2,1.5,1.2c0.7-0.1,1.3-0.7,1.2-1.5c-0.3-3.3-1.4-6.4-3.3-9.1c-1.7-2.4-3.8-4.4-6.3-6
		c-2.3-1.6-4.7-3-7-4.5c-1.2-0.8-2.3-1.6-3.4-2.5c-0.5-0.4-1-0.9-1.5-1.3l-0.2-0.2l-0.2-0.2l-0.8-0.9c-2.2-2.7-4-5.8-5.2-9.1
		l-0.2-0.3c-0.4-2.7-1.1-5.4-1.9-8c-2.3-8.2-8.3-14.8-16.2-18c-4.5-1.5-9.4-1.9-14.1-1.2c-2.6,0.4-5.1,1-7.5,1.8
		c-1.2,0.4-2.4,0.8-3.5,1.3c-1.2,0.5-2.4,1-3.5,1.7l-1.5,1c-0.5,0.3-1.1,0.6-1.7,0.8c-0.3,0.1-0.5,0.5-0.3,0.8
		c0.1,0.3,0.5,0.5,0.8,0.3c0.6-0.2,1.1-0.4,1.7-0.5l1.8-0.3c1.2-0.2,2.3-0.6,3.5-0.9c2.5-0.6,4.6-1.2,7.1-1.7
		c2.3-0.5,4.6-0.7,6.9-0.8c0.5,0,1,0,1.4,0l0.2,0l0.5,0l0.9,0.1c1.1,0.1,2.3,0.2,3.4,0.5l1.5,0.3l0.1,0l0.3,0.1l0.9,0.3
		c1,0.4,2,0.8,3,1.3l0.4,0.2l0.1,0l0,0l0,0l0.1,0.1l0.4,0.3l1.2,0.8c0.7,0.6,1.5,1.2,2.1,1.8l0.1,0.1l0.2,0.2l0.4,0.5l0.9,1.1
		c0.6,0.7,1.1,1.5,1.6,2.2l0.7,1.1l0.2,0.4l0.4,0.7c0.4,0.8,0.8,1.7,1.2,2.6c0.7,1.8,1.3,3.5,1.8,5.4l0.1,0.4l0.2,0.7l0.3,1.5
		c0.2,1,0.3,2,0.5,2.9c0.7,4.9,0.8,9.9,1.1,14.9c0.2,5,0.9,10,2.1,14.9c0.6,2.3,1.3,4.6,2,6.9c0.3,1.1,0.7,2.3,1,3.4l0.2,0.8
		l0.1,0.3l0,0.2l0.4,1.8c0.2,1.2,0.4,2.4,0.5,3.6l0.1,1.5c0,0.2,0,0.4,0,0.6v0.2l0,0.3c0,0.9-0.1,1.8-0.3,2.6l-0.3,1.3l-0.2,0.6
		c-0.1,0.3,0,0.1,0,0l-0.1,0.4c-0.3,0.8-0.6,1.7-1,2.4l-0.3,0.5l-0.2,0.3l0,0.1l-0.7,1.1c-0.9,1.3-2.1,2.4-3.5,3.2l-0.8,0.4
		l-1.2,0.6c-0.5,0.2-0.8,0.9-0.6,1.4c0.2,0.4,0.6,0.7,1.1,0.6c1.9-0.2,3.6-0.9,5.1-2.1c1.5-1.2,2.7-2.6,3.7-4.3
		c2-3.4,2.9-7.2,2.9-11.1c-0.3-5-1.3-10-3-14.8c-0.3-1.2-0.7-2.4-1-3.6l0-0.2l-0.1-0.3l-0.2-0.9l-0.4-2l-0.4-2.3
		c1.2,1.7,2.7,3.3,4.3,4.6c2.2,2,4.6,3.7,6.7,5.8l0.2,0.2l0.3,0.3l0.7,0.8c0.5,0.5,0.9,1.1,1.3,1.7l0.5,0.8l0.2,0.3l0.3,0.5
		c0.3,0.8,0.6,1.5,0.9,2.3l0.2,0.6l0.1,0.4l0.2,1c0.2,0.8,0.3,1.7,0.4,2.5c0.2,1.6,0.2,3.3,0.2,4.9c0,0.6,0,1.2-0.1,2
		c-0.1,0.9-0.1,1.8-0.3,2.6c-0.2,1.5-0.7,3-1.3,4.4l-0.5,0.9l-0.3,0.5l-0.1,0.1l-0.1,0.1c-0.4,0.6-0.8,1.3-1.3,1.9
		c-0.9,1.1-1.8,2.2-2.8,3.1l-0.1,0.1l-0.1,0.1l-0.4,0.4l-0.8,0.7l-1.7,1.5c-1.1,1-2.3,1.9-3.4,2.9c-2.6,2.1-4.9,4.6-6.7,7.4
		c-0.5,0.7-0.9,1.5-1.3,2.3c-0.3,0.8-0.6,1.5-0.8,2.3c-0.5,1.5-0.8,3.1-0.9,4.7c-0.1,0.9,1.3,1.1,1.4,0.2c0.1-1.4,0.5-2.8,1.2-4.1
		c0.3-0.6,0.7-1.1,1.1-1.6c0.4-0.6,0.9-1.2,1.3-1.8c0.9-1.1,1.9-2.1,2.9-3.1c-0.2,0.2,0.2-0.2,0.2-0.2l0.4-0.4l0.8-0.7l1.7-1.5
		c4.9-3.5,9.1-7.8,12.6-12.7c1.6-2.9,2.5-6,2.7-9.3c0.3-3.3,0.2-6.7-0.3-10c-0.5-3.3-1.7-6.5-3.7-9.3c-1.9-2.3-4-4.4-6.4-6.2
		c-1.3-1.1-2.6-2.1-3.8-3.2l-0.4-0.4l-0.2-0.2l0-0.1l-0.7-0.8c-0.6-0.6-1.1-1.3-1.6-2l-0.7-1.1l-0.2-0.3l-0.3-0.5
		c-0.3-0.7-0.6-1.3-0.8-2l0.2,0.3c3.2,4,6.8,7.6,10.9,10.7c0.9,0.8,1.9,1.7,2.7,2.6l0.1,0.1l0,0l0.3,0.3l0.6,0.7l1.2,1.4
		c0.7,0.9,1.3,1.8,1.9,2.8l0.1,0.2l0.1,0.2l0.4,0.7l0.7,1.5c0.4,1,0.8,2,1.1,3.1l0.4,1.5l0,0.1l0.1,0.5l0.2,0.8
		c0.2,1.1,0.3,2.2,0.4,3.3l0,1.5l0,0.1v0l0,0.4l0,0.9c-0.3,4.8-1.9,9.5-4.7,13.4c-0.3,0.4-0.2,1.1,0.2,1.4c0.4,0.3,1,0.2,1.4-0.2
		c3-3.4,5-7.5,5.9-12c0.9-4.5,0.8-9.2-0.4-13.7C180,90.5,179.1,88.3,177.9,86.3z"/>
	<polygon class="st0" points="137.8,30.2 137.9,30.3 137.8,30.2 	"/>
	<path class="st0" d="M95.7,31.2c-0.1-0.7-0.6-1.3-1.3-1.4c-0.8-0.1-1.5-0.1-2.3,0c-0.8,0.1-1.5,0.2-2.3,0.3
		c-1.4,0.2-2.9,0.5-4.3,0.8c-2.9,0.6-5.7,1.4-8.4,2.5c-4.9,2.2-9.5,5-13.7,8.4c-4.2,3.2-8.2,6.6-12.6,9.4l-1.7,1l-0.5,0.3l-0.1,0.1
		l-0.9,0.5c-1.2,0.6-2.4,1.2-3.7,1.7c-1.2,0.5-2.4,0.9-3.6,1.3l-0.6,0.2l-0.1,0l-0.8,0.2c-0.7,0.1-1.4,0.3-2.1,0.4
		C36,57,35.3,57,34.6,57.1l-1,0h-0.4l-0.5,0L31.5,57l-1.1-0.1c-0.6-0.1-1.2-0.2-1.8-0.3c-0.6-0.1-1.1-0.3-1.7-0.6
		c-0.6-0.2-1.1-0.5-1.6-0.8c-0.5-0.3-1-0.6-1.5-1L23,53.6c-0.2-0.2-0.4-0.4-0.5-0.7c-0.4-0.7-1.6,0-1.2,0.7l0.4,0.7l0.1,0.3l0.1,0.4
		c0.3,0.6,0.7,1.1,1.1,1.5c0.9,0.9,1.9,1.7,3.1,2.3c2.3,1.2,4.8,1.8,7.4,1.9c5.6,0.1,11.2-1.3,16.1-4.1c4.8-2.8,9.4-5.9,13.7-9.5
		c2.1-1.7,4.3-3.3,6.5-4.9c1.1-0.8,2.2-1.5,3.4-2.3l1.6-1l0.1,0l0.4-0.2l1-0.5c1.4-0.7,2.8-1.3,4.2-1.8c0.7-0.3,1.5-0.5,2.3-0.7
		l1.2-0.3l0.6-0.2l0.4-0.1c1.6-0.4,3.2-0.7,4.8-1l2.4-0.5c0.9-0.2,1.8-0.4,2.6-0.7C95.3,32.6,95.7,31.9,95.7,31.2z"/>
	<path class="st0" d="M64,49.9c-3,1-5.8,2.7-8.1,4.9C53.5,57,51,59,48.3,60.9l-1,0.6L47,61.7L46.4,62c-0.7,0.4-1.4,0.7-2.2,1
		c-0.8,0.3-1.6,0.6-2.3,0.9l-1.2,0.3l-0.3,0.1l-0.5,0.1C38.3,64.8,36.6,65,35,65h-0.3h-0.1h-0.1l-0.3,0l-1.2-0.1
		c-0.8-0.1-1.5-0.2-2.3-0.3c-1.6-0.3-3.1-0.8-4.6-1.4c-0.8-0.3-1.6-0.6-2.3-1c-0.8-0.4-1.4-1-2-1.6c-0.6-0.6-1.7,0.2-1.1,0.8
		c0.5,0.6,1.1,1.1,1.7,1.7c0.5,0.6,1.1,1.2,1.6,1.7c1.2,1.1,2.6,1.9,4.2,2.5c3.2,1.3,6.6,1.7,10,1.2c3.6-0.5,7.1-1.7,10.2-3.5
		c3-1.8,5.7-3.9,8.1-6.4c1.3-1.3,2.4-2.5,3.8-3.7c1.3-1.2,2.8-2.2,4.4-3c0.6-0.2,0.8-0.8,0.6-1.4C65.2,49.9,64.6,49.7,64,49.9
		L64,49.9z"/>
	<path class="st0" d="M53.8,63.8c-1.2,0.5-2.4,1.2-3.5,1.8c-1.1,0.6-1.9,1.1-3.1,1.7c-2.3,1.1-4.6,2.1-7.1,2.8l-1.4,0.3
		c-0.6,0.1-1.3,0.2-1.9,0.3c-1.1,0.2-2.2,0.2-3.3,0.2l-0.3,0l-0.3,0L32,70.9l-1.7-0.2l-1.7-0.3l-1.4-0.4c-1.2-0.4-2.4-0.8-3.5-1.3
		c-1.2-0.4-2.3-1.1-3.2-2c-0.2-0.3-0.6-0.3-0.9-0.1c-0.3,0.2-0.3,0.6-0.1,0.9l2.5,2.6c0.9,0.9,1.9,1.6,3,2.1c2.2,1.1,4.6,1.8,7.1,2
		c3.6,0.4,7.3,0,10.7-1.2l-1.1,0.5c-0.8,0.4-1.6,0.7-2.4,0.9c-0.7,0.2-1.5,0.4-2.2,0.6c-3.3,0.7-6.7,0.7-9.9,0
		c-1.8-0.3-3.6-0.9-5.3-1.7c-0.7-0.4-1.4,0.8-0.7,1.2c1.5,1,3.1,1.9,4.8,2.6c1.7,0.7,3.5,1.1,5.4,1.3c2.4,0.3,4.9,0.1,7.3-0.4
		c-1.8,1-3.8,1.8-5.8,2.3c-0.4,0.1-0.6,0.4-0.6,0.8c0.1,0.4,0.4,0.6,0.7,0.6c2.5-0.2,5-0.8,7.3-1.7l1.6-0.8L40,80.5
		c-1.8,1.6-3.7,3.1-5.7,4.4c-0.3,0.2-0.4,0.7-0.1,1c0.2,0.3,0.7,0.4,1,0.1c1-0.6,2.1-1,3.2-1.5c1.1-0.5,2.2-1.1,3.3-1.8
		c1-0.6,2-1.3,3-2c1-0.7,2.5-1.6,2.7-3c0.1-0.7-0.4-1.4-1.1-1.5c-0.2,0-0.4,0-0.6,0.1c0.2-0.3,0.4-0.7,0.5-1.1c0-0.2,0-0.4,0-0.5
		c0.5-0.4,0.9-0.9,1.3-1.4c0.4-0.5,0.3-1.3-0.3-1.6c-0.1-0.1-0.2-0.1-0.4-0.2l0.7-0.3c2.9-1.3,5.5-3.2,7.6-5.5
		c0.4-0.5,0.3-1.3-0.2-1.7C54.6,63.7,54.2,63.7,53.8,63.8z"/>
	<path class="st0" d="M40.8,84.8c-1.3,0.8-2.4,1.8-3.4,2.9c-0.5,0.6,0.4,1.5,0.9,1c1.1-1,2.2-1.8,3.4-2.6
		C42.6,85.4,41.7,84.3,40.8,84.8z"/>
	<path class="st0" d="M168.1,96.4c-0.5-2.9-1.6-5.8-3.2-8.3c-1.5-2.5-3.5-4.6-5.7-6.5c-0.7-0.6-1.8,0.5-1.1,1.1
		c0.9,0.9,1.6,1.9,2.3,3c0.6,1,1.2,2.1,1.7,3.2c0.5,1.1,1,2.3,1.4,3.5c0.4,1.1,0.7,2.2,0.8,3.4c0.2,1.2,0.4,2.5,0.4,3.7
		c0,0.3,0,0.6,0,0.9l0,0.4l0,0.2c0,0.7-0.1,1.3-0.2,2c-0.2,1.3-0.4,2.5-0.7,3.8l0,0.1l0,0.1l-0.1,0.4l-0.3,0.9
		c-0.2,0.6-0.5,1.3-0.8,1.9l-0.8,1.6l-0.4,0.8l-0.1,0.1l-0.1,0.1l-0.3,0.5c-0.7,1.1-1.5,2.1-2.3,3.1l-0.6,0.7l-0.3,0.3l-0.2,0.2
		l-1.5,1.4c-1,0.9-2.1,1.8-3.1,2.7c-2.1,1.7-3.9,3.7-5.5,5.9c-1.4,2.1-2.6,4.3-3.3,6.7c-1.8,5.4-1.7,11.2,0.3,16.5
		c0.2,0.6,0.8,0.9,1.4,0.7c0.6-0.1,1-0.7,0.9-1.3c-0.3-1.2-0.4-2.4-0.5-3.6l-0.1-1.8c0-0.3,0-0.6,0-0.9c0-0.4,0-0.4,0-0.8
		c0.1-1.2,0.2-2.4,0.4-3.6l0.3-1.7l0.2-0.8l0-0.1l0-0.1l0.2-0.6c0.4-1.1,0.8-2.3,1.3-3.3l0.8-1.5l0.2-0.3l0.1-0.2l0.6-0.9
		c0.7-1,1.5-2,2.3-2.8l0.4-0.4l0.2-0.2l0.2-0.2l0.4-0.3l1.6-1.4c2.2-1.8,4.3-3.7,6.3-5.8C167.1,112.7,169.5,104.5,168.1,96.4
		L168.1,96.4z"/>
	<path class="st0" d="M102.7,24.2c-0.5-0.4-1.1-0.7-1.7-1c-0.6-0.2-1.3-0.4-1.9-0.6c-1.1-0.3-2.2-0.5-3.3-0.6
		c-2.3-0.2-4.6-0.2-7,0.1c-4.6,0.7-9.1,2.1-13.2,4.3c-4.3,2.3-8.3,4.9-12.2,7.8c-2,1.4-3.9,2.8-5.9,4.1c-1,0.7-2,1.3-3,2l-1.4,0.8
		l-0.8,0.5l-0.3,0.2l-0.2,0.1c-2,1.1-4.1,2.1-6.3,2.9c-1.1,0.4-2.2,0.8-3.3,1.1l-0.7,0.2l-0.1,0l0,0l-0.4,0.1l-1.8,0.4
		C38.2,46.9,37.1,47,36,47c-0.5,0-1.1,0-1.6,0h0l-0.5,0L32.9,47c-1.1-0.1-2.2-0.3-3.3-0.5l-0.5-0.1L29,46.3l-0.3-0.1l-0.3-0.1
		l-1.5-0.6c-0.5-0.2-1-0.5-1.5-0.7l-0.2-0.1L25,44.6l-0.8-0.5c-0.4-0.3-0.8-0.6-1.2-1l-0.3-0.2l0,0l-0.1-0.1l-0.6-0.6L21.4,41
		l-0.2-0.4L21,40.5l-0.1-0.2l-0.2-0.4l-0.5-1.3L20,37.9l-0.1-0.3l0-0.2c-0.2-1-0.3-2-0.4-3l0-0.4v-0.1l0-0.3l0-0.3l0.2-1.5l0.3-1.5
		l0.1-0.3l0-0.1l0.3-0.8l0.6-1.4l0.4-0.7l0-0.1l0.3-0.4l0.9-1.1l0.3-0.3l0,0l0,0l0.7-0.6l0.6-0.5l0.4-0.3c0.5-0.2,0.9-0.5,1.4-0.6
		l0.3-0.1l0.1,0l0.1,0l0.7-0.1l0.7-0.1c0.2,0,0.4,0,0.6,0l0.8,0.1l0.4,0.1l0.1,0l0.6,0.2l0.3,0.1l0.3,0.1l1,0.7l0.4,0.4l0.5,0.6
		c0.5,0.7,0.7,1.5,0.7,2.3c-0.1,1.6-1.1,3-2.5,3.7c-0.7,0.4-1.6,0.5-2.3,0.3c-0.9-0.3-1.4,1-0.6,1.3c1.9,0.6,3.9,0.2,5.5-1
		c1.7-1.3,2.5-3.5,2.2-5.6c-0.3-2.2-1.6-4.2-3.5-5.5c-2-1.3-4.5-1.7-6.9-1.1c-4.9,1.5-8.5,5.5-9.3,10.5c-1.1,4.6-0.4,9.5,2.1,13.5
		c2.9,4.1,7.4,6.7,12.4,7.3c5.1,0.7,10.2,0.1,15-1.6c9.3-4.1,18-9.4,26-15.7c1.1-0.7,2.1-1.4,3.2-2l0.9-0.5l0.2-0.1l0.3-0.1l1.6-0.9
		c2.2-1.1,4.4-2,6.7-2.7l0.9-0.3l0.4-0.1l0.3-0.1l0.3-0.1l0.4-0.1l0.9-0.2c1.2-0.2,2.4-0.4,3.5-0.5l1.8-0.1h0.4l0.1,0l0.9,0.1
		c1.2,0.1,2.3,0.3,3.5,0.5l0.9,0.2l0.2,0.1l0.3,0.1c0.7,0.2,1.3,0.3,2,0.5c1,0.1,1.9-0.6,2-1.5C103.4,25.2,103.2,24.6,102.7,24.2z"
		/>
	<path class="st0" d="M112.3,21.4c-2.4-1.8-5.1-3.1-7.9-4c-2.8-0.9-5.7-1.6-8.7-1.9c-6-0.5-12.1,0.1-17.9,1.9
		C72,19.3,66.5,22,61.4,25.4c-2.5,1.6-5,3.4-7.5,5.1c-1.3,0.9-2.6,1.7-3.9,2.5l-1.9,1.1L48,34.2l-0.5,0.3L46.4,35
		c-1.5,0.8-3,1.4-4.6,2c-0.7,0.3-1.5,0.5-2.2,0.7L38.3,38c0.1,0,0.3-0.1-0.1,0l-0.8,0.2c-1.5,0.4-3.1,0.6-4.7,0.7
		c-0.4,0-0.7,0-1.1,0c-0.4,0-0.8,0.1-1.3,0.1c-0.8,0-1.6-0.2-2.4-0.4c-0.8-0.2-1.2,1.1-0.4,1.5c0.7,0.2,1.3,0.5,2,0.7
		c0.7,0.3,1.5,0.5,2.2,0.7c1.4,0.2,2.9,0.4,4.4,0.4c3-0.1,6-0.7,8.8-1.9c5.6-2.5,10.9-5.6,15.8-9.3c1.3-0.9,2.6-1.7,3.9-2.6l1.7-1.1
		l1-0.6l0.1-0.1l0.1,0L68,26c2.6-1.4,5.3-2.6,8.1-3.7c1.4-0.5,2.8-1,4.2-1.4l0.9-0.2l0.3-0.1l0.5-0.1c0.8-0.2,1.5-0.3,2.3-0.5
		c1.4-0.2,2.8-0.4,4.3-0.5l2.1-0.1c0.4,0,0.8,0,1.1,0l0.4,0h0.1l0.3,0c1.6,0.1,3.1,0.2,4.7,0.4c0.8,0.1,1.6,0.3,2.4,0.5l1.1,0.3
		l0.5,0.1l0.3,0.1c1.5,0.4,2.9,1,4.3,1.6c1.5,0.7,2.9,1.5,4.3,2.2c1,0.4,2.1,0,2.5-1C113.2,22.9,113,21.9,112.3,21.4z"/>
	<path class="st0" d="M117.6,19.9c-3.2-4.7-8-8.2-13.5-9.9c-6-2.1-12.4-2.9-18.7-2.3c-6,0.6-11.9,2.5-17.1,5.5
		c-4.9,2.9-9.6,6.1-14,9.7c-2.5,1.9-5,3.9-7.5,5.7c-1.2,0.9-2.5,1.8-3.8,2.7L41,32.6c-0.7,0.5-1.4,1-2.1,1.4
		c-0.7,0.4-0.3,1.5,0.5,1.1c1.3-0.5,2.5-1,3.8-1.6c1.3-0.6,2.5-1.3,3.7-2c2.4-1.4,4.6-3,6.9-4.6c4.4-3.3,8.8-6.7,13.5-9.5
		c4.8-2.9,10.1-4.9,15.6-5.9c2.9-0.5,5.8-0.6,8.8-0.4c1.5,0.1,3,0.3,4.5,0.5l2.1,0.4l1,0.2l0.6,0.1l0.5,0.1c1.5,0.4,3,1,4.4,1.6
		c0.7,0.3,1.4,0.6,2.1,1l1.1,0.6l0.2,0.1l0.4,0.3c1.3,0.8,2.5,1.7,3.6,2.8l0.3,0.3l0.2,0.2l0.8,0.9c0.5,0.6,0.9,1.2,1.3,1.8
		c0.6,0.8,1.7,0.9,2.5,0.3C118,21.7,118.1,20.6,117.6,19.9z"/>
	<path class="st0" d="M166.1,57c-0.9-0.6-1.7-1.3-2.4-2c-0.7-0.7-1.3-1.4-1.8-2.3l-0.4-0.6l-0.1-0.1l-0.2-0.4
		c-0.2-0.5-0.5-1-0.7-1.6l-0.5-1.5l-0.2-0.8l-0.1-0.3l-0.1-0.4c-0.5-2.7-0.8-5.3-1-8c-0.2-2.9-0.7-5.7-1.5-8.5
		c-3.1-9.2-11.5-15.7-21.2-16.3c-2.9-0.2-5.8,0.3-8.6,1.3c-2.6,1-5,2.5-7.1,4.3c-0.4,0.4-0.5,1-0.2,1.4c0.3,0.4,1,0.5,1.4,0.2
		c1.9-1.3,3.9-2.2,6.1-2.7c1.1-0.3,2.3-0.5,3.5-0.6l1.8-0.1l0.9,0l0.4,0h0.3h0c1.2,0,2.4,0.1,3.5,0.3l1.6,0.4l0.3,0.1l0.3,0.1
		l0.9,0.3c1,0.4,2,0.8,3,1.3l0.5,0.3l0.2,0.2l0.3,0.2l1.4,1l1.2,1l0.6,0.5l0.2,0.2l0.3,0.3l0.1,0.1l0.2,0.2l0.5,0.6l1.1,1.3l0.9,1.3
		l0.3,0.6l0.1,0.2l0.3,0.5c0.5,1,0.9,2,1.2,3l0.2,0.8l0.1,0.5l0,0.1c0.2,0.7,0.3,1.5,0.4,2.2c0.2,1.4,0.4,2.7,0.6,4.1
		c0.2,2.7,0.7,5.5,1.4,8.1c0.7,2.4,1.8,4.7,3.3,6.7c0.7,1,1.6,1.8,2.6,2.5c1.1,0.7,2.3,1.1,3.5,1.3C166.6,58.6,166.8,57.4,166.1,57z
		"/>
	<polygon class="st0" points="159.9,27 159.9,27.1 159.9,27.1 	"/>
	<path class="st0" d="M170.7,53.3c-0.8-1-1.5-2-2.2-3.1l-0.8-1.3l-0.2-0.3l-0.2-0.5l-0.4-0.9c-1-2.3-1.6-4.8-1.8-7.3
		c-0.1-6-1.1-11.9-2.9-17.6c-1.9-4.7-5.2-8.7-9.5-11.6c-4.7-3-10.4-4.2-15.9-3.3c-3.2,0.5-6.4,1.4-9.4,2.8c-1.5,0.7-3,1.5-4.4,2.3
		c-1.4,0.8-2.7,1.8-3.8,2.9c-0.3,0.2-0.3,0.7-0.1,1c0.2,0.2,0.5,0.3,0.8,0.2c1.3-0.5,2.6-1,3.9-1.6c1.3-0.6,2.6-1.2,3.9-1.7
		c1.3-0.5,2.7-1,4-1.4c1.3-0.4,2.5-0.7,3.8-0.9c2.5-0.5,5.2-0.6,7.7-0.2c1.2,0.2,2.5,0.5,3.7,0.9c0.6,0.2,1.1,0.4,1.6,0.7l0.7,0.4
		l0.4,0.2l0.3,0.2c1,0.6,1.9,1.3,2.8,2l1.2,1.1l0.1,0.1l0.1,0.1l0.3,0.4l0.6,0.7c0.8,0.9,1.5,1.8,2.1,2.8l0.5,0.8l0,0.1l0.2,0.4
		l0.8,1.6c0.5,1.1,0.9,2.2,1.2,3.4l0.1,0.3l0,0.2l0,0l0,0l0,0l0.3,1.2c0.1,0.8,0.3,1.5,0.4,2.3c0.4,3.1,0.5,6.2,0.9,9.2
		c0.3,3,1,5.9,2.2,8.7c0.6,1.3,1.3,2.6,2.2,3.7c1,1.2,2.2,2.1,3.6,2.7C170.3,55.3,171.4,54.1,170.7,53.3z"/>
	<path class="st0" d="M186.1,79.8c-1.3-4.9-3.8-9.3-7.3-13c-1-1.1-2-2.1-3.2-3c-1.1-0.9-2.4-1.5-3.5-2.4c-0.3-0.2-0.7-0.1-1,0.2
		c-0.2,0.3-0.2,0.7,0.1,0.9c0.9,0.7,1.7,1.6,2.4,2.5c0.8,0.9,1.6,1.8,2.3,2.7c1.5,1.7,2.9,3.6,4,5.6c2.5,4.1,3.9,8.8,4.1,13.6
		c0,2.8-0.4,5.6-1,8.4c-0.1,0.7,0.4,1.3,1.1,1.4c0.5,0.1,1.1-0.2,1.3-0.7c1.1-2.5,1.6-5.3,1.6-8.1C187.2,85.1,186.9,82.4,186.1,79.8
		z"/>
	<path class="st0" d="M186,68c-2.6-3.1-5.7-5.8-9.2-8c-0.8-0.5-1.6,0.6-0.9,1.1c2.7,2.1,5.2,4.5,7.2,7.3c2,2.7,3.7,5.6,5,8.7
		c2.5,6.2,2.7,13,0.5,19.3c-0.6,1.7-1.4,3.4-2.3,4.9c-1,1.6-2.3,3.1-3.4,4.7c-0.4,0.5-0.3,1.2,0.3,1.6c0.4,0.3,0.9,0.3,1.4,0
		c1.5-1,2.7-2.4,3.7-3.9c1-1.5,1.9-3.1,2.6-4.8c1.4-3.4,2.1-6.9,2.2-10.6C193.1,81,190.6,73.8,186,68z"/>
	<path class="st0" d="M19.1,48.3C19.2,48.4,19.2,48.3,19.1,48.3c-0.1-0.5-0.3-1-0.7-1.3l-0.7-0.7L17,45.7l0,0l-0.1-0.1l-0.4-0.4
		c-0.4-0.5-0.9-1-1.2-1.6l-0.6-0.8l-0.2-0.4l0,0l-0.1-0.2c-1.3-2.3-2-4.9-2.1-7.5c-0.1-1.5,0.1-2.9,0.7-4.3c0.3-0.8-0.9-1.3-1.2-0.5
		c-1.2,2.7-1.7,5.7-1.5,8.6c0.3,3.1,1.5,6,3.3,8.4c0.6,0.7,1.2,1.3,1.8,1.9c0.3,0.3,0.6,0.5,1,0.8c0.3,0.3,0.8,0.4,1.2,0.5
		c0.2,0,0.4-0.1,0.6-0.1h0c-0.1,0-0.2,0,0,0c0.7-0.1,1.2-0.7,1.1-1.4C19.2,48.5,19.2,48.4,19.1,48.3z"/>
	<path class="st0" d="M17.1,52.8c-0.7-1.3-2.3-1.6-3.6-2.2c-1-0.5-1.9-1.2-2.5-2.1c-0.6-0.9-1.1-1.9-1.6-3c-0.5-1.1-1.1-2.2-1.6-3.4
		c-0.3-0.7-1.5-0.3-1.1,0.5c0.4,1.2,0.7,2.5,0.9,3.7C7.9,47.6,8.3,49,9,50.2c0.7,1.2,1.7,2.2,2.9,2.9c0.6,0.4,1.3,0.7,2,1
		c0.8,0.4,1.7,0.5,2.6,0.2C17.1,54,17.4,53.4,17.1,52.8z"/>
	<path class="st0" d="M17.1,58.9c-1.4-0.4-3-0.4-4.3-1c-1.3-0.5-2.5-1.4-3.2-2.6c-0.4-0.7-1.4,0-1.2,0.7c0.6,1.7,1.7,3.2,3.2,4.2
		c1.6,1.3,3.8,1.6,5.7,0.7c0.5-0.4,0.6-1.1,0.2-1.6C17.4,59.1,17.3,59,17.1,58.9z"/>
	<path class="st0" d="M29.4,79.8c-2.1-0.7-4.3-1.2-6.6-1.4c-1-0.2-1.9-0.5-2.8-0.8l-1.4-0.6l-0.6-0.3l0,0l-0.4-0.2
		c-0.7-0.5-1.4-1-2.1-1.6l-0.3-0.3L14.9,74l-0.9-1.1l-0.7-1.1l-0.3-0.5l-0.1-0.2l-0.1-0.2c-0.4-0.8-0.8-1.6-1.1-2.4l-0.5-1.4l0,0
		l0-0.1L11,66.5l0-0.2l-0.1-0.5c-0.2-1-0.3-2-0.5-3c-0.1-0.4-0.4-0.6-0.8-0.6c-0.2,0-0.4,0.2-0.5,0.4c-0.8,1.8-1,3.9-0.6,5.8
		c0.3,2.1,1.1,4.1,2.2,5.9c2.4,3.7,6.1,6.3,10.4,7.3c2.7,0.9,5.5,1,8.2,0.3c0.6-0.3,0.9-1,0.7-1.6C29.9,80.1,29.7,79.9,29.4,79.8z"
		/>
	<path class="st0" d="M30.6,83.7c-0.1-0.6-0.5-1.1-1.1-1.1c-1.1-0.1-2.2-0.1-3.3,0C25.1,82.7,24,82.9,23,83c-2,0.2-3.9,0.2-5.9-0.2
		l-1.1-0.3l-0.1,0l-0.6-0.2l-0.1,0l-0.2-0.1c-0.8-0.2-1.5-0.6-2.2-0.9c-1.4-0.7-2.5-1.8-3.3-3.2c-0.1-0.4-0.5-0.5-0.9-0.4
		c-0.4,0.1-0.5,0.5-0.4,0.9l0,0c0.5,1.3,1.1,2.5,2,3.6c1,1.1,2.1,2.1,3.5,2.8c3.1,1.5,6.5,2.1,9.9,1.6c2.1-0.1,4.2-0.7,6.2-1.6
		C30.3,84.8,30.6,84.3,30.6,83.7z"/>
	<path class="st0" d="M35.6,93.2c-1-0.3-2.1-0.6-3.2-0.7c-0.5-0.1-0.9-0.2-1.3-0.3c-0.5-0.2-1.1-0.3-1.7-0.4c-0.5,0.1-0.8,0.5-0.7,1
		c0,0.1,0,0.1,0,0.2c0.6,1.2,1.7,2.1,2.9,2.4c1.4,0.6,2.9,0.5,4.2-0.3c0.5-0.4,0.6-1.1,0.2-1.6C35.9,93.4,35.8,93.3,35.6,93.2z"/>
	<path class="st0" d="M37,102.7c-0.3-0.9-0.8-1.6-1.6-2.2l-1.1-0.7c-0.2-0.2-0.3-0.4-0.5-0.6l0.1-0.3c0.4-0.5-0.2-1.2-0.7-1
		c-0.8,0.3-1.3,1.2-1.1,2c0.3,1,0.8,1.8,1.6,2.5c0.2,0.3,0.4,0.5,0.5,0.9l0,0.1l0,0.2l0.1,0.6l0,0.4l0,0.5c0,0.2,0,0.3,0,0.2l0,0
		c-0.1,0.4-0.2,0.8-0.3,1.2c-0.1,0.6,0.3,1.1,0.9,1.2c0.2,0,0.4,0,0.5-0.1C37.1,106.7,37.8,104.5,37,102.7z"/>
	<path class="st0" d="M112.9,82.1c-0.1-0.7-0.3-1.3-0.5-2c-0.2-0.9-0.6-1.7-1.2-2.4c-0.3-0.3-0.7-0.4-1-0.1
		c-0.1,0.1-0.2,0.3-0.3,0.4c-0.1,0.7-0.1,1.4,0.1,2.1l0.2,1.6c0,0.2,0,0.5,0,0.7l0,0.5l-0.1,0.3c0,0-0.1,0.3,0,0.1l-0.1,0.3
		c-0.4,0.3-0.6,1-0.3,1.5c0.3,0.5,0.9,0.7,1.4,0.5C112.4,85.1,113.2,83.6,112.9,82.1z"/>
	<path class="st0" d="M37.7,175.3c-1.2-6.8-2.5-13.6-3.3-20.5c-0.7-6.8-0.8-13.5-0.5-20.3c0.2-3.9,0.6-7.7,0.7-11.6
		c0-0.9-1.5-1.1-1.8-0.3c-1,3.4-1.7,6.8-2,10.3c-0.4,3.6-0.5,7.1-0.6,10.7c-0.1,6.9,0.5,13.9,1.7,20.7c0.7,3.9,1.7,7.8,3.1,11.6
		C35.6,177.4,37.9,176.9,37.7,175.3z"/>
</g>
<path class="st0" d="M169.5,178.7l4.7-4.7c0.4-0.4,0.4-1,0-1.4c-0.4-0.4-1-0.4-1.4,0l-4.7,4.7l-4.7-4.7c-0.4-0.4-1-0.4-1.4,0
	c-0.4,0.4-0.4,1,0,1.4l4.7,4.7l-4.7,4.7c-0.4,0.4-0.4,1,0,1.4c0.2,0.2,0.5,0.3,0.7,0.3c0.3,0,0.5-0.1,0.7-0.3l4.7-4.7l4.7,4.7
	c0.2,0.2,0.5,0.3,0.7,0.3s0.5-0.1,0.7-0.3c0.4-0.4,0.4-1,0-1.4L169.5,178.7z"/>
<g>
	<g>
		<path class="st0" d="M168,193.6c-1.3,0-2.6-0.2-3.9-0.5c-7.6-2.1-12.3-9.6-10.8-17.3l-9.9-10.6l15.3,1.7c3.7-2.9,8.6-4,13.2-2.7
			c8,2.1,12.7,10.4,10.6,18.3c-1,3.9-3.5,7.1-7,9.1C173.2,192.9,170.6,193.6,168,193.6z M148.6,167.8l6.9,7.4l-0.1,0.5
			c-1.6,6.8,2.5,13.6,9.2,15.4c3.3,0.9,6.8,0.4,9.8-1.3c3-1.7,5.1-4.5,6-7.8c1.8-6.9-2.2-14-9.1-15.8c-4.1-1.1-8.5-0.1-11.7,2.6
			l-0.3,0.3L148.6,167.8z"/>
	</g>
</g>
</svg>
