<svg xmlns="http://www.w3.org/2000/svg" xmlns:xlink="http://www.w3.org/1999/xlink" id="Layer_2" x="0" y="0" enable-background="new 0 0 600 600" version="1.1" viewBox="0 0 600 600" xml:space="preserve"><style type="text/css">.st0,.st1{fill-rule:evenodd;clip-rule:evenodd;fill:#4fb95d}.st1{fill:#e04a3f}.st2{fill:#16703b}.st3{fill:#e7e976}.st3,.st4,.st5{fill-rule:evenodd;clip-rule:evenodd}.st4{fill:#313418}.st5{fill:#16703b}</style><g><g><path d="M157.8,199.4c-6.2,28.7-7.6,61.9,2.2,88.9c1.4,4,4.7,8.1,6.5,11.9c4,8.3,6.4,12.8,10.8,19.5 c0.1,0.2,0.8,1.9,1.1,2.2c2.3,2.4,6.4,4.3,9.8,6.5c3.5,2.3,7.1,5.6,9.8,6.5c22,7.7,45.4-4.2,60.7-17.4 c7.4-6.3,13.7-13.1,19.5-21.7c2-3,3.2-5.8,5.4-9.8c2.9-5.1,6.8-11.9,8.7-19.5c6.8,3.9,8.9,8,16.3,11.9c9.9,5.3,25.4,5.8,34.7-1.1 c24.4-18.1,18.3-73.6,6.5-99.8c16.7,6.4,31.5,16.2,45.5,26c41.3,29,77.8,64.3,97.6,116c-61.9-12.2-135.8-3.9-183.3,17.4 c-4.7,2.1-9.6,4.2-14.1,6.5c-13.1,6.8-25.1,14.4-36.9,23.9c-5.7,4.6-11,8.6-16.3,14.1c-15.4,16-38.1,40.9-33.6,77 c1.2,9.7,7.2,21.7,13,29.3c1.1,1.4,3.3,2,4.3,3.3c1.3,1.6,1.1,3.3,2.2,4.3c4.2,4.3,10,8,15.2,11.9c15.3,11.8,32.3,20.1,53.1,28.2 c35.7,13.9,71,25.2,118.2,20.6c0.2,3.3-4,5.1-6.5,6.5c-3.1,1.7-7.7,3.1-10.8,4.3c-28.6,11.5-62.4,22.7-107.4,19.5 c-34.1-2.4-65.4-14.5-90-23.9c-28.5-15.1-56.6-17.8-110.6-100.9c-20-42.4-28.5-76.2-26-107.4c32.1,4.6,36.7-30.5,23.9-49.9 c17.4-2.2,26-26.6,15.2-41.2c10.7-3.4,16.1-12.1,15.2-27.1c15.4,1.8,20.2-12,16.3-26c2.5-4.1,7.5-6.6,11.9-9.8 c4.2-3,8.8-7.6,13-7.6C158.9,195.5,157,196.1,157.8,199.4z" class="st0"/><path d="M507,434.7c-1.5-1-3.9-1.2-5.4-2.2c-1.5-1-2-2.5-3.3-3.3c-30.3-17.2-85.2-19.6-128-9.8 c-8.6,2-16.6,5.6-24.9,8.7c-8,3-16.6,5.3-23.9,8.7c-14.7,7-29,15.9-41.2,24.9c-7.4,5.5-13.4,10.8-20.6,16.3 c-4.3,3.3-8.8,11.2-14.1,15.2c0.1,2.8,4,1.7,5.4,3.3c3.4,4.5,9,6.9,14.1,9.8c1,1.9,2,3.8,5.4,3.3c6-7.2,17.1-12.3,27.1-17.4 c22.8-11.4,58-23.7,91.1-23.9c12.7-0.1,25.6,2.2,34.7,6.5c7.7,3.7,13.4,7.6,18.4,15.2c0.7,1,2.1,2.5,3.3,4.3 c1.9,2.8,5.4,7.5,7.6,11.9c1.6,3.2,3.8,8,4.3,10.8c1.8,10.1-6.6,33.5,5.4,35.8c11.1,2.1,12.8-13,14.1-24.9 c2.6-23.3,1.2-39.5-3.3-59.6c19.3,11.4,37.5,23.9,44.5,47.7c-1.9,6-6,14.8,0,19.5c11.3,2.2,15-8.4,17.4-15.2 c2.7-8,4.4-19.6,4.3-27.1C539.2,465.8,521.8,444.9,507,434.7z" class="st1"/><path d="M160,190.7c-38.6,20.4-69.1,58-86.8,99.8c-1.3,3-3.8,6.4-4.3,8.7c-1,3.9-0.4,9.3-1.1,14.1 c-1.8,13.2-4.7,27.2-5.4,40.1c0,0.6-0.1,1.2-0.1,1.8c0.4-0.1,0.8-0.3,1.1-0.5l0,0c0-0.1,0-0.1,0-0.2c32.1,4.6,36.7-30.5,23.9-49.9 c17.4-2.2,26-26.6,15.2-41.2c10.7-3.4,16.1-12.1,15.2-27.1c15.4,1.8,20.2-12,16.3-26c2.5-4.1,7.5-6.6,11.9-9.8 c4.2-3,8.8-7.6,13-7.6c0,2.6-1.9,3.2-1.1,6.5c0.4,0,0.7,0,1.1,0C158.1,195.4,160.7,194.8,160,190.7z" class="st2"/></g></g><path d="M350.8,217.8c-1.8-22-12.8-49.2-20.6-58.6c-3-3.6-9.6-9.8-15.2-9.8c-8.2,0-15.6,8.2-16.3,15.2	c-0.4,3.8,3.1,8.5,4.3,14.1c2.2,9.6,1.9,18.3,2.2,28.2c0.1,0.2,0.1,0.3,0.2,0.4c1-1.2,2-2.5,4.1-2.9c16.6-5.1,23.5,31.8,11,35	c-0.2,0-0.3,0.1-0.5,0.1c-0.8,0.3-1.7,0.4-2.5,0.5c-13,1.6-13.5-11.5-14.4-15.2c0-0.1-0.1-0.1-0.1-0.2c-0.6,2.9-1.8,9.3-2.1,10.5	c-0.6,2.4-0.5,5.1-1.1,7.6c-1,4.1-4.1,9.8-3.3,14.1c0.8,4.2,7.4,9.3,11.9,11.9c9.4,5.4,21.7,7.4,29.3,2.2	c4.5-3.1,10.8-17.3,11.9-22.8C351.4,240.4,351.5,225.7,350.8,217.8z" class="st3"/><path d="M276,141.9c-9.9-12.8-25.4-21-44.5-18.4c-10,1.3-24.2,7-29.3,11.9c-0.7,0.7-1.3,0.4-2.2,1.1	c-18.6,14.8-35.6,52.5-38,90c-1.6,25.8,2.1,49.9,8.7,65.1c4.4,10.2,8.4,15.2,16.3,22.8c5.4,5.3,11.2,11.6,18.4,13	c8.4,1.6,20.1-0.9,28.2-4.3c12.8-5.4,27.6-19.3,35.8-31.4c14-20.9,27.3-59.1,27.1-90C296.4,177.1,286.4,155.3,276,141.9z M258.7,234.1c-15.5,1.9-13.7-35,2.2-29.3c0.6,0.2,6,4.8,6.5,6.5C269.8,219.1,264.8,233.3,258.7,234.1z" class="st3"/><path d="M260.8,204.8c-15.8-5.7-17.6,31.2-2.2,29.3c6.2-0.8,11.1-15,8.7-22.8C266.4,206.8,261.4,205,260.8,204.8z" class="st4"/><path d="M350.8,217.8c-1.8-22-12.8-49.2-20.6-58.6c-3-3.6-9.6-9.8-15.2-9.8c-8.2,0-15.6,8.2-16.3,15.2	c-0.4,3.8,3.1,8.5,4.3,14.1c2.2,9.6,1.9,18.3,2.2,28.2c0.1,0.2-2.2,17.8-2.2,17.7c-0.6,2.9-1.8,9.3-2.1,10.5	c-0.6,2.4-0.5,5.1-1.1,7.6c-1,4.1-4.1,9.8-3.3,14.1c0.8,4.2,7.4,9.3,11.9,11.9c9.4,5.4,21.7,7.4,29.3,2.2	c4.5-3.1,10.8-17.3,11.9-22.8C351.4,240.4,351.5,225.7,350.8,217.8z" class="st3"/><path d="M309.6,204.5c-2.2,0.3-3.2,1.7-4.1,2.9c-0.1-0.1-0.1-0.3-0.2-0.4c0.1,0.2-2.2,17.8-2.2,17.7	c0,0.1,0.1,0.1,0.1,0.2c0.9,3.7,1.4,16.8,14.4,15.2c0.9-0.1,1.7-0.2,2.5-0.5c0.2,0,0.3-0.1,0.5-0.1	C333,236.3,326.1,199.4,309.6,204.5z" class="st4"/><path d="M317.2,38.9c-20.4-10-36-20.4-67.2-18.4c-30,1.8-53.6,14.1-72.7,30.4c-4.6,4-8.7,8.7-13,13	c-9.1,9.1-15.3,17.2-22.8,29.3c-1.5,2.4-3.8,5-5.4,7.6c-1.4,2.2-1.7,6.6-5.4,6.5c-0.8-5.2,3.1-13.7,6.5-19.5	c1.6-2.8,4.5-4.8,6.5-7.6c1.9-2.7,3.4-6.1,5.4-8.7c22.9-29.2,60.3-58.8,109.5-58.6c6.7,0,13.4,0.9,19.5,2.2	c12.5,2.6,27.4,8,35.8,17.4C315.6,34.2,317.7,36,317.2,38.9z" class="st5"/><path d="M337.8,82.3c-23.1-11.5-37.7-29.1-70.5-31.5c-24-1.7-46.1,4.1-62.9,11.9c-9,4.2-18.5,10.8-27.1,17.4	c-5.7,4.4-11.8,8.6-16.3,13c-0.5,0.5-1.8,1.6-2.2,2.2c-0.6,0.8-0.4,2.4-1.1,3.3c-2.8,3.3-8,7.3-10.8,11.9c-2.7,4.4-4.5,9.2-6.5,13	c-1.6,3.2-1,10.6-8.7,10.8c-3.7-6.3,0.9-13.6,3.3-19.5c6.5-16.6,17.5-30.3,31.5-41.2c24.7-19.3,57.5-39.3,106.3-34.7	c13.3,1.2,28.6,7.9,39,14.1C322.7,59.5,333.2,67.8,337.8,82.3z" class="st5"/><path d="M476.6,329.5c-4.9,8.1-11.5,14.5-18.4,20.6c-10-3.7-14.8-12.7-18.4-22.8C453.5,326.7,463.6,329.6,476.6,329.5z" class="st5"/><path d="M344.3,365.3c-5.7-0.5-9.1-4.8-13-7.6c-3.7-2.6-9.7-4.2-10.8-9.8c0.5-3.2,5.2-3.4,7.6-4.3	c7.2-2.8,17.7-5.6,26-8.7c1.3-0.2,1.9,0.2,2.2,1.1C353.4,346.9,346.9,354.1,344.3,365.3z" class="st5"/></svg>