<?xml version="1.0" encoding="utf-8"?>
<!-- Generator: Adobe Illustrator 19.2.1, SVG Export Plug-In . SVG Version: 6.00 Build 0)  -->
<!DOCTYPE svg PUBLIC "-//W3C//DTD SVG 1.1//EN" "http://www.w3.org/Graphics/SVG/1.1/DTD/svg11.dtd">
<svg version="1.1" id="Layer_1" xmlns="http://www.w3.org/2000/svg" xmlns:xlink="http://www.w3.org/1999/xlink" x="0px" y="0px"
	 viewBox="0 0 100 100" style="enable-background:new 0 0 100 100;" xml:space="preserve">
<style type="text/css">
	.st0{fill:#AB4444;}
</style>
<path class="st0" d="M96.7,20C82,8.9,62.4,14.8,62.4,14.8c14.4-3.3,24.1,17.9,25.7,20.8c2.5,4.4,6.8,4.4,6.8,4.4
	c-1.7-3.6,0.6-11.3,1.6-14.6C97.5,22.1,96.7,20,96.7,20z"/>
<path class="st0" d="M38,14.8c0,0-19.6-5.8-34.4,5.3c0,0-0.7,2,0.3,5.4c1,3.3,3.2,11,1.6,14.6c0,0,4.1,0,6.8-4.4
	C14,32.7,23.5,11.4,38,14.8z"/>
<path class="st0" d="M49.9,84.1c-5.7,2-9.6,0.5-9.6,0.5s2.4,6.3,9.9,6c7.5-0.3,9.2-5.5,9.2-5.5C55.2,86.1,49.9,84.1,49.9,84.1z"/>
<g>
	<polygon class="st0" points="60.5,31.6 55.7,28.1 54.7,31.6 	"/>
	<polygon class="st0" points="52,23.5 55,25.7 56.8,19.9 	"/>
	<path class="st0" d="M83.8,31.7c0,0-7.7-18.2-22.4-16l-1.7,2c0,0-0.3-0.1-0.8-0.1l-2.8,9l6.9,5.1l1.8,1.3H54.2l-3.5,11.3L47.2,33
		H36.5l8.7-6.4l-2.8-9.2c-1.2,0.2-1.8,0.3-1.8,0.3l-1.7-2c-14.7-2.2-22.5,17-22.5,17s3.6,6.5,6.8,9c0,0-3.4,18.3,9.1,28.8
		c0,0,1.9,7.5,4.2,9.6c2.3,2.1,6.2,5.1,13.8,2c7.6,3.1,11.5,0.1,13.8-2c2.3-2.1,4.2-9.6,4.2-9.6c12.5-10.5,9.1-28.8,9.1-28.8
		C80.4,39.2,83.8,31.7,83.8,31.7z M32.9,45.9c-3.7-0.6-4.7-4.8-4.7-4.8c0.8-1.3,2.7-3.7,6.5-3.3c3.8,0.4,8.2,5.7,8.2,5.7
		C40.4,45.3,36.6,46.6,32.9,45.9z M59,69.1c-0.1,1-1.9,2.2-2.4,2.2c0,0-0.4-2.7-2.3-1.9c-1.9,0.8-2.2,4.2-0.6,4.7
		c1.7,0.4-0.7,2.7-1.6,3.3c-0.9,0.6-1.5,2.2-1.5,3.1h0c0-0.8-0.6-2.5-1.5-3.1c-0.9-0.6-3.3-2.8-1.6-3.3c1.7-0.4,1.3-3.8-0.6-4.7
		c-1.9-0.8-2.3,1.9-2.3,1.9c-0.6-0.1-2.3-1.3-2.4-2.2c-0.1-1-0.7-4.1,2.7-6.1c3.4-2,5.6-0.5,5.6-0.5h0c0,0,2.2-1.5,5.6,0.5
		C59.6,65,59.1,68.2,59,69.1z M67.7,46.2c-3.7,0.6-7.5-0.6-10-2.4c0,0,4.4-5.4,8.2-5.7c3.8-0.4,5.6,2,6.5,3.3
		C72.5,41.4,71.4,45.5,67.7,46.2z"/>
	<path class="st0" d="M50.7,22.6l7-5.2c-1.7-0.2-4.5-0.5-7.6-0.3c-2.6-0.1-4.8,0-6.5,0.2L50.7,22.6z"/>
	<polygon class="st0" points="54.5,27.2 50.7,24.4 46.9,27.2 48.3,31.6 53.1,31.6 	"/>
	<polygon class="st0" points="40.9,31.6 46.7,31.6 45.7,28.1 	"/>
	<polygon class="st0" points="44.6,19.8 46.5,25.7 49.5,23.5 	"/>
	<polygon class="st0" points="52.7,33 48.7,33 50.7,39.4 	"/>
</g>
</svg>
