<?xml version="1.0" encoding="utf-8"?>
<!-- Generator: Adobe Illustrator 25.1.0, SVG Export Plug-In . SVG Version: 6.00 Build 0)  -->
<svg version="1.1" id="Layer_1" xmlns="http://www.w3.org/2000/svg" xmlns:xlink="http://www.w3.org/1999/xlink" x="0px" y="0px"
	 viewBox="0 0 1756.2 832.7" style="enable-background:new 0 0 1756.2 832.7;" xml:space="preserve">
<style type="text/css">
	.st0{enable-background:new    ;}
	.st1{fill:#796C0B;}
	.st2{fill:#7C6E0B;}
	.st3{fill:#7A6D0B;}
	.st4{fill:#7D6F0B;}
	.st5{fill:#EFD416;}
	.st6{fill:#7A6C0B;}
	.st7{fill:#7B6E0B;}
	.st8{fill:#7E700B;}
	.st9{fill:#0E5E7D;}
	.st10{fill:#0E5C7A;}
	.st11{fill:#0F5E7E;}
	.st12{fill:#0E5B79;}
	.st13{fill:#1CB3EF;}
	.st14{fill:#0E5D7C;}
	.st15{fill:#0E5C7B;}
	.st16{fill:#0E5B7A;}
</style>
<g>
	<g class="st0">
		<g>
			<polygon class="st1" points="1347.6,134.7 1201.5,289.1 1211.7,255 1357.8,100.6 			"/>
		</g>
		<g>
			<polygon class="st2" points="1337.1,165.1 1191,319.5 1157.6,251.5 1303.7,97 			"/>
		</g>
		<g>
			<polygon class="st3" points="1342.7,224 1196.6,378.4 1191,319.5 1337.1,165.1 			"/>
		</g>
		<g>
			<polygon class="st4" points="1369.7,225.8 1223.6,380.2 1196.6,378.4 1342.7,224 			"/>
		</g>
		<g>
			<polygon class="st5" points="1384.8,102.4 1364.1,166.9 1369.7,225.8 1342.7,224 1337.1,165.1 1303.7,97 1330.8,98.8 
				1347.6,134.7 1357.8,100.6 			"/>
		</g>
	</g>
	<g class="st0">
		<g>
			<polygon class="st4" points="1311,211.4 1165,365.8 1101.9,361.7 1248,207.2 			"/>
		</g>
		<g>
			<polygon class="st3" points="1248,207.2 1101.9,361.7 1090,236.3 1236.1,81.9 			"/>
		</g>
		<g>
			<polygon class="st5" points="1263.1,83.7 1272.4,182.2 1308.5,184.6 1311,211.4 1248,207.2 1236.1,81.9 			"/>
		</g>
	</g>
	<g class="st0">
		<g>
			<polygon class="st4" points="1225.4,120.4 1079.3,274.8 1043.2,272.4 1189.3,118 			"/>
		</g>
		<g>
			<polygon class="st4" points="1230,169.6 1084,324 1047.9,321.6 1194,167.2 			"/>
		</g>
		<g>
			<polygon class="st4" points="1234.7,218.6 1088.6,373 1025.5,368.9 1171.6,214.4 			"/>
		</g>
		<g>
			<polygon class="st3" points="1171.6,214.4 1025.5,368.9 1013.6,243.8 1159.7,89.4 			"/>
		</g>
		<g>
			<polygon class="st5" points="1222.8,93.5 1225.4,120.4 1189.3,118 1191.4,140.4 1227.5,142.7 1230,169.6 1194,167.2 
				1196.1,189.6 1232.2,191.9 1234.7,218.6 1171.6,214.4 1159.7,89.4 			"/>
		</g>
	</g>
	<g class="st0">
		<g>
			<polygon class="st6" points="1122,173.5 975.9,327.9 982.4,245.3 1128.5,90.9 			"/>
		</g>
		<g>
			<polygon class="st7" points="1108,213.8 961.9,368.3 926.7,241.6 1072.8,87.2 			"/>
		</g>
		<g>
			<polygon class="st4" points="1144,216.2 997.9,370.6 961.9,368.3 1108,213.8 			"/>
		</g>
		<g>
			<polygon class="st5" points="1155.5,92.7 1144,216.2 1108,213.8 1072.8,87.2 1099.6,89 1122,173.5 1128.5,90.9 			"/>
		</g>
	</g>
	<g class="st0">
		<g>
			<polygon class="st4" points="1078.5,196.1 932.4,350.5 905.4,348.7 1051.5,194.3 			"/>
		</g>
		<g>
			<polygon class="st3" points="1051.5,194.3 905.4,348.7 893.5,223.4 1039.6,68.9 			"/>
		</g>
		<g>
			<polygon class="st5" points="1066.6,70.7 1078.5,196.1 1051.5,194.3 1039.6,68.9 			"/>
		</g>
	</g>
	<g class="st0">
		<g>
			<polygon class="st4" points="1034.3,107.8 888.2,262.2 861.2,260.4 1007.2,106 			"/>
		</g>
		<g>
			<polygon class="st4" points="980.2,104.2 834.1,258.6 807,256.9 953.1,102.4 			"/>
		</g>
		<g>
			<polygon class="st3" points="953.1,102.4 807,256.9 804.5,230 950.6,75.6 			"/>
		</g>
		<g>
			<polygon class="st7" points="922.7,136 776.6,290.5 766.2,251.1 912.3,96.7 			"/>
		</g>
		<g>
			<polygon class="st5" points="1031.7,80.9 1034.3,107.8 1007.2,106 1016.6,204.2 989.6,202.5 980.2,104.2 953.1,102.4 950.6,75.6 
							"/>
		</g>
		<g>
			<polygon class="st4" points="1016.6,204.2 870.5,358.7 843.5,356.9 989.6,202.5 			"/>
		</g>
		<g>
			<polygon class="st3" points="989.6,202.5 843.5,356.9 834.1,258.6 980.2,104.2 			"/>
		</g>
		<g>
			<polygon class="st4" points="961.7,183.1 815.6,337.5 788.6,335.7 934.7,181.3 			"/>
		</g>
		<g>
			<polygon class="st7" points="934.7,181.3 788.6,335.7 783.8,317.6 929.9,163.2 			"/>
		</g>
		<g>
			<polygon class="st4" points="929.9,163.2 783.8,317.6 761.1,316.1 907.2,161.7 			"/>
		</g>
		<g>
			<polygon class="st4" points="905.8,179.4 759.7,333.8 732.9,332.1 879,177.6 			"/>
		</g>
		<g>
			<polygon class="st6" points="879,177.6 732.9,332.1 744.3,208.2 890.4,53.8 			"/>
		</g>
		<g>
			<path class="st5" d="M926.4,56.2l35.3,126.9l-27-1.8l-4.8-18.1l-22.7-1.5l-1.4,17.7l-26.8-1.8l11.4-123.8L926.4,56.2z
				 M909.4,135.1l13.3,0.9l-10.4-39.3L909.4,135.1"/>
		</g>
	</g>
	<g class="st0">
		<g>
			<polygon class="st4" points="838.6,84.2 692.5,238.6 674.5,237.4 820.6,83 			"/>
		</g>
		<g>
			<polygon class="st1" points="867.8,109.2 721.7,263.7 710.4,275.4 856.4,121 			"/>
		</g>
		<g>
			<polygon class="st3" points="840.7,106.6 694.6,261 692.5,238.6 838.6,84.2 			"/>
		</g>
		<g>
			<polygon class="st4" points="843.3,133.4 697.2,287.8 679.2,286.7 825.3,132.2 			"/>
		</g>
		<g>
			<polygon class="st4" points="875,184.5 728.9,338.9 701.9,337.1 848,182.7 			"/>
		</g>
		<g>
			<polygon class="st3" points="848,182.7 701.9,337.1 697.2,287.8 843.3,133.4 			"/>
		</g>
		<g>
			<polygon class="st3" points="802.9,179.7 656.8,334.2 644.9,208.8 791,54.4 			"/>
		</g>
		<g>
			<path class="st5" d="M864.8,77.1l3.1,32.2L856.4,121l13.8,13.3l4.8,50.2l-27-1.8l-4.7-49.3l-18-1.2l4.7,49.3l-27-1.8L791,54.4
				l54,3.6L864.8,77.1z M840.7,106.6l-2.1-22.4l-18-1.2l2.1,22.4L840.7,106.6"/>
		</g>
		<g>
			<polygon class="st4" points="829.9,181.5 683.8,335.9 656.8,334.2 802.9,179.7 			"/>
		</g>
	</g>
	<g class="st0">
		<g>
			<polygon class="st7" points="758.7,125.2 612.6,279.7 602.2,240.3 748.3,85.9 			"/>
		</g>
		<g>
			<polygon class="st4" points="797.7,172.3 651.6,326.7 624.6,324.9 770.6,170.5 			"/>
		</g>
		<g>
			<polygon class="st7" points="770.6,170.5 624.6,324.9 619.8,306.8 765.9,152.4 			"/>
		</g>
		<g>
			<polygon class="st4" points="765.9,152.4 619.8,306.8 597.1,305.3 743.2,150.9 			"/>
		</g>
		<g>
			<polygon class="st4" points="680.1,75.6 534,230 516,228.8 662.1,74.4 			"/>
		</g>
		<g>
			<polygon class="st6" points="714.9,166.8 568.9,321.2 580.3,197.4 726.4,43 			"/>
		</g>
		<g>
			<polygon class="st3" points="682.3,97.9 536.2,252.4 534,230 680.1,75.6 			"/>
		</g>
		<g>
			<polygon class="st1" points="710.1,108.6 564,263.1 547.7,279.8 693.8,125.4 			"/>
		</g>
		<g>
			<path class="st5" d="M762.4,45.4l35.3,126.9l-27-1.8l-4.8-18.1l-22.7-1.5l-1.4,17.7l-26.8-1.8L726.4,43L762.4,45.4z M745.4,124.3
				l13.3,0.9l-10.4-39.3L745.4,124.3"/>
		</g>
		<g>
			<polygon class="st4" points="741.8,168.6 595.7,323 568.9,321.2 714.9,166.8 			"/>
		</g>
		<g>
			<polygon class="st4" points="693.8,125.4 547.7,279.8 520.7,278 666.8,123.6 			"/>
		</g>
		<g>
			<polygon class="st4" points="671.5,172.8 525.4,327.2 498.3,325.5 644.4,171 			"/>
		</g>
		<g>
			<path class="st5" d="M686.6,49.2l19.7,19.1l3.8,40.3l-16.3,16.7l-27-1.8l4.7,49.2l-27-1.8L632.5,45.7L686.6,49.2z M682.3,97.9
				l-2.1-22.4l-18-1.2l2.1,22.4L682.3,97.9"/>
		</g>
		<g>
			<polygon class="st3" points="644.4,171 498.3,325.5 486.4,200.1 632.5,45.7 			"/>
		</g>
	</g>
	<g class="st0">
		<g>
			<polygon class="st1" points="578.2,95.5 432.1,250 445.9,206.4 591.9,52 			"/>
		</g>
		<g>
			<polygon class="st3" points="603.8,177 457.7,331.5 453.5,286.9 599.6,132.5 			"/>
		</g>
		<g>
			<polygon class="st4" points="630.8,178.8 484.7,333.3 457.7,331.5 603.8,177 			"/>
		</g>
		<g>
			<polygon class="st2" points="585.8,175.8 439.7,330.3 417.4,284.5 563.5,130.1 			"/>
		</g>
		<g>
			<polygon class="st3" points="540.7,172.9 394.6,327.3 382.8,202.2 528.9,47.8 			"/>
		</g>
		<g>
			<polygon class="st4" points="567.7,174.7 421.7,329.1 394.6,327.3 540.7,172.9 			"/>
		</g>
		<g>
			<polygon class="st5" points="619,53.7 630.8,178.8 603.8,177 599.6,132.5 585.8,175.8 563.5,130.1 567.7,174.7 540.7,172.9 
				528.9,47.8 555.9,49.6 578.2,95.5 591.9,52 			"/>
		</g>
	</g>
	<g class="st0">
		<g>
			<polygon class="st4" points="488.6,57.6 342.5,212 324.5,210.8 470.6,56.4 			"/>
		</g>
		<g>
			<polygon class="st3" points="495.4,129.2 349.3,283.6 342.5,212 488.6,57.6 			"/>
		</g>
		<g>
			<polygon class="st1" points="523.3,139.9 377.2,294.4 360.8,311.1 506.9,156.7 			"/>
		</g>
		<g>
			<polygon class="st3" points="451.2,135.2 305.1,289.6 296.6,200.1 442.7,45.7 			"/>
		</g>
		<g>
			<polygon class="st8" points="471,154.3 324.9,308.7 305.1,289.6 451.2,135.2 			"/>
		</g>
		<g>
			<polygon class="st4" points="506.9,156.7 360.8,311.1 324.9,308.7 471,154.3 			"/>
		</g>
		<g>
			<path class="st5" d="M495,31.3l19.7,19.1l8.5,89.5l-16.3,16.7l-36-2.4l-19.7-19.1l-8.5-89.5l16.3-16.7L495,31.3z M495.4,129.2
				l-6.8-71.6l-18-1.2l6.8,71.6L495.4,129.2"/>
		</g>
	</g>
	<g class="st0">
		<g>
			<polygon class="st4" points="403.7,68 257.6,222.5 239.5,221.3 385.6,66.8 			"/>
		</g>
		<g>
			<polygon class="st3" points="405.3,85.9 259.3,240.3 257.6,222.5 403.7,68 			"/>
		</g>
		<g>
			<polygon class="st4" points="432.4,87.6 286.3,242.1 259.3,240.3 405.3,85.9 			"/>
		</g>
		<g>
			<polygon class="st3" points="410.5,139.6 264.4,294.1 262.7,276.1 408.7,121.7 			"/>
		</g>
		<g>
			<polygon class="st1" points="438.3,150.3 292.2,304.8 275.9,321.3 422,166.9 			"/>
		</g>
		<g>
			<polygon class="st3" points="366.2,145.6 220.1,300 211.7,210.5 357.7,56.1 			"/>
		</g>
		<g>
			<polygon class="st8" points="386,164.5 239.9,318.9 220.1,300 366.2,145.6 			"/>
		</g>
		<g>
			<polygon class="st5" points="410.1,41.7 429.8,60.8 432.4,87.6 405.3,85.9 403.7,68 385.6,66.8 392.4,138.4 410.5,139.6 
				408.7,121.7 435.8,123.5 438.3,150.3 422,166.9 386,164.5 366.2,145.6 357.7,56.1 374.1,39.3 			"/>
		</g>
		<g>
			<polygon class="st4" points="422,166.9 275.9,321.3 239.9,318.9 386,164.5 			"/>
		</g>
	</g>
</g>
<g>
	<g class="st0">
		<g>
			<polygon class="st9" points="1699.5,417.1 1592.3,530.3 1508.9,524.8 1616,411.6 			"/>
		</g>
		<g>
			<polygon class="st10" points="1616,411.6 1508.9,524.8 1506.2,497.2 1613.4,384 			"/>
		</g>
		<g>
			<polygon class="st9" points="1613.4,384 1506.2,497.2 1450.5,493.6 1557.6,380.3 			"/>
		</g>
		<g>
			<polygon class="st10" points="1634.4,605.3 1527.2,718.5 1520.7,649.3 1627.8,536.1 			"/>
		</g>
		<g>
			<polygon class="st10" points="1483.3,471.5 1376.2,584.8 1364.4,460.2 1471.5,347 			"/>
		</g>
		<g>
			<polygon class="st11" points="1544.3,530.6 1437.2,643.8 1376.2,584.8 1483.3,471.5 			"/>
		</g>
		<g>
			<polygon class="st9" points="1627.8,536.1 1520.7,649.3 1437.2,643.8 1544.3,530.6 			"/>
		</g>
		<g>
			<polygon class="st12" points="1720.5,638.3 1613.4,751.6 1562.9,803.3 1670,690 			"/>
		</g>
		<g>
			<polygon class="st10" points="1497.7,623.6 1390.6,736.9 1385.4,681.5 1492.5,568.3 			"/>
		</g>
		<g>
			<polygon class="st9" points="1670,690 1562.9,803.3 1451.6,795.9 1558.8,682.7 			"/>
		</g>
		<g>
			<polygon class="st11" points="1558.8,682.7 1451.6,795.9 1390.6,736.9 1497.7,623.6 			"/>
		</g>
		<g>
			<polygon class="st13" points="1633.2,302.6 1694.2,361.7 1699.5,417.1 1616,411.6 1613.4,384 1557.6,380.3 1564.2,449.5 
				1647.7,455 1708.6,513.8 1720.5,638.3 1670,690 1558.8,682.7 1497.7,623.6 1492.5,568.3 1576,573.8 1578.6,601.6 1634.4,605.3 
				1627.8,536.1 1544.3,530.6 1483.3,471.5 1471.5,347 1522,295.3 			"/>
		</g>
	</g>
	<g class="st0">
		<g>
			<polygon class="st10" points="1366,576.6 1258.9,689.8 1230,385.3 1337.1,272.1 			"/>
		</g>
		<g>
			<polygon class="st12" points="1452.1,609.6 1345,722.9 1294.5,774.6 1401.6,661.3 			"/>
		</g>
		<g>
			<polygon class="st10" points="1229.4,594.9 1122.3,708.2 1090.7,376.2 1197.8,262.9 			"/>
		</g>
		<g>
			<polygon class="st11" points="1290.4,654 1183.3,767.2 1122.3,708.2 1229.4,594.9 			"/>
		</g>
		<g>
			<polygon class="st9" points="1401.6,661.3 1294.5,774.6 1183.3,767.2 1290.4,654 			"/>
		</g>
		<g>
			<polygon class="st13" points="1420.6,277.6 1452.1,609.6 1401.6,661.3 1290.4,654 1229.4,594.9 1197.8,262.9 1281.3,268.4 
				1310.2,572.9 1366,576.6 1337.1,272.1 			"/>
		</g>
	</g>
	<g class="st0">
		<g>
			<polygon class="st9" points="1077.1,332 970,445.3 914.3,441.6 1021.4,328.3 			"/>
		</g>
		<g>
			<polygon class="st10" points="1098.1,553.3 991,666.5 970,445.3 1077.1,332 			"/>
		</g>
		<g>
			<polygon class="st12" points="1184.3,586.6 1077.1,699.8 1026.6,751.5 1133.8,638.3 			"/>
		</g>
		<g>
			<polygon class="st10" points="961.5,571.9 854.4,685.2 828.1,408.5 935.3,295.3 			"/>
		</g>
		<g>
			<polygon class="st11" points="1022.5,631 915.4,744.2 854.4,685.2 961.5,571.9 			"/>
		</g>
		<g>
			<polygon class="st9" points="1133.8,638.3 1026.6,751.5 915.4,744.2 1022.5,631 			"/>
		</g>
		<g>
			<path class="st13" d="M1097,250.9l61,59.1l26.3,276.6l-50.5,51.7l-111.2-7.3l-61-59.1l-26.3-276.6l50.5-51.7L1097,250.9z
				 M1098.1,553.3l-21-221.3l-55.8-3.7l21,221.3L1098.1,553.3"/>
		</g>
	</g>
	<g class="st0">
		<g>
			<polygon class="st12" points="771.2,359.9 664,473.2 706.7,338.5 813.8,225.3 			"/>
		</g>
		<g>
			<polygon class="st10" points="850.5,611.9 743.4,725.1 730.3,587.3 837.4,474.1 			"/>
		</g>
		<g>
			<polygon class="st9" points="934,617.4 826.9,730.6 743.4,725.1 850.5,611.9 			"/>
		</g>
		<g>
			<polygon class="st14" points="794.7,608.2 687.6,721.4 618.8,580 725.9,466.8 			"/>
		</g>
		<g>
			<polygon class="st10" points="655.5,599 548.4,712.3 511.7,325.7 618.8,212.4 			"/>
		</g>
		<g>
			<polygon class="st9" points="739,604.5 631.9,717.8 548.4,712.3 655.5,599 			"/>
		</g>
		<g>
			<polygon class="st13" points="897.3,230.8 934,617.4 850.5,611.9 837.4,474.1 794.7,608.2 725.9,466.8 739,604.5 655.5,599 
				618.8,212.4 702.3,217.9 771.2,359.9 813.8,225.3 			"/>
		</g>
	</g>
	<g class="st0">
		<g>
			<polygon class="st15" points="508,448.6 400.8,561.8 368.8,440.3 475.9,327 			"/>
		</g>
		<g>
			<polygon class="st16" points="372.9,577.2 265.8,690.4 301,307.7 408.2,194.5 			"/>
		</g>
		<g>
			<polygon class="st9" points="348,289.6 240.9,402.8 129.4,395.5 236.5,282.3 			"/>
		</g>
		<g>
			<polygon class="st15" points="545,588.5 437.9,701.7 423.1,645.7 530.2,532.5 			"/>
		</g>
		<g>
			<polygon class="st9" points="628.5,594 521.4,707.2 437.9,701.7 545,588.5 			"/>
		</g>
		<g>
			<polygon class="st9" points="530.2,532.5 423.1,645.7 353,641.1 460.1,527.9 			"/>
		</g>
		<g>
			<polygon class="st9" points="362.5,441.7 255.3,554.9 143.8,547.6 251,434.4 			"/>
		</g>
		<g>
			<polygon class="st9" points="455.8,582.6 348.7,695.9 265.8,690.4 372.9,577.2 			"/>
		</g>
		<g>
			<path class="st13" d="M519.4,201.8L628.5,594l-83.5-5.5l-14.8-56l-70.2-4.6l-4.3,54.8l-82.9-5.5l35.3-382.6L519.4,201.8z
				 M466.9,445.9l41.1,2.7L475.9,327L466.9,445.9"/>
		</g>
		<g>
			<polygon class="st9" points="265.4,586.5 158.3,699.7 74.8,694.2 181.9,581 			"/>
		</g>
		<g>
			<polygon class="st13" points="340.1,206.4 348,289.6 236.5,282.3 243.1,351.4 354.6,358.8 362.5,441.7 251,434.4 265.4,586.5 
				181.9,581 145.1,193.6 			"/>
		</g>
		<g>
			<polygon class="st10" points="181.9,581 74.8,694.2 38,306.8 145.1,193.6 			"/>
		</g>
	</g>
</g>
</svg>
