<?xml version="1.0" encoding="utf-8"?>
<!-- Generator: Adobe Illustrator 19.2.1, SVG Export Plug-In . SVG Version: 6.00 Build 0)  -->
<!DOCTYPE svg PUBLIC "-//W3C//DTD SVG 1.1//EN" "http://www.w3.org/Graphics/SVG/1.1/DTD/svg11.dtd">
<svg version="1.1" xmlns="http://www.w3.org/2000/svg" xmlns:xlink="http://www.w3.org/1999/xlink" x="0px" y="0px"
	 viewBox="0 0 100 100" style="enable-background:new 0 0 100 100;" xml:space="preserve">
<style type="text/css">
	.st0{display:none;}
	.st1{display:inline;fill:#AB4444;}
	.st2{display:inline;}
	.st3{fill:#AB4444;}
	.st4{display:inline;fill:#343434;}
	.st5{fill:#343434;}
	.st6{fill:#161516;}
</style>
<g id="Layer_1" class="st0">
	<path class="st1" d="M96.7,20C82,8.9,62.4,14.8,62.4,14.8c14.4-3.3,24.1,17.9,25.7,20.8c2.5,4.4,6.8,4.4,6.8,4.4
		c-1.7-3.6,0.6-11.3,1.6-14.6C97.5,22.1,96.7,20,96.7,20z"/>
	<path class="st1" d="M38,14.8c0,0-19.6-5.8-34.4,5.3c0,0-0.7,2,0.3,5.4c1,3.3,3.2,11,1.6,14.6c0,0,4.1,0,6.8-4.4
		C14,32.7,23.5,11.4,38,14.8z"/>
	<path class="st1" d="M49.9,84.1c-5.7,2-9.6,0.5-9.6,0.5s2.4,6.3,9.9,6c7.5-0.3,9.2-5.5,9.2-5.5C55.2,86.1,49.9,84.1,49.9,84.1z"/>
	<g class="st2">
		<polygon class="st3" points="60.5,31.6 55.7,28.1 54.7,31.6 		"/>
		<polygon class="st3" points="52,23.5 55,25.7 56.8,19.9 		"/>
		<path class="st3" d="M83.8,31.7c0,0-7.7-18.2-22.4-16l-1.7,2c0,0-0.3-0.1-0.8-0.1l-2.8,9l6.9,5.1l1.8,1.3H54.2l-3.5,11.3L47.2,33
			H36.5l8.7-6.4l-2.8-9.2c-1.2,0.2-1.8,0.3-1.8,0.3l-1.7-2c-14.7-2.2-22.5,17-22.5,17s3.6,6.5,6.8,9c0,0-3.4,18.3,9.1,28.8
			c0,0,1.9,7.5,4.2,9.6c2.3,2.1,6.2,5.1,13.8,2c7.6,3.1,11.5,0.1,13.8-2c2.3-2.1,4.2-9.6,4.2-9.6c12.5-10.5,9.1-28.8,9.1-28.8
			C80.4,39.2,83.8,31.7,83.8,31.7z M32.9,45.9c-3.7-0.6-4.7-4.8-4.7-4.8c0.8-1.3,2.7-3.7,6.5-3.3c3.8,0.4,8.2,5.7,8.2,5.7
			C40.4,45.3,36.6,46.6,32.9,45.9z M59,69.1c-0.1,1-1.9,2.2-2.4,2.2c0,0-0.4-2.7-2.3-1.9c-1.9,0.8-2.2,4.2-0.6,4.7
			c1.7,0.4-0.7,2.7-1.6,3.3c-0.9,0.6-1.5,2.2-1.5,3.1h0c0-0.8-0.6-2.5-1.5-3.1c-0.9-0.6-3.3-2.8-1.6-3.3c1.7-0.4,1.3-3.8-0.6-4.7
			c-1.9-0.8-2.3,1.9-2.3,1.9c-0.6-0.1-2.3-1.3-2.4-2.2c-0.1-1-0.7-4.1,2.7-6.1c3.4-2,5.6-0.5,5.6-0.5h0c0,0,2.2-1.5,5.6,0.5
			C59.6,65,59.1,68.2,59,69.1z M67.7,46.2c-3.7,0.6-7.5-0.6-10-2.4c0,0,4.4-5.4,8.2-5.7c3.8-0.4,5.6,2,6.5,3.3
			C72.5,41.4,71.4,45.5,67.7,46.2z"/>
		<path class="st3" d="M50.7,22.6l7-5.2c-1.7-0.2-4.5-0.5-7.6-0.3c-2.6-0.1-4.8,0-6.5,0.2L50.7,22.6z"/>
		<polygon class="st3" points="54.5,27.2 50.7,24.4 46.9,27.2 48.3,31.6 53.1,31.6 		"/>
		<polygon class="st3" points="40.9,31.6 46.7,31.6 45.7,28.1 		"/>
		<polygon class="st3" points="44.6,19.8 46.5,25.7 49.5,23.5 		"/>
		<polygon class="st3" points="52.7,33 48.7,33 50.7,39.4 		"/>
	</g>
</g>
<g id="Layer_2" class="st0">
	<path class="st4" d="M74.8,27.7C59.5,27.7,52.7,3,52.7,3s-6.8,24.7-22.1,24.7c-1.3,0-2.7-0.2-4.2-0.6L7.3,20c0,0,14.2,15,15.6,31.1
		c0,0,0.2,1,1.9,2.3c-0.3,3-0.4,7.5-0.4,10.3c-0.1,4.6,0.5,9.3,1.9,13.3c2.5,6.9,7.2,10.7,11.7,13.9c4.7,3.4,9.7,6.4,14.7,5
		c5,1.4,10-1.7,14.7-5c4.5-3.2,9.2-7,11.7-13.9c1.4-4,2-8.7,1.9-13.3c0-2.8-0.1-7.2-0.4-10.3c1.7-1.3,1.9-2.3,1.9-2.3
		C83.8,35.1,98,20,98,20l-19,7.1C77.5,27.6,76.1,27.7,74.8,27.7z M76.3,63.9c-0.7,1.2-1.5,2.2-2.3,3.1c-1.7,1.9-3.4,3.7-4.5,6.4
		c-0.4,0.9-0.7,1.9-1.1,2.8c-0.7,1.7-1.6,3.1-2.6,4.5c-0.8,1.1-1.6,2.3-2.5,3c-1.2,0.9-2.5,1.1-3.8,1.2c-1,0-2.1,0-3-0.9
		c-0.8-0.8-1.3-2-1.9-3c-0.4-0.7-1-1.3-1.7-1.5c0,0-0.1,0-0.1,0c-0.1,0-0.1,0-0.2,0c-0.1,0-0.1,0-0.2,0c0,0-0.1,0-0.1,0
		c-0.6,0.2-1.2,0.8-1.7,1.5c-0.6,1-1.2,2.3-1.9,3c-0.9,0.9-2,0.9-3,0.9c-1.3,0-2.6-0.2-3.8-1.2c-0.9-0.7-1.7-1.9-2.5-3
		c-0.9-1.4-1.9-2.8-2.6-4.5c-0.4-0.9-0.7-1.9-1.1-2.8c-1.1-2.7-2.9-4.6-4.5-6.4c-0.8-0.9-1.7-1.9-2.3-3.1c-0.8-1.5-1.5-5.8-2.1-9.2
		c3.8,1.9,11.3,3.8,25.8,3.8c14.5,0,22-1.9,25.8-3.8C77.9,58.1,77.1,62.4,76.3,63.9z M80.1,30.2l8.2-3.1c-4,6-8.2,14.3-9.1,23.1
		c-0.8,0.9-5.5,5-26.5,5s-25.8-4.1-26.5-5C25.2,41.5,21,33.2,17,27.2l8.2,3.1c0.1,0,0.2,0.1,0.3,0.1c1.7,0.5,3.4,0.7,5.1,0.7
		C41.9,31,49,20.3,52.7,12.3c3.7,8,10.8,18.7,22.1,18.7c1.7,0,3.4-0.2,5.1-0.7C79.9,30.3,80,30.3,80.1,30.2z"/>
	<g class="st2">
		<path class="st5" d="M51.2,60.7c-0.1,0.3-0.9,0.4-1.8,0.2c-0.9-0.2-1.5-0.7-1.5-1c0.1-0.3,0.9-0.4,1.8-0.2
			C50.7,59.9,51.3,60.4,51.2,60.7z"/>
		<path class="st5" d="M54.1,60.7c0.1,0.3,0.9,0.4,1.8,0.2c0.9-0.2,1.5-0.7,1.5-1c-0.1-0.3-0.9-0.4-1.8-0.2
			C54.7,59.9,54,60.4,54.1,60.7z"/>
	</g>
	<g class="st2">
		<path class="st5" d="M49.1,36.2v-2.1h7.2v2.1l-1.9,0.4v12.6l1.9,0.4v2.1h-7.2v-2.1l1.9-0.4V36.5L49.1,36.2z"/>
	</g>
	<polygon class="st4" points="52.7,23.2 53.7,26.3 57,26.3 54.3,28.3 55.4,31.4 52.7,29.5 50,31.4 51,28.3 48.3,26.3 51.6,26.3 	"/>
	<path class="st4" d="M61.4,65l0.2,3.2c0,0.4-0.3,0.7-0.7,0.8l-2.8,0.2c-0.4,0-0.7-0.3-0.8-0.7l-0.2-2.9l-2.1,0.3l0.3,4.6
		c0,0.4-0.3,0.7-0.7,0.8l-2.8,0.2c-0.4,0-0.7-0.3-0.8-0.7l-0.2-4.3l-2,0.2l0.6,3c0.1,0.4-0.2,0.8-0.6,0.8l-2.8,0.5
		c-0.4,0.1-0.8-0.2-0.8-0.6L44.6,67l-5.3,0.6c0,0,7.3,9.2,15.5,8c8.3-1.1,10.4-11.1,10.4-11.1L61.4,65z"/>
</g>
<g id="Layer_3">
	<g>
		<path class="st6" d="M44.8,62.1c0,1.9-0.3,3.7-1,5.2c-0.7,1.5-1.6,2.9-2.8,4c-1.2,1.1-2.5,2-4.1,2.5c-1.6,0.6-3.2,0.9-4.9,0.9
			c-1.8,0-3.5-0.3-5-1c-1.5-0.7-2.9-1.6-4-2.8c-1.1-1.2-2-2.5-2.6-4.1s-0.9-3.2-0.9-5c0-1.4,0.2-2.7,0.6-3.9c0.4-1.2,1-2.2,1.7-3.2
			c0.7-0.9,1.5-1.7,2.3-2.4c0.9-0.7,1.8-1.2,2.7-1.6c-0.8-0.4-1.6-0.9-2.3-1.5c-0.7-0.6-1.4-1.3-1.9-2.1c-0.5-0.8-1-1.6-1.3-2.6
			c-0.3-0.9-0.5-1.9-0.5-3c0-1.8,0.3-3.4,1-4.8c0.7-1.4,1.6-2.5,2.7-3.5c1.1-0.9,2.3-1.7,3.7-2.1c1.4-0.5,2.7-0.7,4.1-0.7
			c1.4,0,2.7,0.2,4.1,0.7c1.4,0.5,2.6,1.2,3.7,2.1c1.1,0.9,2,2.1,2.7,3.5c0.7,1.4,1,3,1,4.7c0,1.1-0.2,2.1-0.5,3
			c-0.3,0.9-0.8,1.8-1.3,2.6c-0.6,0.8-1.2,1.5-2,2.1c-0.7,0.6-1.5,1.1-2.3,1.5c1,0.4,1.9,1,2.8,1.7c0.9,0.7,1.7,1.5,2.3,2.5
			s1.2,2,1.6,3.2C44.6,59.4,44.8,60.7,44.8,62.1z M41.2,61.8c0-1.5-0.3-2.8-0.8-3.9c-0.5-1.1-1.3-2.1-2.1-2.9
			c-0.9-0.8-1.9-1.4-3-1.8c-1.1-0.4-2.2-0.6-3.2-0.6c-1.1,0-2.2,0.2-3.3,0.6c-1.1,0.4-2.1,1-2.9,1.8c-0.9,0.8-1.5,1.8-2.1,2.9
			c-0.5,1.1-0.8,2.4-0.8,3.8c0,1.4,0.3,2.7,0.8,3.8c0.5,1.1,1.3,2.1,2.1,2.9s1.9,1.4,2.9,1.8c1.1,0.4,2.2,0.6,3.3,0.6
			c1.1,0,2.2-0.2,3.3-0.6c1.1-0.4,2.1-1,2.9-1.8c0.9-0.8,1.6-1.8,2.1-2.9C41,64.4,41.2,63.2,41.2,61.8z M24.2,41.9
			c0,1.2,0.2,2.2,0.7,3.2c0.5,0.9,1.1,1.7,1.9,2.3c0.8,0.6,1.6,1.1,2.5,1.4c0.9,0.3,1.9,0.5,2.8,0.5c0.9,0,1.8-0.2,2.8-0.5
			c0.9-0.3,1.8-0.8,2.5-1.5c0.8-0.7,1.4-1.5,1.9-2.4c0.5-0.9,0.7-2,0.7-3.2c0-1.1-0.2-2.2-0.7-3.1c-0.4-0.9-1-1.7-1.8-2.3
			c-0.7-0.6-1.6-1.1-2.5-1.4c-0.9-0.3-1.9-0.5-3-0.5s-2,0.2-3,0.5c-0.9,0.3-1.8,0.8-2.5,1.5c-0.7,0.6-1.3,1.4-1.7,2.4
			C24.4,39.7,24.2,40.7,24.2,41.9z"/>
		<path class="st6" d="M66.9,70.6c2.3,0,4.2-0.5,5.7-1.6s2.7-2.4,3.7-4.1c0.9-1.7,1.5-3.6,1.9-5.8s0.5-4.4,0.5-6.6v-22h3.6v22
			c0,2.9-0.3,5.7-0.8,8.4c-0.5,2.6-1.4,5-2.7,7c-1.2,2-2.8,3.6-4.8,4.8c-2,1.2-4.3,1.8-7.2,1.8c-2.9,0-5.4-0.6-7.3-1.9
			c-2-1.2-3.5-2.9-4.7-4.9c-1.2-2-2.1-4.4-2.6-7c-0.5-2.6-0.8-5.3-0.8-8.1v-22h3.6v22c0,2.3,0.2,4.5,0.6,6.7c0.4,2.2,1,4.1,1.9,5.8
			c0.9,1.7,2.1,3,3.6,4.1C62.7,70.1,64.6,70.6,66.9,70.6z"/>
	</g>
</g>
</svg>
