<svg xmlns="http://www.w3.org/2000/svg" xmlns:xlink="http://www.w3.org/1999/xlink" id="Layer_4" x="0" y="0" enable-background="new 0 0 100 100" version="1.1" viewBox="0 0 100 100" xml:space="preserve"><style type="text/css">.st0{fill-rule:evenodd;clip-rule:evenodd}.st0,.st1{fill:#fff}</style><g><path d="M50.6,3.3C24.2,3.3,2.8,24.7,2.8,51.2c0,21.1,13.7,39,32.7,45.4c2.4,0.4,3.3-1,3.3-2.3c0-1.1,0-4.9-0.1-8.9 c-13.3,2.9-16.1-5.6-16.1-5.6c-2.2-5.5-5.3-7-5.3-7c-4.3-3,0.3-2.9,0.3-2.9c4.8,0.3,7.3,4.9,7.3,4.9c4.3,7.3,11.2,5.2,13.9,4 c0.4-3.1,1.7-5.2,3-6.4C31.3,71.1,20.1,67,20.1,48.7c0-5.2,1.9-9.5,4.9-12.8c-0.5-1.2-2.1-6.1,0.5-12.7c0,0,4-1.3,13.1,4.9 c3.8-1.1,7.9-1.6,12-1.6c4.1,0,8.2,0.5,12,1.6c9.1-6.2,13.1-4.9,13.1-4.9c2.6,6.6,1,11.4,0.5,12.7c3.1,3.3,4.9,7.6,4.9,12.8 C81.1,67,70,71.1,59.3,72.2c1.7,1.5,3.2,4.4,3.2,8.9c0,6.4-0.1,11.5-0.1,13.1c0,1.3,0.9,2.8,3.3,2.3c19-6.3,32.7-24.2,32.7-45.4 C98.4,24.7,77,3.3,50.6,3.3z" class="st0"/><path d="M20.9,72c-0.1,0.2-0.5,0.3-0.8,0.1c-0.3-0.2-0.5-0.5-0.4-0.7c0.1-0.2,0.5-0.3,0.8-0.1 C20.9,71.4,21.1,71.7,20.9,72L20.9,72z M20.4,71.5" class="st1"/><path d="M22.9,74.1c-0.2,0.2-0.7,0.1-1-0.2c-0.3-0.3-0.4-0.8-0.1-1c0.2-0.2,0.7-0.1,1,0.2 C23.1,73.5,23.1,73.9,22.9,74.1L22.9,74.1z M22.4,73.7" class="st1"/><path d="M24.8,76.9c-0.3,0.2-0.8,0-1.1-0.4c-0.3-0.4-0.3-0.9,0-1.1c0.3-0.2,0.8,0,1.1,0.4 C25.1,76.2,25.1,76.7,24.8,76.9L24.8,76.9z M24.8,76.9" class="st1"/><path d="M27.3,79.6c-0.3,0.3-0.8,0.2-1.2-0.2c-0.4-0.4-0.5-0.9-0.3-1.2c0.3-0.3,0.8-0.2,1.2,0.2 C27.5,78.7,27.6,79.3,27.3,79.6L27.3,79.6z M27.3,79.6" class="st1"/><path d="M30.9,81.1c-0.1,0.4-0.7,0.5-1.2,0.4c-0.5-0.2-0.9-0.6-0.8-1c0.1-0.4,0.7-0.6,1.2-0.4 C30.7,80.3,31,80.7,30.9,81.1L30.9,81.1z M30.9,81.1" class="st1"/><path d="M34.8,81.4c0,0.4-0.4,0.7-1,0.7c-0.6,0-1-0.3-1-0.7c0-0.4,0.4-0.7,1-0.7C34.4,80.7,34.8,81,34.8,81.4 L34.8,81.4z M34.8,81.4" class="st1"/><path d="M38.5,80.8c0.1,0.4-0.3,0.8-0.9,0.9c-0.6,0.1-1.1-0.1-1.1-0.5c-0.1-0.4,0.3-0.8,0.9-0.9 C37.9,80.1,38.4,80.4,38.5,80.8L38.5,80.8z M38.5,80.8" class="st1"/></g></svg>