<?xml version="1.0" encoding="utf-8"?>
<!-- Generator: Adobe Illustrator 21.1.0, SVG Export Plug-In . SVG Version: 6.00 Build 0)  -->
<svg version="1.1" id="Layer_1" xmlns="http://www.w3.org/2000/svg" xmlns:xlink="http://www.w3.org/1999/xlink" x="0px" y="0px"
	 viewBox="0 0 360 360" style="enable-background:new 0 0 360 360;" xml:space="preserve">
<style type="text/css">
	.st0{fill:#FFFFFF;}
</style>
<path class="st0" d="M178.6,21.1c3.3,0,6,3.2,6.1,3.4l138.9,179.6c11.2,14.2,18,32.1,18,51.5c0,45.8-37.2,83-83,83
	c-37.1,0-68.5-24.3-79.1-57.9c-11.5,32.1-42.1,55-78.2,55c-45.8,0-83-37.2-83-83c0-18.1,5.8-34.9,15.7-48.6L172.6,24.5
	C172.7,24.3,175.3,21.1,178.6,21.1 M178.6,10.1c-7.2,0-12.6,4.8-14.8,7.8L25.3,197.4l-0.1,0.1l-0.1,0.1
	c-11.6,16.1-17.8,35.1-17.8,55c0,51.8,42.2,94,94,94c31.5,0,60.4-15.8,77.7-41c6.1,9.8,14.1,18.4,23.6,25.4
	c16.3,12.1,35.7,18.5,56.1,18.5c51.8,0,94-42.2,94-94c0-21.4-7-41.5-20.3-58.3L193.5,17.8C191.4,15,185.8,10.1,178.6,10.1
	L178.6,10.1z"/>
<path class="st0" d="M179.1,149.9c1.8-4,3.7-7.5,6.3-10.7c5.9-7.4,13.2-12.5,22.8-13.9c9.6-1.4,18,1.1,25.3,7.5
	c6.1,5.4,9.6,12.4,11.5,20.2c1.2,5,1.7,10.1,1.4,15.3c-0.5,7.9-3.3,14.8-8.5,20.8c-5.1,5.9-11.4,10.2-17.9,14.3
	c-6.3,4-12.7,7.8-18.5,12.5c-2.8,2.3-5.5,4.8-8.2,7.3c-4.5,4.4-8.7,9-12.1,14.2c-0.8,1.2-1.3,2.4-2,3.8c-0.9-1.7-1.7-3.4-2.7-4.9
	c-1.8-2.7-3.8-5.3-6-7.7c-5.5-6.3-11.8-11.7-18.8-16.3c-4.4-2.9-9-5.6-13.5-8.4c-6-3.7-11.8-7.8-16.7-13.1c-5-5.4-8.3-11.6-9.3-19
	c-1.3-9.7,0.1-18.9,4.1-27.8c3.5-7.6,8.8-13.4,16.4-17c4.9-2.3,10.1-3.2,15.5-2.6c9,0.9,16.2,5.3,22.2,11.8
	c3.1,3.4,5.6,7.3,7.5,11.6C178.4,148.5,178.7,149,179.1,149.9z"/>
</svg>
