<svg xmlns="http://www.w3.org/2000/svg" xmlns:xlink="http://www.w3.org/1999/xlink" id="Layer_2" x="0" y="0" enable-background="new 0 0 100 100" version="1.1" viewBox="0 0 100 100" xml:space="preserve"><style type="text/css">.st0{fill:#343434}</style><path d="M74.8,27.7C59.5,27.7,52.7,3,52.7,3s-6.8,24.7-22.1,24.7c-1.3,0-2.7-0.2-4.2-0.6L7.3,20c0,0,14.2,15,15.6,31.1	c0,0,0.2,1,1.9,2.3c-0.3,3-0.4,7.5-0.4,10.3c-0.1,4.6,0.5,9.3,1.9,13.3c2.5,6.9,7.2,10.7,11.7,13.9c4.7,3.4,9.7,6.4,14.7,5	c5,1.4,10-1.7,14.7-5c4.5-3.2,9.2-7,11.7-13.9c1.4-4,2-8.7,1.9-13.3c0-2.8-0.1-7.2-0.4-10.3c1.7-1.3,1.9-2.3,1.9-2.3	C83.8,35.1,98,20,98,20l-19,7.1C77.5,27.6,76.1,27.7,74.8,27.7z M76.3,63.9c-0.7,1.2-1.5,2.2-2.3,3.1c-1.7,1.9-3.4,3.7-4.5,6.4	c-0.4,0.9-0.7,1.9-1.1,2.8c-0.7,1.7-1.6,3.1-2.6,4.5c-0.8,1.1-1.6,2.3-2.5,3c-1.2,0.9-2.5,1.1-3.8,1.2c-1,0-2.1,0-3-0.9	c-0.8-0.8-1.3-2-1.9-3c-0.4-0.7-1-1.3-1.7-1.5c0,0-0.1,0-0.1,0c-0.1,0-0.1,0-0.2,0c-0.1,0-0.1,0-0.2,0c0,0-0.1,0-0.1,0	c-0.6,0.2-1.2,0.8-1.7,1.5c-0.6,1-1.2,2.3-1.9,3c-0.9,0.9-2,0.9-3,0.9c-1.3,0-2.6-0.2-3.8-1.2c-0.9-0.7-1.7-1.9-2.5-3	c-0.9-1.4-1.9-2.8-2.6-4.5c-0.4-0.9-0.7-1.9-1.1-2.8c-1.1-2.7-2.9-4.6-4.5-6.4c-0.8-0.9-1.7-1.9-2.3-3.1c-0.8-1.5-1.5-5.8-2.1-9.2	c3.8,1.9,11.3,3.8,25.8,3.8c14.5,0,22-1.9,25.8-3.8C77.9,58.1,77.1,62.4,76.3,63.9z M80.1,30.2l8.2-3.1c-4,6-8.2,14.3-9.1,23.1	c-0.8,0.9-5.5,5-26.5,5s-25.8-4.1-26.5-5C25.2,41.5,21,33.2,17,27.2l8.2,3.1c0.1,0,0.2,0.1,0.3,0.1c1.7,0.5,3.4,0.7,5.1,0.7	C41.9,31,49,20.3,52.7,12.3c3.7,8,10.8,18.7,22.1,18.7c1.7,0,3.4-0.2,5.1-0.7C79.9,30.3,80,30.3,80.1,30.2z" class="st0"/><g><path d="M51.2,60.7c-0.1,0.3-0.9,0.4-1.8,0.2c-0.9-0.2-1.5-0.7-1.5-1c0.1-0.3,0.9-0.4,1.8-0.2 C50.7,59.9,51.3,60.4,51.2,60.7z" class="st0"/><path d="M54.1,60.7c0.1,0.3,0.9,0.4,1.8,0.2c0.9-0.2,1.5-0.7,1.5-1c-0.1-0.3-0.9-0.4-1.8-0.2 C54.7,59.9,54,60.4,54.1,60.7z" class="st0"/></g><g><path d="M49.1,36.2v-2.1h7.2v2.1l-1.9,0.4v12.6l1.9,0.4v2.1h-7.2v-2.1l1.9-0.4V36.5L49.1,36.2z" class="st0"/></g><polygon points="52.7 23.2 53.7 26.3 57 26.3 54.3 28.3 55.4 31.4 52.7 29.5 50 31.4 51 28.3 48.3 26.3 51.6 26.3" class="st0"/><path d="M61.4,65l0.2,3.2c0,0.4-0.3,0.7-0.7,0.8l-2.8,0.2c-0.4,0-0.7-0.3-0.8-0.7l-0.2-2.9l-2.1,0.3l0.3,4.6	c0,0.4-0.3,0.7-0.7,0.8l-2.8,0.2c-0.4,0-0.7-0.3-0.8-0.7l-0.2-4.3l-2,0.2l0.6,3c0.1,0.4-0.2,0.8-0.6,0.8l-2.8,0.5	c-0.4,0.1-0.8-0.2-0.8-0.6L44.6,67l-5.3,0.6c0,0,7.3,9.2,15.5,8c8.3-1.1,10.4-11.1,10.4-11.1L61.4,65z" class="st0"/></svg>