<?xml version="1.0" encoding="utf-8"?>
<!-- Generator: Adobe Illustrator 25.1.0, SVG Export Plug-In . SVG Version: 6.00 Build 0)  -->
<svg version="1.1" id="Layer_1" xmlns="http://www.w3.org/2000/svg" xmlns:xlink="http://www.w3.org/1999/xlink" x="0px" y="0px"
	 viewBox="0 0 320 320" style="enable-background:new 0 0 320 320;" xml:space="preserve">
<style type="text/css">
	.st0{fill:#EE3729;}
</style>
<g>
	<g id="Layer_14">
		<g>
			<path class="st0" d="M305.8,143L291,98.6c-2.9-8.8-11.9-11.9-20.8-8.8l-86,41.6L199,33.4c0-8.8-6-17.9-14.8-17.9h-47.5
				c-8.9,0-14.8,8.8-14.8,17.9l14.8,97.9L47.6,89.8c-6-2.9-14.8,0-17.9,8.8L11.8,143c0,8.9,2.9,17.9,11.9,17.9l94.8,17.9l-65.2,68.3
				c-6,6-6,17.9,0,23.7l38.5,29.6c6,6,17.9,2.9,20.8-6l44.4-86l44.4,86c2.9,8.9,14.8,8.9,20.8,6l38.5-29.6c11.9-6,11.9-14.8,6-23.7
				l-68.3-68.3l94.8-17.9C302.7,160.9,308.7,152.1,305.8,143z"/>
		</g>
	</g>
</g>
</svg>
