<?xml version="1.0" encoding="utf-8"?>
<!-- Generator: Adobe Illustrator 19.2.1, SVG Export Plug-In . SVG Version: 6.00 Build 0)  -->
<!DOCTYPE svg PUBLIC "-//W3C//DTD SVG 1.1//EN" "http://www.w3.org/Graphics/SVG/1.1/DTD/svg11.dtd">
<svg version="1.1" id="Layer_5" xmlns="http://www.w3.org/2000/svg" xmlns:xlink="http://www.w3.org/1999/xlink" x="0px" y="0px"
	 viewBox="0 0 100 100" style="enable-background:new 0 0 100 100;" xml:space="preserve">
<style type="text/css">
	.st0{fill:#579A83;}
	.st1{fill:#CE6899;}
	.st2{fill:#FFFFFF;}
</style>
<path class="st0" d="M14.5,4.9c0.4,0,0.6,0.2,0.6,0.6v19.7c0,0.7-0.1,1.4-0.4,2.1c-0.3,0.6-0.7,1.2-1.1,1.7c-0.5,0.5-1,0.9-1.7,1.1
	c-0.6,0.3-1.3,0.4-2.1,0.4H8.1c-0.7,0-1.4-0.1-2.1-0.4c-0.6-0.3-1.2-0.7-1.7-1.1c-0.5-0.5-0.9-1-1.1-1.7c-0.3-0.6-0.4-1.3-0.4-2.1
	v-4.5c0-0.4,0.2-0.6,0.6-0.8l3.8-1c0.4-0.1,0.6,0,0.6,0.4V25c0,0.3,0.1,0.5,0.3,0.7C8.3,25.9,8.5,26,8.8,26h0.3
	c0.3,0,0.5-0.1,0.7-0.3c0.2-0.2,0.3-0.4,0.3-0.7V5.5c0-0.4,0.2-0.6,0.6-0.6C10.7,4.9,14.5,4.9,14.5,4.9L14.5,4.9L14.5,4.9z
	 M30.9,29.6c0.1,0.4-0.1,0.6-0.5,0.6h-3.8c-0.4,0-0.6-0.2-0.6-0.6l-0.3-4.1H23l-0.3,4.1c-0.1,0.4-0.3,0.6-0.6,0.6h-3.8
	c-0.4,0-0.6-0.2-0.5-0.6l3.2-24.1c0.1-0.4,0.3-0.6,0.7-0.6h5.6c0.4,0,0.6,0.2,0.7,0.6L30.9,29.6L30.9,29.6z M25.2,20.8l-0.8-9.3
	h-0.3l-0.8,9.3H25.2L25.2,20.8z M40.6,4.9c0.7,0,1.4,0.1,2.1,0.4c0.6,0.3,1.2,0.7,1.7,1.1c0.5,0.5,0.9,1,1.1,1.7
	c0.3,0.6,0.4,1.3,0.4,2.1v14.7c0,0.7-0.1,1.4-0.4,2.1c-0.3,0.6-0.7,1.2-1.1,1.7c-0.5,0.5-1,0.9-1.7,1.1c-0.6,0.3-1.3,0.4-2.1,0.4
	h-6.3c-0.4,0-0.6-0.2-0.6-0.6V5.5c0-0.4,0.2-0.6,0.6-0.6L40.6,4.9L40.6,4.9z M41,10.4c0-0.3-0.1-0.5-0.3-0.7
	c-0.2-0.2-0.4-0.3-0.7-0.3h-1.3v16.3H40c0.3,0,0.5-0.1,0.7-0.3c0.2-0.2,0.3-0.4,0.3-0.7V10.4L41,10.4z M59.6,25.9v3.8
	c0,0.4-0.2,0.6-0.6,0.6h-9.2c-0.4,0-0.6-0.2-0.6-0.6V5.5c0-0.4,0.2-0.6,0.6-0.6H59c0.4,0,0.6,0.2,0.6,0.6v3.7c0,0.4-0.2,0.6-0.6,0.6
	h-4.8v4.8h4.2c0.4,0,0.6,0.2,0.6,0.6V19c0,0.4-0.2,0.6-0.6,0.6h-4.2v5.7H59C59.4,25.3,59.6,25.5,59.6,25.9L59.6,25.9L59.6,25.9z"/>
<g>
	<path class="st1" d="M86.9,77.2c-2.3,0-4.3,0.6-5.9,1.4c-0.6-1.2-1.2-2.3-1.3-3.1c-0.1-0.9-0.3-1.5-0.1-2.6
		c0.1-1.1,0.8-2.7,0.8-2.8c0-0.1-0.1-0.7-1.5-0.7c-1.3,0-2.4,0.3-2.6,0.6c-0.1,0.3-0.4,1.1-0.5,1.9c-0.2,1.2-2.6,5.5-4,7.7
		c-0.4-0.9-0.8-1.6-0.9-2.2c-0.1-0.9-0.3-1.5-0.1-2.6c0.1-1.1,0.8-2.7,0.8-2.8c0-0.1-0.1-0.7-1.5-0.7c-1.3,0-2.4,0.3-2.6,0.6
		c-0.1,0.3-0.3,1.2-0.5,1.9c-0.3,0.8-3.5,7.9-4.3,9.7c-0.4,0.9-0.8,1.7-1.1,2.2l0,0c0,0,0,0,0,0.1c-0.2,0.4-0.4,0.7-0.4,0.7s0,0,0,0
		c-0.2,0.3-0.4,0.6-0.5,0.6c-0.1,0-0.2-0.9,0-2c0.5-2.5,1.6-6.3,1.6-6.4c0-0.1,0.2-0.7-0.7-1.1c-0.9-0.3-1.3,0.2-1.3,0.2
		s-0.1,0.2-0.1,0.2s1-4.3-2-4.3c-1.9,0-4.5,2.1-5.8,3.9c-0.8,0.4-2.5,1.4-4.4,2.4c-0.7,0.4-1.4,0.8-2.1,1.2c0,0-0.1-0.1-0.1-0.2
		c-3.7-3.9-10.4-6.7-10.1-11.9c0.1-1.9,0.8-6.9,13-13c10.1-5,18.1-3.6,19.4-0.5c2,4.3-4.3,12.4-14.7,13.6c-4,0.4-6-1.1-6.6-1.7
		c-0.5-0.6-0.6-0.6-0.8-0.5c-0.3,0.2-0.1,0.7,0,1c0.3,0.8,1.6,2.2,3.7,2.9c1.9,0.6,6.6,1,12.2-1.2c6.3-2.4,11.2-9.2,9.8-14.9
		c-1.4-5.8-11-7.7-20-4.4c-5.4,1.9-11.2,4.9-15.4,8.8c-5,4.7-5.8,8.7-5.4,10.4c1.2,6,9.5,9.9,12.8,12.8c-0.2,0.1-0.3,0.2-0.5,0.3
		c-1.7,0.8-8,4.1-9.6,7.6c-1.8,4,0.3,6.8,1.7,7.2c4.3,1.2,8.6-0.9,11-4.5c2.4-3.5,2.1-8.1,1-10.2c0,0,0,0,0-0.1
		c0.4-0.3,0.9-0.5,1.3-0.8c0.8-0.5,1.7-1,2.4-1.3c-0.4,1.1-0.7,2.4-0.8,4.3c-0.2,2.2,0.7,5.2,1.9,6.3C52.4,92,53,92,53.4,92
		c1.4,0,2-1.2,2.7-2.6c0.9-1.7,1.6-3.7,1.6-3.7s-1,5.3,1.7,5.3c1,0,1.9-1.2,2.4-1.9v0c0,0,0,0,0.1-0.1C62,89,62,88.9,62,88.9v0
		c0.4-0.7,1.2-2.2,2.5-4.7c1.6-3.2,3.2-7.3,3.2-7.3s0.1,1,0.6,2.6c0.3,1,0.9,2,1.4,3.1c-0.4,0.5-0.6,0.8-0.6,0.8s0,0,0,0
		c-0.3,0.4-0.6,0.8-1,1.3c-1.3,1.6-2.9,3.3-3.1,3.8c-0.3,0.6-0.2,1.1,0.3,1.4c0.3,0.3,1,0.3,1.6,0.3c1.2-0.1,2-0.4,2.4-0.5
		c0.6-0.2,1.4-0.6,2.1-1.1c1.3-0.9,2.1-2.3,2-4.1c0-1-0.4-2-0.8-2.9c0.1-0.2,0.2-0.3,0.3-0.5c2-2.9,3.6-6.2,3.6-6.2s0.1,1,0.6,2.6
		c0.2,0.8,0.7,1.7,1.2,2.6c-1.9,1.5-3.1,3.3-3.5,4.5c-0.8,2.2-0.2,3.2,0.9,3.4c0.5,0.1,1.2-0.1,1.7-0.4c0.7-0.2,1.5-0.6,2.2-1.1
		c1.3-0.9,2.5-2.3,2.4-4c0-0.8-0.3-1.6-0.5-2.4c1.6-0.7,3.7-1,6.3-0.7c5.7,0.7,6.8,4.2,6.6,5.7c-0.2,1.5-1.4,2.3-1.8,2.6
		c-0.4,0.3-0.5,0.3-0.5,0.5c0,0.3,0.2,0.3,0.6,0.2c0.5-0.1,3-1.2,3.1-4C96.2,81,92.8,77.1,86.9,77.2L86.9,77.2z M43.1,91.9
		c-1.9,2.1-4.5,2.8-5.6,2.2c-1.2-0.7-0.7-3.7,1.6-5.9c1.4-1.3,3.2-2.6,4.4-3.3c0.3-0.2,0.7-0.4,1.2-0.7c0.1,0,0.1-0.1,0.1-0.1l0,0
		c0.1-0.1,0.2-0.1,0.3-0.2C45.9,87,45,89.8,43.1,91.9L43.1,91.9z M56.8,82.6c-0.7,1.6-2,5.7-2.9,5.5c-0.7-0.2-1.2-3.3-0.1-6.4
		c0.5-1.5,1.6-3.4,2.2-4.1c1-1.1,2.2-1.5,2.4-1.1C58.8,77.2,57.2,81.6,56.8,82.6L56.8,82.6z M68.1,88c-0.3,0.1-0.5,0.2-0.7,0.2
		c-0.1,0,0.1-0.2,0.1-0.2s1.4-1.5,2-2.2c0.3-0.4,0.7-0.9,1.1-1.4v0.2C70.7,86.3,68.9,87.5,68.1,88L68.1,88z M76.9,86
		c-0.2-0.1-0.2-0.6,0.5-2.1c0.3-0.6,0.9-1.6,1.9-2.5c0.1,0.4,0.2,0.8,0.2,1.1C79.5,84.8,77.9,85.7,76.9,86L76.9,86z"/>
</g>
<g>
	<path class="st2" d="M29.3,55.7l-2-2.1c-0.7,0.7-1.5,1.3-2.4,1.7S23,56,21.9,56c-0.8,0-1.5-0.1-2.2-0.3c-0.7-0.2-1.3-0.6-1.8-1
		c-0.5-0.4-0.9-0.9-1.2-1.5c-0.3-0.6-0.4-1.2-0.4-1.9c0-0.6,0.1-1.1,0.3-1.6c0.2-0.5,0.5-0.9,0.8-1.4c0.3-0.4,0.7-0.8,1.2-1.2
		c0.4-0.4,0.9-0.7,1.4-1.1c-0.4-0.5-0.8-0.9-1.1-1.3c-0.3-0.4-0.6-0.7-0.7-1c-0.2-0.3-0.3-0.6-0.4-0.9c-0.1-0.3-0.1-0.6-0.1-0.9
		c0-0.5,0.1-1,0.3-1.5c0.2-0.5,0.5-0.9,0.9-1.2c0.4-0.3,0.9-0.6,1.4-0.8c0.5-0.2,1.1-0.3,1.7-0.3c0.6,0,1.1,0.1,1.6,0.2
		c0.5,0.2,0.9,0.4,1.3,0.7c0.4,0.3,0.7,0.7,0.9,1.1c0.2,0.4,0.3,0.9,0.3,1.4c0,0.5-0.1,1-0.3,1.4c-0.2,0.4-0.5,0.8-0.8,1.2
		c-0.3,0.4-0.7,0.7-1.2,1.1c-0.5,0.3-1,0.7-1.5,1l4.9,5.1c0.3-0.6,0.6-1.3,0.8-2c0.2-0.7,0.3-1.5,0.3-2.3h1.4c0,1-0.2,2-0.4,2.9
		c-0.3,0.9-0.6,1.7-1.1,2.5l3.3,3.4H29.3z M22.1,54.6c0.8,0,1.6-0.2,2.3-0.5c0.7-0.4,1.3-0.8,1.9-1.5L21,47
		c-0.9,0.6-1.6,1.2-2.2,1.9c-0.6,0.7-0.9,1.4-0.9,2.3c0,0.5,0.1,1,0.4,1.4c0.2,0.4,0.6,0.8,0.9,1.1c0.4,0.3,0.8,0.5,1.3,0.6
		C21.1,54.5,21.6,54.6,22.1,54.6z M19.2,41.8c0,0.2,0,0.4,0.1,0.6s0.2,0.4,0.3,0.7s0.4,0.6,0.6,0.9s0.6,0.7,1.1,1.2
		c0.5-0.3,0.9-0.6,1.3-0.9c0.4-0.3,0.7-0.6,1-0.9s0.5-0.6,0.7-0.9c0.2-0.3,0.2-0.6,0.2-1c0-0.6-0.2-1.2-0.7-1.6
		c-0.5-0.4-1.1-0.6-1.8-0.6c-0.4,0-0.8,0.1-1.1,0.2c-0.3,0.1-0.6,0.3-0.9,0.5c-0.3,0.2-0.5,0.5-0.6,0.8S19.2,41.4,19.2,41.8z"/>
</g>
</svg>
