<?xml version="1.0" encoding="utf-8"?>
<!-- Generator: Adobe Illustrator 19.2.1, SVG Export Plug-In . SVG Version: 6.00 Build 0)  -->
<!DOCTYPE svg PUBLIC "-//W3C//DTD SVG 1.1//EN" "http://www.w3.org/Graphics/SVG/1.1/DTD/svg11.dtd">
<svg version="1.1" xmlns="http://www.w3.org/2000/svg" xmlns:xlink="http://www.w3.org/1999/xlink" x="0px" y="0px"
	 viewBox="0 0 100 100" style="enable-background:new 0 0 100 100;" xml:space="preserve">
<g id="Twitter">
	<g>
		<path d="M97,20.7c-3.5,1.5-7.2,2.6-11.1,3c4-2.4,7-6.2,8.5-10.7c-3.7,2.2-7.9,3.8-12.2,4.7c-3.5-3.7-8.5-6.1-14.1-6.1
			c-10.7,0-19.3,8.6-19.3,19.3c0,1.5,0.2,3,0.5,4.4c-16-0.8-30.2-8.5-39.7-20.1c-1.7,2.8-2.6,6.2-2.6,9.7c0,6.7,3.4,12.6,8.6,16.1
			c-3.2-0.1-6.1-1-8.7-2.4c0,0.1,0,0.2,0,0.2c0,9.3,6.6,17.1,15.5,18.9c-1.6,0.4-3.3,0.7-5.1,0.7c-1.2,0-2.5-0.1-3.6-0.3
			c2.5,7.7,9.6,13.2,18,13.4c-6.6,5.2-14.9,8.3-24,8.3c-1.6,0-3.1-0.1-4.6-0.3c8.5,5.5,18.7,8.7,29.6,8.7C68,88,87.4,58.7,87.4,33.2
			c0-0.8,0-1.7-0.1-2.5C91.1,28,94.4,24.6,97,20.7"/>
	</g>
</g>
<g id="CodePen">
	<g>
		<path d="M95.4,35.6c0-0.1,0-0.2-0.1-0.3c0-0.1,0-0.1-0.1-0.2c0-0.1-0.1-0.2-0.1-0.3c0-0.1-0.1-0.1-0.1-0.2c0-0.1-0.1-0.2-0.1-0.3
			c0-0.1-0.1-0.1-0.1-0.2c-0.1-0.1-0.1-0.2-0.2-0.2c0-0.1-0.1-0.1-0.1-0.2c-0.1-0.1-0.1-0.1-0.2-0.2c-0.1-0.1-0.1-0.1-0.2-0.2
			c-0.1-0.1-0.1-0.1-0.2-0.2c-0.1,0-0.1-0.1-0.2-0.1c0,0,0,0-0.1,0L51.9,5.2c-1.3-0.9-3-0.9-4.4,0L5.8,33c0,0,0,0-0.1,0
			c-0.1,0-0.1,0.1-0.2,0.1c-0.1,0.1-0.2,0.1-0.2,0.2c-0.1,0-0.1,0.1-0.2,0.2c-0.1,0.1-0.1,0.1-0.2,0.2c0,0.1-0.1,0.1-0.1,0.2
			c-0.1,0.1-0.1,0.2-0.2,0.2c0,0.1-0.1,0.1-0.1,0.2c0,0.1-0.1,0.2-0.1,0.3c0,0.1-0.1,0.1-0.1,0.2c0,0.1-0.1,0.2-0.1,0.3
			c0,0.1,0,0.1-0.1,0.2c0,0.1,0,0.2-0.1,0.3c0,0.1,0,0.1,0,0.2c0,0.2,0,0.3,0,0.5v27.9c0,0.2,0,0.3,0,0.5c0,0.1,0,0.1,0,0.2
			c0,0.1,0,0.2,0.1,0.3c0,0.1,0,0.1,0.1,0.2c0,0.1,0.1,0.2,0.1,0.3c0,0.1,0.1,0.1,0.1,0.2c0,0.1,0.1,0.2,0.1,0.3
			c0,0.1,0.1,0.1,0.1,0.2c0.1,0.1,0.1,0.2,0.2,0.2c0,0.1,0.1,0.1,0.1,0.2c0.1,0.1,0.1,0.1,0.2,0.2c0.1,0,0.1,0.1,0.2,0.1
			c0.1,0.1,0.1,0.1,0.2,0.2c0.1,0,0.1,0.1,0.2,0.1c0,0,0,0,0.1,0l41.8,27.9c0.7,0.4,1.4,0.7,2.2,0.7c0.8,0,1.5-0.2,2.2-0.7
			l41.8-27.9c0,0,0,0,0.1,0c0.1,0,0.1-0.1,0.2-0.1c0.1-0.1,0.2-0.1,0.2-0.2c0.1,0,0.1-0.1,0.2-0.2c0.1-0.1,0.1-0.1,0.2-0.2
			c0-0.1,0.1-0.1,0.1-0.2c0.1-0.1,0.1-0.2,0.2-0.2c0-0.1,0.1-0.1,0.1-0.2c0-0.1,0.1-0.2,0.1-0.3c0-0.1,0.1-0.1,0.1-0.2
			c0-0.1,0.1-0.2,0.1-0.3c0-0.1,0-0.1,0.1-0.2c0-0.1,0-0.2,0.1-0.3c0-0.1,0-0.1,0-0.2c0-0.2,0-0.3,0-0.5V36.3c0-0.2,0-0.3,0-0.5
			C95.5,35.7,95.4,35.7,95.4,35.6L95.4,35.6z M49.7,59.6l-13.9-9.3L49.7,41l13.9,9.3L49.7,59.6L49.7,59.6z M45.8,34.1l-17,11.4
			L15,36.3l30.8-20.5V34.1L45.8,34.1z M21.7,50.3l-9.8,6.6V43.7L21.7,50.3L21.7,50.3z M28.8,55l17,11.4v18.3L15,64.2L28.8,55
			L28.8,55z M53.7,66.4l17-11.4l13.8,9.2L53.7,84.7V66.4L53.7,66.4z M77.8,50.3l9.8-6.6v13.2L77.8,50.3L77.8,50.3z M70.7,45.5
			l-17-11.4V15.8l30.8,20.5L70.7,45.5L70.7,45.5z"/>
	</g>
</g>
<g id="GitHub">
	<g>
		<path d="M50.5,3.8C25,3.8,4.3,24.5,4.3,50.1c0,20.4,13.3,37.8,31.6,43.9c2.3,0.4,3.2-1,3.2-2.2c0-1.1,0-4.7-0.1-8.6
			c-12.9,2.8-15.6-5.5-15.6-5.5c-2.1-5.3-5.1-6.8-5.1-6.8c-4.2-2.9,0.3-2.8,0.3-2.8c4.6,0.3,7.1,4.8,7.1,4.8
			c4.1,7.1,10.8,5,13.5,3.8c0.4-3,1.6-5,2.9-6.2C31.8,69.3,21,65.4,21,47.6c0-5,1.8-9.2,4.8-12.4c-0.5-1.2-2.1-5.9,0.4-12.2
			c0,0,3.9-1.2,12.7,4.7c3.7-1,7.6-1.5,11.6-1.6c3.9,0,7.9,0.5,11.6,1.6c8.8-6,12.7-4.7,12.7-4.7c2.5,6.4,0.9,11.1,0.5,12.2
			c3,3.2,4.8,7.4,4.8,12.4c0,17.8-10.8,21.7-21.1,22.8c1.7,1.4,3.1,4.3,3.1,8.6c0,6.2-0.1,11.2-0.1,12.7c0,1.2,0.8,2.7,3.2,2.2
			c18.4-6.1,31.6-23.5,31.6-43.9C96.8,24.5,76.1,3.8,50.5,3.8z M21.6,69.7c-0.1,0.2-0.5,0.3-0.8,0.1c-0.3-0.2-0.5-0.5-0.4-0.7
			c0.1-0.2,0.5-0.3,0.8-0.1C21.5,69.1,21.7,69.5,21.6,69.7z M23.9,71.7c-0.2,0.2-0.7,0.1-0.9-0.2c-0.3-0.3-0.4-0.8-0.1-1
			c0.2-0.2,0.6-0.1,0.9,0.2C24,71.1,24.1,71.5,23.9,71.7z M25.4,74.3c-0.3,0.2-0.7,0-1-0.4c-0.3-0.4-0.3-0.9,0-1.1
			c0.3-0.2,0.7,0,1,0.4C25.7,73.6,25.7,74.1,25.4,74.3z M28.1,77.3c-0.3,0.3-0.8,0.2-1.2-0.2c-0.4-0.4-0.5-0.9-0.3-1.2
			c0.3-0.3,0.8-0.2,1.2,0.2C28.2,76.5,28.3,77.1,28.1,77.3z M31.5,78.3c-0.1,0.4-0.6,0.5-1.2,0.4c-0.5-0.2-0.9-0.6-0.8-0.9
			c0.1-0.4,0.6-0.5,1.2-0.4C31.2,77.6,31.6,78,31.5,78.3z M35.4,78.8c0,0.4-0.4,0.7-1,0.7c-0.6,0-1-0.3-1-0.7c0-0.4,0.4-0.7,1-0.7
			C34.9,78.1,35.4,78.4,35.4,78.8z M39.2,78.6c0.1,0.4-0.3,0.8-0.9,0.9c-0.5,0.1-1-0.1-1.1-0.5c-0.1-0.4,0.3-0.8,0.9-0.9
			C38.6,78,39.1,78.3,39.2,78.6z"/>
	</g>
</g>
</svg>
