<?xml version="1.0" encoding="utf-8"?>
<!-- Generator: Adobe Illustrator 19.2.1, SVG Export Plug-In . SVG Version: 6.00 Build 0)  -->
<!DOCTYPE svg PUBLIC "-//W3C//DTD SVG 1.1//EN" "http://www.w3.org/Graphics/SVG/1.1/DTD/svg11.dtd">
<svg version="1.1" id="Layer_1" xmlns="http://www.w3.org/2000/svg" xmlns:xlink="http://www.w3.org/1999/xlink" x="0px" y="0px"
	 viewBox="0 0 100 100" style="enable-background:new 0 0 100 100;" xml:space="preserve">
<style type="text/css">
	.st0{fill:#F19024;}
</style>
<g>
	<polygon class="st0" points="17.3,23.8 15.6,11.5 13.4,23.8 1.2,25.7 13.5,27.6 15.4,39.8 17.3,27.6 29.5,25.9 	"/>
	<polygon class="st0" points="91.4,84.1 90.4,77 89.2,84.1 82.1,85.3 89.2,86.4 90.3,93.4 91.4,86.4 98.5,85.4 	"/>
</g>
<path class="st0" d="M56.3,15.3c-8.2,0-15.8,2.7-21.9,7.3c-0.8,1.4-1.6,3.1-2.3,5.1c-1.9,0.7-3.6,1.5-4.9,2.2
	c-2.7,3.6-4.7,7.7-5.9,12.1c1.8-0.4,4.3-0.8,7.5-1.3c-0.4,2.8-0.7,5.9-0.7,9.3h-8c0,0.5,0,1,0,1.5c0,3.8,0.6,7.5,1.7,10.9
	c1.8,0.4,4.3,0.8,7.3,1.2c0.5,3.5,1.3,6.5,2.1,9.2c-2.9-1.3-5-2.5-6.4-3.4c3.2,5.7,7.9,10.4,13.6,13.7c-0.9-1.3-2.2-3.5-3.5-6.6
	c2.6,0.8,5.5,1.6,8.8,2.1c0.4,3,0.8,5.5,1.2,7.4c3.6,1.2,7.5,1.9,11.6,1.9c20,0,36.3-16.3,36.3-36.3C92.6,31.5,76.4,15.3,56.3,15.3z
	 M30.9,61.8c-0.4-2.9-0.6-6.1-0.6-9.5h11.9c0,3.8,0.1,7.3,0.2,10.5C37.9,62.5,34.1,62.1,30.9,61.8z M42.5,37.5
	c-4.3,0.2-7.9,0.6-11.1,0.9c0.6-3.4,1.5-6.4,2.4-8.9c2.7-1,5.8-1.8,9.5-2.5C43,30,42.7,33.5,42.5,37.5z M55.3,63.1
	c-3.9,0-7.5-0.1-10.8-0.3c-0.1-3.2-0.2-6.8-0.2-10.6h11.1V63.1z M66.8,76.7c-2.8,0.4-6,0.7-9.4,0.7V65.2c3.8,0,7.2-0.1,10.4-0.2
	C67.5,69.5,67.2,73.4,66.8,76.7z M76.4,45.8l-1.8,12.2l-2-12.2l-12.3-1.8l12.2-2l2.2-12.2l1.7,12.2l12.2,2.2L76.4,45.8z"/>
</svg>
