<svg xmlns="http://www.w3.org/2000/svg" xmlns:xlink="http://www.w3.org/1999/xlink" id="Layer_1" x="0" y="0" version="1.1" viewBox="0 0 100 100" xml:space="preserve" style="enable-background:new 0 0 100 100"><style type="text/css">.st0{fill:#fff}</style><g><path d="M49.4,7.1c2.3,1.2,6.6,2.7,13.7,2.7c0.3,0,0.9,0.1,1.8,0.1c2.5,0,6.6-0.4,10.2-2.4l9.8,9.2 C82.6,20.4,79,27.5,79,34.1c0,0.5,0.1,11.3,6.4,18.8c0.8,0.9,1.3,2,1.6,3l0.1,0.2c2.2,9.5-3.4,19.2-13.3,23.1 c-14.1,5.5-21,9.5-24.3,12.4c-3.4-2.9-10.3-6.9-24.2-12.4c-9.9-3.9-15.5-13.6-13.3-23.1l0.1-0.2c0.3-1.1,0.8-2.2,1.6-3.1 c6.4-7.5,6.4-18.3,6.4-18.8c0-6.5-3.7-13.6-5.9-17.3l9.8-9.2c3.5,2,7.7,2.4,10.2,2.4c0.8,0,1.4,0,1.8-0.1 C42.9,9.8,47.1,8.3,49.4,7.1 M23.6,1.6c-0.4,0-0.9,0.2-1.2,0.5L8.6,15c-0.6,0.5-0.7,1.4-0.2,2c0.1,0.1,6.6,9.4,6.6,17 c0,0.1-0.1,9.5-5.2,15.5c-1.3,1.5-2.2,3.3-2.6,5.1l-0.1,0.2C4.3,66.9,11.1,79,23.4,83.8c19.2,7.5,24.3,12.1,24.3,13.6 c0,0.9,0.8,1.6,1.7,1.6s1.7-0.7,1.7-1.6c0-1.5,5.1-6.1,24.4-13.6C87.8,79,94.7,66.9,91.9,54.9l-0.1-0.2c-0.5-1.9-1.4-3.6-2.6-5.1 C84,43.5,84,34.2,84,34.1c0-7.5,6.5-16.9,6.6-17c0.5-0.6,0.4-1.5-0.2-2L76.6,2c-0.3-0.3-0.8-0.5-1.2-0.5c-0.4,0-0.9,0.2-1.2,0.5 c-2.6,2.5-7,2.8-9.2,2.8c-0.9,0-1.4-0.1-1.4-0.1c-0.1,0-0.1,0-0.2,0C54,4.8,50.7,2,50.6,2c-0.3-0.3-0.8-0.5-1.2-0.5 S48.6,1.7,48.2,2c0,0-3.3,2.8-12.6,2.8c-0.1,0-0.1,0-0.2,0c0,0-0.6,0.1-1.4,0.1c-2.2,0-6.6-0.4-9.2-2.8C24.5,1.7,24,1.6,23.6,1.6 L23.6,1.6z" class="st0"/></g><g><path d="M275.4,285l-3.7,6.3c-0.4,0.6-1.1,0.9-1.8,0.6l-3.1-1.2l1.7,10.4c0.1,0.6-0.6,0.9-1.1,0.5l-4.8-4.4l-0.7,2 c-0.3,0.8-1.1,1.2-1.9,1l-4.8-1.1l1.4,6.3c0.2,0.7-0.3,1.5-1,1.7l-1.3,0.5l9.5,7.9c0.7,0.6,1,1.4,0.8,2.3l-0.6,2.4l9-1.1 c0.9-0.1,1.7,0.6,1.7,1.4l-0.2,9.8h1h1l-0.2-9.8c0-0.8,0.8-1.5,1.7-1.4l9,1.1l-0.6-2.4c-0.2-0.8,0.1-1.7,0.8-2.3l9.5-7.9l-2.5-1 l1.7-7.6l-6.3,1.5l-1.2-3.4l-4.8,4.4c-0.4,0.4-1.2,0.1-1.1-0.5l1.7-10.4l-3.1,1.2c-0.7,0.3-1.5,0-1.8-0.6L275.4,285L275.4,285z" class="st0" transform="translate(-225.97627,-261.21204)"/></g></svg>