<?xml version="1.0" encoding="UTF-8" standalone="no"?>
<!DOCTYPE svg PUBLIC "-//W3C//DTD SVG 1.1//EN" "http://www.w3.org/Graphics/SVG/1.1/DTD/svg11.dtd">
<svg width="100%" height="100%" viewBox="0 0 500 500" version="1.1" xmlns="http://www.w3.org/2000/svg" xmlns:xlink="http://www.w3.org/1999/xlink" xml:space="preserve" xmlns:serif="http://www.serif.com/" style="fill-rule:evenodd;clip-rule:evenodd;stroke-linejoin:round;stroke-miterlimit:2;">
    <g transform="matrix(0.812445,0,0,0.812445,23.7562,-5.71645)">
        <g transform="matrix(-1.35163,0.734843,0.734843,1.35163,554.089,329.819)">
            <path d="M236.432,-259.56C236.432,-259.56 89.775,-280.967 -60.518,-172.588C41.994,-6.745 234.275,68.023 236.432,68.582C236.446,68.586 236.45,68.585 236.457,68.571C237.432,66.883 308.606,-83.506 236.432,-259.56" style="fill:rgb(185,98,255);fill-rule:nonzero;"/>
        </g>
        <g transform="matrix(1.53847,0,0,1.53847,284.892,69.3844)">
            <path d="M0,342.473C0.035,342.552 -16.757,299.59 -28.945,237.238C-40.2,179.656 -50.044,95.922 -37.264,0.79L-33.471,-0.079C-46.104,94.408 -36.569,179.252 -25.391,236.469C-13.265,298.536 2.007,339.569 2.173,340.006C2.173,340.006 0.095,342.44 0,342.473" style="fill-rule:nonzero;"/>
        </g>
        <g transform="matrix(1.53847,0,0,1.53847,175.522,255.324)">
            <path d="M0,-22.237C-2.121,-24.272 -4.63,-25.928 -7.223,-27.339C-23.479,-36.176 -44.033,-34.159 -56.158,-19.324C-60.418,-14.113 -62.958,-7.341 -62.37,-0.636C-62.144,1.955 -61.319,4.717 -59.197,6.222C-57.377,7.514 -54.95,7.615 -52.757,7.199C-49.081,6.501 -45.787,4.535 -42.268,3.266C-38.748,1.997 -34.563,1.512 -31.469,3.614C-30.26,4.435 -29.321,5.586 -28.282,6.614C-22.709,12.13 -13.778,13.939 -6.498,11.025C0.782,8.112 6,0.642 6.229,-7.196C6.354,-11.47 5.077,-15.784 2.592,-19.262C1.823,-20.338 0.95,-21.325 0,-22.237" style="fill:rgb(13,16,33);fill-rule:nonzero;"/>
        </g>
        <g transform="matrix(1.53847,0,0,1.53847,269.165,194.021)">
            <path d="M0,-4.669C1.839,-7.742 4.264,-10.543 6.873,-13.104C23.231,-29.155 48.361,-34.821 67.783,-23.031C74.605,-18.889 79.908,-12.356 81.469,-4.694C82.071,-1.733 82.022,1.646 80.006,4.132C78.276,6.265 75.423,7.31 72.674,7.691C68.066,8.33 63.485,7.417 58.871,7.363C54.257,7.309 49.116,8.379 46.144,11.9C44.982,13.276 44.253,14.913 43.364,16.452C38.594,24.713 28.58,30.152 18.938,29.721C9.297,29.289 0.573,23.011 -2.341,14.406C-3.929,9.714 -3.864,4.44 -2.08,-0.374C-1.528,-1.862 -0.822,-3.293 0,-4.669" style="fill:rgb(13,16,33);fill-rule:nonzero;"/>
        </g>
        <g transform="matrix(1.53847,0,0,1.53847,158.805,411.548)">
            <path d="M0,-17.775C0,-17.775 65.253,-25.524 142.197,-66.453C130.078,2.02 61.181,48.678 61.181,48.678C61.181,48.678 11.312,25.854 0,-17.775" style="fill:rgb(13,16,33);fill-rule:nonzero;"/>
        </g>
    </g>
</svg>
