<svg xmlns="http://www.w3.org/2000/svg" xmlns:xlink="http://www.w3.org/1999/xlink" x="0" y="0" enable-background="new 0 0 512 512" version="1.1" viewBox="0 0 512 512" xml:space="preserve"><style type="text/css">.st0{fill:#4e1412}.st1{fill:#e6e1c5}</style><g id="Layer_2"><g><path d="M326.9,359.2c15.3-1.8,30.9-2.1,46.8-1c2.9-22.2,4.2-43.9,3.9-64.9c-76.7-1.6-139,19.4-183.3,41.9 c8.8,19,19.4,38.4,32.4,58.2C258,374.7,291.8,363.2,326.9,359.2z" class="st0"/><path d="M488.9,184.7c-9.6-31.1-25-59-44.8-82.8c-21.9,23.4-45.9,43.6-71.8,60.4c6.2,15.4,11.4,31.4,15.3,47.9 L488.9,184.7z" class="st0"/><path d="M348.7,158c-5.2-11.5-11-22.7-17.6-33.4c-5.4-8.9-11.1-17.1-16.8-24.7c-50.7,31.8-101.5,40.2-141,40.2 c-2.2,0-4.4,0-6.6-0.1c-2.6-0.1-5.1-0.2-7.6-0.3c-1,11.1-1.5,22.9-1.5,35.3c0.1,10.1,0.6,21,1.6,32.4c2.5,0,5-0.1,7.5-0.1 C234.6,205.6,295.4,189.1,348.7,158z" class="st0"/><path d="M317.7,280.2c19.5-2.5,39.3-3.5,59.2-3.1c-0.9-15.8-2.7-31.1-5.5-46.1l-197.8,49.9c3.8,12.8,8.5,26,14.1,39.5 C229.1,299.5,272.8,285.9,317.7,280.2z" class="st0"/><path d="M355,172.9c-16.3,9.3-33.3,17.4-50.9,24.2c-42.5,16.3-88.8,25.2-137.6,26.4c-1.8,0-3.6,0.1-5.4,0.1 c1.8,13.3,4.5,27.2,8.2,41.7l198.7-50.1C364.6,200.6,360.3,186.5,355,172.9z" class="st0"/><path d="M171.4,329.1c-0.3-0.6-0.5-1.2-0.8-1.9c-5.7-13.8-10.6-27.8-14.8-41.8L23.7,318.7c9.1,34.1,25,64.5,46,90.3 C75.8,401.9,110.8,363,171.4,329.1z" class="st0"/><path d="M492.6,312.2c-33.4-10.2-65.1-15.7-94.7-17.9c0.3,21.4-1.1,43.4-4.1,66c23.2,3.3,46.8,9.6,70.7,18.9l1.4,0.5 c12.4-20.9,21.6-43.6,27.3-67.4L492.6,312.2z" class="st0"/><path d="M142.7,223.4C75.9,221.6,28,206.3,21.1,204c-7,31.7-7.8,65.3-1.1,99l131.6-33.2 C147.7,254.4,144.7,239,142.7,223.4z" class="st0"/><path d="M25.7,188.4C26.2,188.6,74,205,141,207.2c-1-11-1.5-21.9-1.5-33c0-12.6,0.5-24.6,1.5-35.9 c-46.9-5.2-78.6-19.7-80.1-20.4l-1.4-0.7c-15.1,21.6-26.7,45.6-34.2,71L25.7,188.4z" class="st0"/><path d="M320.9,76c14.7-10.8,28.6-23.4,41.9-37.8c-33.9-16.4-71.8-25-110.8-24C267.5,24.2,294.3,44,320.9,76z" class="st0"/><path d="M220.4,416.7c-37.3,25.7-58.6,54.6-62.5,60.2c40,18.1,85,25.5,130.8,19.5 C262.6,470.8,239.8,444.2,220.4,416.7z" class="st0"/><path d="M345.3,475c12.1-34.7,20.7-68.4,26-100.9c-47.9-3.2-93.3,7.8-135.6,32.7c18.8,26.7,41.8,53.8,69.9,80.9l5,4.8 c2-0.5,4.1-0.9,6.1-1.5c8.8-2.2,17.4-4.9,25.7-8L345.3,475z" class="st0"/><path d="M143.7,468.9c1-1.6,23.8-35.5,67.6-65.6c-12.8-19.4-23.9-39.2-33.3-59.4C116,379,81.5,420,81.1,420.4 l-0.7,0.9c18.2,19.5,39.5,35.8,62.8,48.3L143.7,468.9z" class="st0"/><path d="M391.4,376.2c-5,31-13.1,63-24,95.9c36.6-18.6,67-45.8,89.5-78.4C434.6,385.2,412.8,379.3,391.4,376.2z" class="st0"/><path d="M376.3,47.4c-14.8,16.3-30.1,29.9-45.5,41.2c5.7,7.6,11.3,15.8,16.7,24.6c6.8,11,12.9,22.4,18.3,34.1 c24-15.9,46.4-35,67-57.2l0.4-0.5c-16.4-17.3-35.2-32-55.7-43.7L376.3,47.4z" class="st0"/><path d="M397.3,278c32.7,2.3,65.8,8.5,99.1,18.5c5.2-31.1,4.5-63.7-3.3-96.2L391,226c2.2,11.3,3.9,22.8,5,34.6 C396.6,266.3,397,272.1,397.3,278z" class="st0"/><path d="M186,31.7c-0.2,0.5-17.8,36-25.2,91.9c2.3,0.1,4.5,0.2,6.8,0.2c50.2,1.1,95.8-11.2,136.6-36.5 c-36.9-43.7-74.1-62.9-74.6-63.2l-8.9-4.5l-4.2-2c-7.9,1.2-10.2,1.8-18.2,3.9c-2.8,0.7-5.6,1.5-8.4,2.3L186,31.7z" class="st0"/><path d="M142.7,122.2c5.6-43.7,17.1-75.5,23.2-90C127.2,47.9,94.4,73,69.3,104C76.4,106.9,104.3,117.9,142.7,122.2z" class="st0"/></g><path d="M41.4,147.3c0,0,143.9-107.8,366.9-79.4C395.2,304.1,233.5,495.2,231.6,497c0,0,0,0,0,0 C229.5,495.8,66.5,376.7,41.4,147.3z" class="st1"/><g><path d="M132.1,329.8c0,0,79.2-9.4,172.5-59.1c-14.7,83.1-98.3,139.7-98.3,139.7S145.8,382.7,132.1,329.8z" class="st0"/><path d="M231.5,497c0,0.1-20.3-52-35.1-127.7c-13.7-69.9-25.6-171.5-10.1-286.9l4.6-1.1 c-15.3,114.6-3.8,217.6,9.8,287c14.7,75.3,33.2,125.1,33.4,125.6C234.2,494.1,231.7,497,231.5,497z" class="st0"/><path d="M145.3,201.2c-2.6-2.5-5.6-4.5-8.8-6.2c-19.7-10.7-44.7-8.3-59.4,9.7c-5.2,6.3-8.3,14.5-7.5,22.7 c0.3,3.1,1.3,6.5,3.8,8.3c2.2,1.6,5.2,1.7,7.8,1.2c4.5-0.8,8.5-3.2,12.7-4.8c4.3-1.5,9.3-2.1,13.1,0.4c1.5,1,2.6,2.4,3.9,3.6 c6.8,6.7,17.6,8.9,26.4,5.4c8.8-3.5,15.2-12.6,15.4-22.1c0.2-5.2-1.4-10.4-4.4-14.6C147.5,203.5,146.4,202.3,145.3,201.2z" class="st0"/><path d="M219.1,174.2c2.2-3.7,5.2-7.1,8.3-10.2c19.8-19.5,50.3-26.3,73.9-12c8.3,5,14.7,13,16.6,22.2 c0.7,3.6,0.7,7.7-1.8,10.7c-2.1,2.6-5.6,3.9-8.9,4.3c-5.6,0.8-11.1-0.3-16.7-0.4s-11.8,1.2-15.4,5.5c-1.4,1.7-2.3,3.7-3.4,5.5 c-5.8,10-17.9,16.6-29.6,16.1s-22.3-8.1-25.8-18.6c-1.9-5.7-1.8-12.1,0.3-17.9C217.3,177.6,218.1,175.8,219.1,174.2z" class="st0"/></g></g></svg>