<svg xmlns="http://www.w3.org/2000/svg" id="a" viewBox="0 0 451.319 173.511"><path d="m62.05835,67.99182c-2.92007,4.85358.12889,7.10249-2.79403,10.49052.00195.78987-3.48875,2.82728-3.48703,3.61603-1.90673,4.28905-1.79281,4.85186-8.44047,6.33275-.67658.00224-3.49047,2.03853-4.16727,2.03966-1.91859-.6719-6.53546,1.59346-12.7431-1.32369-2.59315.0058-2.14299-.55854-2.15003-3.49054-.56576-1.01368,4.17031-.68504,6.42517-.68971,6.42584-.01515,11.03769-4.53706,13.28178-9.27646l-.03251-14.09323c-.00509-2.14213-1.70129-4.27989-5.65684-8.44316-2.93828-3.03601-7.78633-3.47611-8.46538-4.15156-.90181.00254-5.75157-.88778-6.31535-.66102-.11471-.90233-2.70251,1.35877-4.16806,1.36162-3.60435,1.24926-1.10246,10.82691-2.78924,12.74594.34304,1.80373,1.36237,3.7185,1.3666,5.63552-1.68397,3.27254-1.33951,5.9783-1.33749,6.99228.00168.67669,1.36016,2.81546,1.36184,3.49215.00172.78875.0113,4.96107.01298,5.63776.00172.78875.68335,2.81658.68425,3.49227.00337,1.35339.00733,3.15723.00849,3.60757.00337,1.35339-.64714,12.6288-.64407,14.09548.13341,8.90622-.4199,13.64248,2.17385,14.08714l4.96107-.0113s1.35451.67344,1.35619,1.35013c1.47094,2.36452-2.24977,2.14681-6.98506,2.15769-.78875.00172-2.81726.6829-3.606.68462-2.93286-.5566-19.27519,1.62316-18.26941-2.09971-.68331-2.70453,3.49013-2.0373,5.63227-2.04239,3.15326-1.47266,3.03089-5.8695,4.9396-9.25663.22351-.78905-.00314-1.35226-.79608-2.81699.22546-.3377-.56494-.90061.78164-3.49634.32976-3.72075-.80259-5.52264-.80771-7.77683-.00737-3.26928.20911-7.32884-.69802-9.13104-.13427-9.46985,1.43047-15.44845,1.41408-22.55166-.68246-2.47941-1.25506-6.87454-2.16076-8.45173,1.11851-3.72247-1.81551-5.06793-2.83203-5.6292-2.70674-.21973-6.31955-2.46598-7.10941-2.80255l-.00281-1.3535c1.46555-.00284,6.42662-.01414,7.77889-.01728-2.5954-1.0093,14.99347-.71118,21.87032-.72704.67681-.00112,6.9882-.80543,7.7775-.80726,4.50976.1027,8.00303-.92085,14.10296,4.25243.67602-.00213,2.82492,2.81161,3.50173,2.81048,1.46704.78478,3.6109,1.56844,3.49926,2.13278-.21423,4.73614,3.51643,9.23699,3.52769,14.08601Zm49.03675-.45262c-1.57861.00367-5.97822-1.11249-9.01195,3.29146l.79047.78703c2.932-.00703,6.77086,2.6905,7.44714,2.46303,1.01229-1.01723,1.60125,10.03053,1.61198,14.6532.01219,5.29824,1.26494,10.59506.81564,11.38451.00647,2.93211-2.80341,6.54578-1.55939,8.23391.00479,1.9169-2.69402,4.96634-2.46939,4.85411-5.9615,5.98948-8.2271,1.37149-13.8554,4.8792-.45158.00083-.22579.00041-3.26973.00804-3.15723.00733-6.43369-3.02991-8.12933-4.82927-.01077-4.73472-1.60214-10.3677-1.60831-13.07458-.00823-3.4944-.35838-8.79275.7647-10.59943-.00258-1.01386,1.09928-12.29122.75931-12.96679-.01074-4.62267-1.13998-5.52287-8.13779-9.00182-6.87741.01597-10.59876-.08721-9.01023,4.08021l.79129.90009c.90181-.00254,4.17659,2.35801,4.9659,2.35618,1.13123,1.4636,2.05256,10.25505,1.60323,10.59393-1.2398.22889-.77289,7.21709-.76526,10.59955.00621,2.48042.02095,9.01899.02095,9.01899.00846,3.49552,1.70773,7.09995,1.71225,8.90368.00172.78875,1.58598,3.26562,1.58598,3.26562,6.33454,9.11772,11.7396,6.17371,13.09415,7.29772,4.17176-.00946,7.21227-1.59459,11.38403-1.60405.78875-.00172,3.2618-3.27721,3.2618-3.27721.78875-.00172,3.26547-1.6986,4.05477-1.70043-.33773.00101,4.05702-.68533,4.06241,1.68203,1.6968,2.58821,2.37697,3.94048,4.0664,3.25941,1.57861-.00367,5.06815-2.49142,8.11153-2.49894,4.62027-1.13845,6.76181-1.25547,5.74245-3.2823-.22493.22553-2.37357-2.47504-4.06412-2.47077-2.14296-.44649-3.9471-.66775-4.96669-2.35718-.00621-2.48042-.01219-5.29824-.0153-6.53845-.00195-.78987.89328-4.06069.8913-4.96261-.00505-2.03008-1.58823-4.28071-.9173-6.42497-.01107-4.62143,1.67298-7.66986,1.66303-12.29152-.45353-1.12756-1.70518-5.85962-1.71595-10.59435-3.16344-3.15012-8.57553-3.13811-9.70455-4.03719Zm83.72084,31.14954s-.78171,3.27224-1.5693,4.06282c.00228.78863-2.47133,4.06424-2.46939,4.85411l.00767,3.15599c-4.70925,11.51052-20.15347,11.99707-33.90722,12.25525-.90204.00142-2.48432-1.57353-3.27306-1.57181-1.80444-.10797-3.72445-1.68191-5.64442-3.1438l-.78931.00183c-.78931.00183-4.0517,3.1671-4.84045,3.16882-.56375.0003-2.37185-1.68629-2.37525-3.15173-.00561-2.36848-.90746-2.47799-.91112-4.05661l.89418-3.385c.21558-4.05821-.91512-5.63399-.92051-8.00135-.00195-.78987.89249-4.06169.89054-4.85156.20963-6.76398-.92986-12.17255-.94112-17.02157-.00172-.78875.88562-7.21668.88281-8.23166-.01272-5.52459-.48693-15.55796.75257-16.01208.21984-2.36766-.79925-4.28131-.80464-6.64867-1.2474-3.38003,3.93861-3.27833-8.26159-13.62366l-.00367-1.57861c1.57719-.56718,6.52921-4.18594,9.79917-4.19286,6.4264-.01526,8.90656.20387,8.92122,6.51833.67714.33616-.88423,7.66814-.87402,12.06446.01444,6.31334.26338,16.23495-.74999,17.02594.23679,4.73543,2.15168,4.05518,3.27871,4.05234.78931-.00183,4.84468-1.59032,5.63398-1.59216,3.3819-.00752,8.7895-1.7112,12.17195-1.71883,3.04394-.34615,5.30108.77633,8.00894,1.67286,4.17094-.46104,5.75606,2.57946,9.03256,5.72876l.79275,1.57566c7.8967,1.78675,7.26235,20.16425,7.268,22.64478Zm-15.48298-16.19916c-.00172-.78875-3.16433-3.14877-3.16628-3.93864-2.37787-4.61616-8.12795-4.3778-9.71019-5.8407-2.02716.68208-10.48798-1.55371-13.74952,1.83668.11164-.22582-2.36138,2.8232-2.35633,4.85328.00539,2.36736-.87009,13.75625-.86444,16.23679l.00172.78875c.00172.78875.91109,3.94455.91307,4.84647.01556,6.65163-.30885,12.62768,3.19205,15.3251,3.27366,1.68375,10.60381,2.45581,11.39312,2.45398,9.46069-4.08081,18.58814-6.13041,18.55537-20.33682-.03-12.96496-2.61922-11.26737-4.20857-16.22489Zm83.58678-26.5743c.56038-1.6922.66947-3.15835.66581-4.73697-.00307-1.12816-4.85852-4.61107-6.77486-4.6064-4.06098-.77999-6.20255-.77502-7.33494-2.68897-.33852,0-.45046.0006-2.70565.00651-5.07324.01077-11.26958,2.05469-16.00599,1.38877-1.23752,1.35604-4.16671,2.03954-6.75986,2.04534-1.57611,1.13194-7.65655,4.30207-7.9945,4.64047-1.3489,1.35653-7.98608,8.02394-9.33577,9.37946-1.68401,3.16048-4.71778,7.45238-4.71153,10.04485.00168.67669-1.90927,3.38725-1.90759,4.06394-.22553.11359-.6587,7.89307-.65698,8.68182.00168.67669.68668,4.05791.68781,4.73472.00146.67557.00905,3.94598.01107,4.62143.00449,2.03019,2.15059,3.82895,1.93048,6.08343.00651,2.70565,2.37555,3.71547,2.04126,5.29398.00509,2.14213,11.86647,12.26223,12.08971,11.36001,1.13014,1.23737,2.37383,2.58821,3.3884,2.69813.67681-.00112,5.30359,1.9046,5.98017,1.90235,1.69134-.00326,7.33124,1.33682,11.39028,1.32694l1.35395.67355c1.24032-.00254,4.05848-.00976,8.00501-.01893,11.61214-.02674,13.41086-2.28489,15.43802-3.30549.89975-1.12857,1.68004-4.96433,2.01662-5.41568.44481-2.81965,1.22929-5.18896,1.22533-6.65428-.00449-2.03019-1.02325-3.26804-1.24683-2.70311-3.60769.00793-5.06224,5.08513-6.07423,5.98907-.67456.6777-3.37427,3.38997-3.37427,3.38997-.67658.00224-3.94148,2.03924-4.61773,2.04025-2.02768.79425-2.81468,2.03528-6.08384,2.04321-4.39699.00976-3.26719.90985-8.67957.69663-3.04533-.78235-8.1189-.77034-11.39566-4.03282-3.39009-3.37483-4.28823-1.79367-9.39513-15.98795-.00426-2.02907-2.48918-3.71454-1.36618-6.08385-.79548-2.36653-.68526-3.49439-.70505-12.06304-.0071-3.15611,1.34093-5.07627,1.33469-8.00726,1.34714-2.59584,1.79195-5.07698,2.68695-8.0104-.00168-.67669,2.69947-2.71339,2.69802-3.38896.67512-.67782,3.25754-5.30628,3.93266-5.9841-.22721-.56311,6.41682-4.18759,6.07879-4.07329,6.42296-1.59275,4.05335-2.26395,12.05866-2.05765,1.35226-.00314,5.30048.66439,5.97673.66338,3.72531,1.90703,11.06107,5.38609,11.40864,9.33207,4.06835,4.04927,3.38504,1.00623,4.06386,2.01908.5624-.33971.8987-1.24275,1.34744-2.0321-.45297-1.12767-.68328-2.93099-.68417-3.26816Zm67.85021,42.57292c-1.79169,5.19015.1272,6.08728-6.95906,13.20676-3.48673,3.50274-4.61377,3.8441-7.7631,7.00854-4.61885,1.36345-5.86112.91464-10.81262,4.75975-6.08893-.43744-11.16449-1.32735-16.35419-3.11971-2.81871.00733-4.06726-3.48452-11.63282-8.54055-2.14554-1.79887-6.22571-10.69705-6.24015-17.01038-.90375-.78732,1.57151-3.15977,1.55711-9.36106-.00449-2.03019,2.35917-3.72625,3.82023-5.42076-.90716-2.25276,7.07803-10.95239,13.9495-13.33561l14.76936-.03408c.67965,1.12591,4.512.77928,6.99242.77307.11392.56281,3.15809.89482,5.41863,3.14421,2.36736-.00539,5.31013,5.06082,7.79673,7.7615.79103.78691,2.38038,5.40591,3.17163,6.19395.11452,1.01327,2.27274,7.88615,2.27921,10.81827.00595,2.70576.00654,2.8177.0071,3.15611Zm-14.02248-18.5706c-1.58232-1.687-9.83601-11.81503-13.2182-11.69423-2.36512,1.02048-5.52231.80135-8.56625.80898-4.05279,2.60235-7.42706,5.99233-8.43991,7.00967-2.13301,3.83665-2.00783,9.24848-3.92196,10.1562.00909,4.05803.3601,9.5815-.76268,11.61341,0,0,.80004,4.62083.80371,6.19945.02068,8.90581,3.6219,6.30429,4.64178,8.55746l1.58595,3.15356c9.5941,4.82542,9.1414,3.81092,13.98941,3.80044,1.01622,1.01308,7.65486-4.97876,11.70818-7.01625,2.14269-.0052,5.04982-10.38449,5.38695-10.83596.56097-1.24175-.81445-10.82212-.82694-16.34559-.00195-.78987-1.58879-4.61912-2.38004-5.40715Zm81.71272,40.17279l-.79047-.78703c-.78875.00172-5.53169-3.14339-6.321-3.14156-1.35533-.7865-1.92536-3.82925-2.37869-4.72922-.00535-2.25531,1.55658-9.58741,1.54158-15.90063-.68047-1.57749-.79413-2.36564-.79975-4.73412l.78336-2.36908c-.56662-1.23879-1.59133-5.52092-1.59844-8.67703.56183-1.01663-3.16767-4.72862-3.17309-7.20804-6.1073-8.10405-12.97596-4.70585-17.48796-5.48513-1.91462.79342-3.26352,2.48846-7.09475,3.17339-3.04308.57126-4.72825,3.2814-7.88518,3.17545-1.35616-1.23808.09806-6.31405-2.38259-6.30896l-1.69283-.78437c-1.01566-.33616-3.03743,2.71328-4.72395,4.74549-3.37483,3.39009-4.61152,4.85919-8.66487,7.12314.00565,2.48054,1.24739,3.04151,5.53734,5.62392.00195.78987.80431,6.31139.80797,7.89.01133,5.07313.03423,14.88198.05824,25.36764-2.70247,1.80934-3.94003,2.71482-7.09554,3.17238l.00195.78987c.00703,2.932,1.13239,2.25247,4.74011,2.35659.78931-.00183,3.15495-.79597,3.94426-.7978,2.36792-.0055,14.31835-.03337,16.68627-.03887.78818-.67864,1.01255-.90405.78392-2.36919-.79159-1.12532-4.17715-2.3579-7.10859-2.35098-1.4681-.89896-2.37555-3.37696-2.38064-5.51909l-.05824-25.36764c.67202-1.91803.89212-4.17251,2.35292-6.31872,6.29946-6.32789,14.07442-8.03696,15.76748-7.25147,1.8056.89684,3.50034,2.35902,6.32044,3.14167,3.38246-.00763,2.3846,7.32293,2.39395,11.15562.00195.78987.7978,3.94426.79975,4.73412.00172.78875,1.58767,3.94231,1.58939,4.73106.00112.67681-.33343,2.14213-.78141,3.15895l.03452,15.10721c-.78759.79058-.33346,2.3686-2.36254,2.37286-.78762.67853-3.831.68604-6.30795,2.3818.00647,2.5936,2.82148,1.23411,4.73839,1.56784.78931-.00183,3.94848.7807,4.73723.77898,2.81871-.00733,9.47056-.02177,16.68571-.03875.78818-.67864,1.01311-.90417.78369-2.37032Zm35.97887-89.26228c-3.15667.00722-5.06762,2.71777-8.78583,3.28982-3.48733,3.3908-8.10476,5.65628-8.09742,8.81351-.6703,2.70677-.66181,6.31435-3.14223,6.32055.00879,3.8328-2.228,11.61737-2.34189,11.16662.01781,7.66672.68982,5.74869-7.186,12.75683.00565,2.48054,1.13268,2.13918,6.4411,6.41125.00565,2.48054.80229,5.63593,2.38203,6.30907.00119.5624.00202,1.01398.00344,1.57749.00254.90181-1.57069,3.27283-1.56874,4.0627.02091,8.90693-.30882,13.07825.82611,15.89401.00532,2.14325-2.80906,4.40376-1.56391,6.43018-2.80117,7.22236-5.96857,2.94543-8.89066,7.12355l.79159.7868,14.43051-.03284c2.02825-.79436,2.70393-.79525,7.21455-.80596,3.04282-.0074,3.38306.78134,10.48626.76496.67486-.79099.78957.11134.78164-3.15783.8993-1.13081-4.84973-.77827-7.21709-.77289-.45158-.33769-7.78712-3.47712-7.22442-3.93012l-.05745-24.6896c-.00419-1.80496-1.13467-3.37962-.80401-6.42468,1.23015-4.62533-.58189-8.0037,8.77618-8.02477.78875-.00172,6.42412-.80389,8.00273-.80756.90012-.67924,1.91013-2.4851,1.68206-3.95035-.00172-.78875-1.69673-2.36411-1.69673-2.36411l-11.16112.02603c-.45158.00083-3.83718-1.34381-4.06491-2.47178-.00853-3.71963-1.37549-9.80448-.81508-11.04611-.00681-2.93088.43205-8.45629,5.60481-14.44406,1.34942-1.13018,4.84577-.68705,4.84494-.80011,3.04394-.00763,5.0784,2.35547,8.01062,2.34955.78987-.00195,5.52631.77603,6.42812.77349,2.14213-.00509,5.29143-3.28159,4.72395-4.74549-.00591-2.59371-.0147-6.42651-16.81314-6.38817Z"/><path d="m376.07246,126.72048h-.25061l-.32635-.05676c-.16882.00073-.44934.02374-.72083.04602-.43506.03564-.92816.07611-1.46588.07611-1.29468,0-2.46021-.29065-3.44873-.81104-.51166,1.44049-1.08777,2.86511-1.59033,4.30096-1.13464,3.24164-3.01495,6.05487-5.43781,8.51672-2.28778,2.32465-4.44965,4.7735-6.88989,6.9472-.46039.02087-.84711.20056-1.16077.53802.01959.07111.03448.13617.0451.19574-.01062-.05939-.02545-.12433-.04498-.19519-2.67053-.57904-4.96625-2.05743-7.34467-3.26886-1.0174-.51819-1.729-.51703-2.33545.10724-.76038.78278-1.40924,1.74805-1.85425,2.74677-.80066,1.79712-1.33228,2.02399-3.0072.79156-.47455-.34918-.61896-.4986-1.05347.09015-.87024,1.17896-1.89697,2.24237-2.85968,3.35333.00079-.00189.00159-.00385.00238-.00574-.45001-.17767-.73865-.01501-.896.42474-.06506.10205-.13013.2041-.19531.30609-.45331-.09064-.91779-.25543-1.29004.19366-.65515-.31781-1.33118-.43915-2.06885-.36279-2.4162.25024-4.8653,3.5799-4.65356,6.58502.0426.60443-.18848,1.14075-.09125,1.71338-.0614.15588-.12183.31177-.18225.46765.08392.20605.16791.41205.25189.61804-.08398-.20599-.16797-.41199-.2514-.61682-.08228.09833-.16498.1955-.24701.29358-.70197.5625-.66498,1.67902-1.56824,2.09106-1.84912-.02679-3.36047,1.04865-5.01849,1.61176-4.25647,1.44562-8.68933,1.4079-13.06555,1.86829-.87427-.00311-1.74847-.0061-2.62268-.00928l.00006-.00012c-1.64117-.42871-3.35651.20782-4.98895-.34723-.91699-.57977-1.88239-1.00476-2.99884-.76379-1.94147.41901-3.58606-.81995-5.4978-.92694-2.82489-.15808-5.69641-.80426-8.38525-1.7204-3.00348-1.02338-5.96649-2.2168-8.86664-3.58392-2.42908-1.14508-4.95148-2.17639-7.45337-3.20721-1.29987-.53558-2.4707-1.39087-3.68512-2.12585-4.41473-2.67181-8.09241-6.33759-12.31061-9.23743-2.91235-2.00208-5.09875-4.73425-7.93719-6.76111-1.60925-1.14917-2.50256-2.98761-3.77863-4.46564-.38788-.44928-.69208-.96552-1.24005-1.25067-1.05096-1.20959-1.99347-2.4942-2.84113-3.84833-2.16296-.17328-4.36731-.51825-6.24274-.82129-.40106-.06476-.86096-.13885-1.29126-.20532.41309.80109.83282,1.59955,1.27509,2.3891,1.11682,2.46332,2.53644,4.74683,4.11713,6.93469,1.18829,1.6748,2.31476,3.39795,3.57837,5.01385,2.58655,3.30798,5.41711,6.38147,8.35309,9.40448,2.83319,2.91724,5.92285,5.48633,9.17584,7.74847,4.35516,3.0285,8.77295,6.02356,13.73389,8.16003,4.80139,2.06775,9.56049,4.15985,14.66412,5.36285.1745.50647.52582.42352.89838.26801.26953.08618.53894.1709.80835.25562.26605.48145.60638.30713.94928.10712.31128.02368.62225.04681.93317.06995.21649.25403.46588.27179.74115.10333.23633.06299.47266.1261.70892.18915.66168.4585,1.3656.52222,2.10767.2251.75323.44366,1.55066.55182,2.39343.31958.66125.41687,1.37476.5929,2.15375.46747.75873.29834,1.54413.12457,2.3194.13098.27002.33234.57092.32617.89343.08026.00006.0011.05621-.03931.05621-.03931,1.13959.08124,2.27832.2572,3.42065.03094-.20789-.60797-.26874-1.17017-.22687-1.70032-.04187.53015.01904,1.09222.22693,1.70013.50098.04724,1.00195.09467,1.50293.14215.36316.24323.69104.12738,1.00751-.09967.94543.14478,1.8559-.06396,2.7666-.27026,3.91815.66852,7.66956-.19141,11.39978-1.24371,1.64124-.16827,3.29993-.15668,4.90552-.64691,3.52362-1.07581,7.15265-1.71179,10.53607-3.36432,3.00415-1.46722,6.05341-2.86047,9.04694-4.36017,3.44366-1.72522,6.59467-3.9455,9.77563-6.08319,3.11682-2.09467,6.3855-4.09155,8.55835-7.323.44794-.04584.75903-.31213,1.03253-.6391-.14111-.10089-.28223-.20178-.4234-.30267-.12946-.07678-.24738-.16211-.34558-.25568.09827.09357.21613.17896.34564.25568.14111.10089.28223.20178.42279.30206,1.96509-1.50708,3.46875-3.46814,5.04755-5.32928,2.20551-2.59991,4.32019-5.2915,6.28162-8.0791,1.55536-2.21057,3.33447-4.33643,4.01196-7.06281.07971-.15509.15924-.3103.23877-.46545.66742-.33606,1.07568-.82214,1.33246-1.39587-.47675-.0943-1.23181-.24335-1.56537-.29156Zm-72.05975,39.16785c.15442-.07251.28192-.1936.3606-.40088-.07867.20734-.20612.32843-.3606.40088Zm7.29572.76208c-.20575.15735-.40564.31567-.58557.47815.17993-.16248.37982-.32086.58557-.47821.49585-.11328.9917-.22656,1.48749-.33984-.49585.11334-.99164.22662-1.48749.3399Zm13.98328-3.13324c-.13879-.0871-.30414-.16528-.43927-.24866.15491-.3219.30975-.64386.4646-.96576-.15485.3219-.30969.64386-.46454.96576.13513.08337.30042.16156.43921.24866Zm36.8775-18.33685c-.08746-.12659-.1825-.23755-.28381-.33551.10132.09796.19635.20892.28387.33551.01862.1463.02032.28766.00879.42511.01154-.13745.00977-.27881-.00885-.42511ZM231.46016,40.32687c.3996.05621.86139.08466,1.3725.08466,1.80609,0,3.95197-.34039,6.22382-.70087,2.27765-.36133,4.62335-.71759,6.93658-.79175.81885-1.26453,1.60565-2.547,2.35211-3.84619,1.12439-1.95703,2.3031-3.86877,3.90631-5.3363,5.48291-5.01886,11.51794-9.31494,18.07452-12.84363.89264-.48041,1.84564-.69257,2.87994-.09174.98132.57007,2.20984.65674,3.01215-.16699.97687-1.00299,2.09155-1.44208,3.38531-1.68414.47479-.08881.90143-.32568,1.04053-.86304,1.46729-.89355,3.28839-.82764,4.74774-1.77765.65942-.4292,1.53058-.57184,2.24042-.3512,1.77808.55267,3.35901-.133,4.98651-.56372.34418-.09113.66077-.29669,1.01569-.13147,1.30176.60596,2.36804-.0354,3.44659-.62823,2.61438.36975,3.4986,2.93451,5.37701,4.21985,1.46759,1.00421,2.39539,2.14502,2.02753,4.01208-.3493,1.71613.086,3.2569,1.06909,4.66309,1.3703,1.96002,3.47876,2.92462,5.48181,4.02869.18091.133.36182.26605.54272.39905.00018-.00006.00031-.00012.00031-.00012.25458.48608.48859.9884,1.0072,1.26416.94025,2.43506,1.72504,2.87366,4.34564,2.2583,1.82587-.42865,3.52795-.50085,5.35956.26422,2.01178.84021,4.07648,1.2594,6.33362.09375,3.14618-1.62482,5.74811-3.67682,7.40564-6.83374.24268-.46222.60449-.71228,1.10791-.79535,2.89276-.47736,6.59595,2.66943,6.61237,5.60156.00153.27496-.07111.41943-.28351.56958-.93976.66431-.15894.78851.32556.97424,1.80591.69232,2.08447,1.51392,1.01245,3.18384-.7923,1.23413-1.3241,2.5448-1.6098,4.3952,2.10175-1.87592,2.54675-4.59344,4.78278-5.80414,1.19696-.49548.96674,1.06812,1.84021,1.25116,1.2121.25397,1.21985,2.04602,2.6123,2.38837.30518.07501-.23029.9093-.5636,1.31671-.49188.6012-1.23157,1.02869-1.46649,1.9118.73193.06244,1.09753-.40271,1.51801-.67615,1.16107-.75507,2.05762-1.09955,2.13654.84869.03662.90558.42621.82056,1.16998.4975.8476-.36816,1.70563-.31091,1.32526,1.10858-.2052.76569-.21527,1.38.98102,1.50848,1.74768.18762,2.04156,1.30719.85858,2.70349-.46167.54492-1.07397.98199-1.40845,1.93542.86145-.36035,1.50073-.60712,2.12219-.89252.94757-.43518,1.84741-1.21094,2.93921-.328-.48938.92523-.70154,1.73718.62091,2.19098.34894.11969.88379.73914.84528.79553-1.21558,1.77899-.05518,2.1543,1.36328,2.42963.1106.02148.18848.28827.25378.45209.21277.53394.63324.71881,1.14697.59625,2.49097-.59424,4.5755,1.00934,6.90967,1.2594.51263.05493.76508.52454,1.0415.91132-.14307.47302-.45929.91248-.28113,1.44788-.30353.83588-.60712,1.67169-.91071,2.50751-1.21484.46326-1.40479,1.57092-1.65851,2.63818-.02417.0722-.05939.1366-.08789.20581.19855-.01111.39178-.02112.59888-.03363.8739-.05267,1.86438-.11237,2.91479-.11237,2.49133.00006,5.73157.31189,9.06036,2.22107-.21399-.9259-.46301-1.84589-.77765-2.75348-1.25763-3.62762-2.30634-7.32007-4.28522-10.65088-.10693.08185-.21393.16364-.32086.24548.10693-.08185.21393-.1637.32092-.24554-.02228-.08148-.07404-.13403-.15594-.15765-.2702-.1048-.53967-.20953-.80914-.31421l.00006-.00006c.26941.10474.53888.20947.80908.31427-.09491-.89203-.22888-1.76746-1.0246-2.3548-.10321-.39819-.15356-.81982-.31787-1.19104-1.33728-3.02148-2.76581-6.03503-4.91028-8.54517-1.5072-1.76422-2.24622-4.0296-3.98914-5.59021-.08868-.414-.35016-.66052-.75092-.77271.0014-.00067-.01349.00842-.01349.00842-.00043-.00031-.00085-.00055-.00128-.00079-.1792-1.57654-1.88086-1.87573-2.53076-2.91681-2.13788-3.42444-5.44995-5.5744-8.29999-8.22852-4.05133-3.77283-8.56519-6.87659-13.43445-9.4837-.7442-.38593-1.48822-.77216-2.23224-1.15839-.06067-.34839-.24927-.50073-.60596-.39514-.31-.14954-.61993-.29889-.92987-.4483h-.00006c-.19464-.38855-.53009-.53491-.94263-.54913-.31836-.45892-.76111-.64911-1.31195-.60559-1.51691-.95819-3.05048-1.87903-4.86469-2.17133-1.26959-.38794-2.53918-.776-3.80884-1.16406-.31494-.4787-.7561-.69147-1.32739-.62952-1.80981-.33014-3.46405-1.10999-5.18414-1.7088-4.09174-1.4245-8.43292-1.69495-12.70459-2.263-5.19635-.69098-10.36243-.73474-15.49048.5119-3.1413-.19037-6.1676.56787-9.15649,1.3194-2.19293.55133-4.54907.70691-6.49451,2.07202.00031.00043.00031.00098.00061.00146-.56543.19342-1.13226.38568-1.69904.578-2.22992.53925-4.41986,1.20074-6.58459,1.96893-3.78278,1.34241-7.12012,3.50684-10.44598,5.65985-3.76367,2.4364-7.61182,4.81281-11.05243,7.66296-6.8504,5.67468-12.52002,12.42401-17.08337,20.06958l.00958.00134Zm142.18579,18.69415c.31506.13977.57196.30505.73389.5144-.16193-.20935-.41895-.37463-.73401-.5144.30933-.64337.61859-1.28674.92786-1.93011-.30927.64337-.61853,1.28674-.92773,1.93011Zm-.03589-13.90485v-.00006c.32251.15515.64502.3103.96759.46539-.32257-.15509-.64508-.31024-.96759-.46533Zm.09406-2.10254c.01831.16656-.03314.33398-.10846.50171.21631.13464.37982.29443.50568.47205-.12585-.17761-.28937-.3374-.50574-.47205.07532-.16772.12683-.33514.10852-.50171Zm-21.22699-23.98413c.31854.1557.63708.31134.95551.46704,1.26715,1.26556,2.52948,2.53308,3.89258,3.68854-1.36304-1.1554-2.62531-2.42279-3.89252-3.68829,0,0-.00006-.00012-.00006-.00024-.31842-.1557-.63696-.31134-.95551-.46698-.21063.16071-.42133.32141-.63196.48212.21063-.16071.42133-.32141.63196-.48218Zm-12.32275-8.10077c-.33563-.16821-.64905-.37274-.90466-.67175l.00006-.00006c.25555.29901.56903.50354.9046.67181Zm-.95294-.60883c-.11914.1861-.2486.29523-.388.32971.1394-.03448.26886-.14374.388-.32971Zm-1.23242.10858c-.0462.22064-.04669.40198-.01282.55206-.03387-.15009-.03345-.33142.0127-.552-.10541-.052-.21088-.10382-.31653-.1554.10565.05157.21112.10339.31665.15533Zm-5.78705-2.79486c.08032.03851.16101.07611.24164.11371-.08069-.0376-.16132-.0752-.24164-.11359-.24054.16943-.60126.29791-1.01294.38275.41168-.0849.7724-.21338,1.01294-.38287Zm-18.77332-5.49243c.12268.05878.24524.11743.36786.17615-.12256-.05865-.24524-.11731-.3678-.17596-.04401.07922-.09125.15417-.1452.22015.05396-.06598.10114-.14105.14514-.22034Zm-24.92157,1.44153c-.09106.20062-.18146.40051-.27399.59735.09253-.19684.18292-.39667.27393-.59735-.10101-.01074-.20032-.01697-.29797-.01898.09766.00201.19696.00824.29803.01898Zm-8.33911,9.86023c.22821-.3031.49121-.57983.75665-.85474-.26544.2749-.5285.55164-.75665.8548-.21478-.10272-.4295-.20538-.64429-.30804.21478.10266.4295.20532.64429.30798Zm2.22906,3.9668c-.65802-.24878-1.04895-.73889-.86554-1.50293.40704-.59808.93842-.99066,1.64581-.72778.71442.26556.94421.90076.67126,1.59161-.24713.62567-.81592.87939-1.45154.6391Z" style="fill:#ff9318"/></svg>