<svg xmlns="http://www.w3.org/2000/svg" xmlns:xlink="http://www.w3.org/1999/xlink" x="0" y="0" enable-background="new 0 0 370 310" version="1.1" viewBox="0 0 370 310" xml:space="preserve"><style type="text/css">.st0{display:none}.st1{fill:#ccc}.st1,.st2,.st3{display:inline}.st2{fill:#324c8e}.st3{fill:#6ebb70}.st4{fill:#c64387}.st4,.st5{display:inline}.st6,.st7{stroke-width:2}.st6{stroke:#324c8e;stroke-miterlimit:10;fill:#c64387}.st7{fill:#ead123}.st7,.st8,.st9{stroke:#324c8e;stroke-miterlimit:10}.st8{display:inline;fill:none;stroke-width:6}.st9{fill:#6ebb70;stroke-width:5}.st10{opacity:.8}.st11{fill:#fff}</style><g id="Layer_1" class="st0"><rect width="8.8" height="8.8" x="182.1" y="150.6" class="st1"/><rect width="186.5" height="310" class="st2"/><rect width="183.5" height="134.4" x="186.5" class="st3"/><rect width="183.5" height="175.6" x="186.5" y="134.4" class="st4"/><g class="st5"><path d="M238.5,94.8c1,0,1.5-0.5,1.5-1.6V64.4c0-2.7,0.5-4.6,1.4-5.9c1-1.2,2.5-1.8,4.6-1.8c4.1,0,6.2,2.6,6.2,7.7 v40.5c0,3.1-1.3,4.6-3.8,4.6h-34.7c-2.6,0-3.8-1.5-3.8-4.6V64.4c0-5.1,2-7.6,6.1-7.6c4.1,0,6.1,2.5,6.1,7.6v28.5 c0,1.3,0.5,1.9,1.6,1.9H238.5z" class="st6"/><path d="M271.1,71.6c-1.1,0-1.6,0.6-1.6,1.9v28.6c0,2.7-0.5,4.6-1.4,5.9c-0.9,1.2-2.5,1.8-4.6,1.8 c-4.1,0-6.1-2.6-6.1-7.7V61.5c0-3.1,1.3-4.6,3.8-4.6h34.6c2.6,0,3.9,1.5,3.9,4.6v40.6c0,5.1-2,7.6-6.1,7.6c-4.1,0-6.1-2.5-6.1-7.6 V73.6c0-1.3-0.5-1.9-1.6-1.9H271.1z" class="st6"/><path d="M316.1,102.6c0,1-0.2,1.9-0.5,2.8c-0.3,0.9-0.8,1.6-1.3,2.3c-0.6,0.6-1.2,1.2-2,1.6c-0.8,0.4-1.5,0.6-2.3,0.6 c-0.8,0-1.6-0.2-2.4-0.6c-0.7-0.4-1.4-0.9-1.9-1.6c-0.5-0.6-1-1.4-1.3-2.3c-0.3-0.9-0.5-1.8-0.5-2.8c0-1,0.2-1.9,0.5-2.8 c0.3-0.9,0.8-1.6,1.3-2.3c0.5-0.7,1.2-1.2,1.9-1.6c0.7-0.4,1.5-0.6,2.4-0.6c0.8,0,1.6,0.2,2.3,0.6c0.8,0.4,1.4,0.9,2,1.6 c0.6,0.7,1,1.4,1.3,2.3C316,100.6,316.1,101.6,316.1,102.6z" class="st6"/></g><g class="st5"><path d="M218.4,210.6c-4.2,0-6.3-2.6-6.3-7.7v-40.2c0-2.5,0.6-4.4,1.9-5.7c1.3-1.3,2.7-1.9,4.4-1.9 c1.7,0,3.1,0.7,4.4,2c1.3,1.3,1.9,3.2,1.9,5.7v32.5h12.9c2,0,3.4,0.8,4.5,2.3c1,1.5,1.5,3.3,1.5,5.4c0,2.1-0.5,4-1.5,5.5 c-1,1.5-2.5,2.2-4.5,2.2H218.4z" class="st7"/><path d="M262.3,203.3c0,2.5-0.6,4.4-1.9,5.7c-1.3,1.3-2.8,1.9-4.5,1.9c-1.7,0-3.2-0.6-4.4-1.9 c-1.2-1.3-1.9-3.2-1.9-5.7v-32.6h-4.4c-2,0-3.6-0.8-4.7-2.3c-1.1-1.5-1.7-3.3-1.7-5.4c0-2.1,0.6-3.9,1.7-5.4 c1.1-1.5,2.7-2.3,4.7-2.3h21.4c2,0,3.6,0.8,4.7,2.3c1.1,1.5,1.7,3.3,1.7,5.4c0,2.1-0.6,3.9-1.7,5.4c-1.1,1.5-2.7,2.3-4.7,2.3h-4.3 V203.3z" class="st7"/><path d="M276.8,163c0-0.9,0.2-1.9,0.5-2.8c0.3-0.9,0.8-1.7,1.4-2.5c0.6-0.7,1.3-1.3,2.1-1.8c0.8-0.4,1.7-0.7,2.6-0.7 h10.1c3.8,0,7.2,0.7,10.2,2.2c3,1.5,5.6,3.5,7.7,6c2.1,2.5,3.7,5.4,4.9,8.8c1.2,3.3,1.7,6.8,1.7,10.6c0,3.9-0.6,7.5-1.8,10.9 c-1.2,3.3-2.8,6.2-4.9,8.6c-2.1,2.4-4.6,4.4-7.5,5.8c-2.9,1.4-6,2.3-9.4,2.5h-11c-2.1,0-3.7-0.7-4.9-2c-1.2-1.4-1.7-3.2-1.7-5.7 V163z M289.5,195.2h5c1.5,0,2.9-0.3,4.1-0.9c1.3-0.6,2.4-1.4,3.4-2.4c1-1,1.7-2.3,2.3-3.8c0.5-1.5,0.8-3.2,0.8-5.1 c0-1.9-0.3-3.6-0.8-5.1c-0.5-1.5-1.3-2.8-2.2-3.8c-1-1.1-2.1-1.9-3.4-2.4c-1.3-0.5-2.7-0.8-4.3-0.8h-5V195.2z" class="st7"/></g><line x1="186.5" x2="370" y1="134.4" y2="134.4" class="st8"/><g class="st5"><path d="M153.4,47.1h10.3c2.2,2.8,4.3,8.3,6.2,16.4v3.2c0,14.1-2,26.3-5.9,36.7c0,1.7-0.7,3.7-2.1,6.2 c0,3-1.8,6.4-5.4,10.2c0,2.1-2.3,7.6-6.9,16.4l-6.2,9.4l-10.9,14.9c-3.1,7.3-6.3,12.2-9.6,14.8l-13.7,18.1l-0.4-0.8h-0.4l-0.7,2.3 v0.8c0,2.8,4.1,4.9,12.3,6.2l4.8-2.3h23.3l1.3-2.3h12l5.1,2.3h3.1v-3.2l-5.1-14.8l-0.4-0.8v-18.8c0.4-1.9,1.8-4.8,4.1-8.6h9.6 l5.1,8.6l0.7,7v4.7c0,1.3-1.8,5.3-5.5,11.7c0,2.1,0.8,5,2.4,8.6c0,2,1.6,5.7,4.8,11.1c1,6.7,5.9,14.8,14.8,24.1 c2.2,0.6,4.9,5,8.2,13.4v7.7c-1,4.6-2.7,8.8-5.1,12.6h-1.7c-3.2-5.8-8.8-12.1-16.8-18.8l-8.9-10.2l-1,0.8c0-1.6-1.6-3.1-4.8-4.7 c-1.5-1.7-4.2-3.2-8.2-4.7h-3.7l-1-1.5H152l-0.4-0.8l-0.3,0.8h-1.8l-1.3-2.3h-2.1l-1.4,2.3h-1.4l-0.3-0.8l-0.4,0.8h-18.9l-1,1.5 h-0.3c-9,1.6-14.8,3.4-17.5,5.5l-2.1-0.8h-1.8c-1.8,1.6-6.3,2.6-13.4,3.2l-12.3,7.7l-0.3,0.8h-4.8c-5.7,3.6-9.7,5.4-12,5.4h-0.3 c-2,0-4.3-3.4-6.9-10.1l0.4-0.8v-0.7l-0.4-2.3l5.9-13.4c0.7-1.7,4.4-5.8,10.9-12.4c0-1,2.6-2.9,7.9-5.5c3.9-1.3,8.2-5.8,13-13.2 c5.5-6.3,8.7-9.4,9.6-9.4c6.8-4.4,12.1-9.8,15.8-16.4c3-3.5,6.6-8.7,10.9-15.8l9.9-11.7c4.6-3.4,11.4-16.7,20.3-39.9l2.3-13.2 v-6.2c0-1.5-0.9-2.5-2.7-3.2h-6.8c-3.7,0-8.8,3.6-15.4,10.9l-12,9.4c-8.1,10.7-15.6,21.5-22.6,32.2c-4.1,6.4-6.2,10-6.2,10.9 c-5.8,12-9.4,17.9-10.9,17.9c0,1.1-0.6,1.7-1.7,1.7h-3.5c-2.6,0-4.5-2.9-5.8-8.7v-7c0.9-1.7,1.5-3.7,1.7-6.2c0.4,0,0.8-2.1,1-6.2 l0.7-1.7v-16.4c-2.5-5.3-3.7-8.6-3.7-10.1c1.9-8.9,4.9-13.4,8.9-13.4c3.4,0,6.2,3.4,8.2,10.2v9.4h0.7l2.7-3.2 c4.2-9.4,10.3-17.7,18.1-25c0-2.1,3.4-5.3,10.3-9.4c1.8-2.6,4.3-4.6,7.6-6.2c8-8.9,13.1-13.4,15.4-13.4h0.7L153.4,47.1z" class="st9"/></g></g><g id="Layer_2"><g class="st10"><path d="M13,154.4v-41h8.2v41H13z" class="st11"/><path d="M87.9,129.1v4.2c0,12.9-9.4,21.8-20.4,21.8h-0.1c-11.8-0.1-21.1-9.5-21-21.3c0.1-11.7,9.6-21,21.3-21h0.2 c5,0.1,9.5,1.8,13.1,4.7l-5.9,5.8c-2.1-1.5-4.6-2.2-7.2-2.3h-0.1c-3.5,0-6.7,1.3-9.2,3.8c-2.5,2.4-3.9,5.7-3.9,9.1 c-0.1,3.5,1.3,6.8,3.7,9.3c2.5,2.5,5.7,3.9,9.2,3.9c6,0,11.1-4.3,12.6-9.8h-9.3v-8.2H87.9z" class="st11"/><path d="M121.4,141.8c0,7.4-6.2,13.4-14,13.4c-7.7,0-13.9-5.9-13.9-13.4c0-7.4,6.2-13.4,13.9-13.4 C115.1,128.4,121.4,134.4,121.4,141.8z M114,141.7c0-1.8-0.6-3.5-1.9-4.8c-1.3-1.3-2.9-2-4.7-2c-1.7,0-3.4,0.7-4.6,2 c-1.3,1.3-2,3-2,4.9c0,1.9,0.6,3.6,2,4.9c1.2,1.3,2.9,2,4.6,2c1.8,0,3.4-0.7,4.7-2C113.3,145.3,114,143.6,114,141.7z" class="st11"/><path d="M143.3,129.2v6.9h-5.9v18.4H130V136h-5.3v-6.9h5.3v-9.4h7.4v9.4H143.3z" class="st11"/><path d="M180.1,113.4c6.8,0,12.3,5.6,12.3,12.4s-5.5,12.3-12.3,12.3H175v16.4h-8.2v-41.1H180.1z M180.1,129.8 c2.2,0,4.1-1.8,4.1-4.1c0-2.3-1.9-4.2-4.1-4.2H175v8.3H180.1z" class="st11"/><path d="M224.1,141.8c0,7.4-6.2,13.4-14,13.4c-7.7,0-13.9-5.9-13.9-13.4c0-7.4,6.2-13.4,13.9-13.4 C217.9,128.4,224.1,134.4,224.1,141.8z M216.7,141.7c0-1.8-0.6-3.5-1.9-4.8c-1.3-1.3-2.9-2-4.7-2c-1.7,0-3.4,0.7-4.6,2 c-1.3,1.3-2,3-2,4.9c0,1.9,0.6,3.6,2,4.9c1.2,1.3,2.9,2,4.6,2c1.8,0,3.4-0.7,4.7-2C216.1,145.3,216.7,143.6,216.7,141.7z" class="st11"/><path d="M235.7,132.1c2.4-2.3,5.7-3.8,9.4-3.8c7.4,0,13.4,6,13.4,13.4c0,7.4-6,13.4-13.4,13.4c-3.6,0-7-1.4-9.4-3.8 v21.4h-6.9v-43.6h6.3L235.7,132.1z M248.7,136.9c-1.2-1.3-2.9-2-4.6-2s-3.5,0.7-4.7,2c-1.2,1.3-1.9,3-1.9,4.8 c0,1.9,0.7,3.6,1.9,4.9c1.2,1.3,2.9,2,4.7,2s3.4-0.7,4.6-2c1.2-1.3,1.9-3,1.9-4.9C250.6,139.9,249.9,138.2,248.7,136.9z" class="st11"/><path d="M287.9,141.7c0,7.4-6.4,13.4-13.2,13.4c-6.9,0-13.2-6-13.2-13.4v-12.5h7.5v12.4c0,1.8,0.6,3.4,1.6,4.6 c1.2,1.2,2.7,1.9,4.2,1.9c1.5,0,3-0.7,4.1-1.9c1-1.2,1.6-2.8,1.6-4.6v-12.4h7.5V141.7z" class="st11"/><path d="M292.7,154.4v-43.6h7.5v43.6H292.7z" class="st11"/><path d="M332.6,129.2v25.2h-6.2V152c-2.3,2-5.4,3.2-8.7,3.2c-7.4,0-13.4-6-13.4-13.4c0-7.4,6-13.4,13.4-13.4 c3.3,0,6.3,1.2,8.7,3.2l0.6-2.4H332.6z M325.2,141.8c0-1.8-0.6-3.6-1.9-4.9c-1.2-1.3-2.9-2-4.6-2c-1.8,0-3.4,0.7-4.7,2 c-1.2,1.3-1.9,3-1.9,4.9c0,1.8,0.7,3.5,1.9,4.9c1.3,1.3,2.9,2,4.7,2c1.8,0,3.4-0.7,4.6-2C324.5,145.3,325.2,143.6,325.2,141.8z" class="st11"/><path d="M345.2,132c1.9-2.5,5.2-3.5,8.5-3.5c1.5,0,2.9,0.2,4.3,0.7l-2.9,6.5c-4.3-1.9-8.6,0.7-9.4,4.7v13.9h-7.3 v-25.2h5.7L345.2,132z" class="st11"/></g><g class="st10"><path d="M112.6,161.1l6.5,2.2l-0.2,0.3c-2,4.2-3.5,8.2-4.3,11.7c-0.4,1.8-0.7,3.7-0.9,5.7c-0.2,2-0.3,4.2-0.3,6.6 c0,2.4,0.1,4.6,0.3,6.6c0.2,2,0.5,3.9,0.9,5.7c0.8,3.6,2.3,7.5,4.3,11.7l0.2,0.3l-6.5,2.2l-0.1-0.2c-2-3.7-3.6-7.8-4.7-12.2 c-1.1-4.4-1.6-9.1-1.6-14.1c0-5,0.5-9.7,1.6-14.1c1.1-4.3,2.6-8.4,4.7-12.2L112.6,161.1z" class="st11"/><path d="M167.8,185.9c0,11.7-9.5,21.3-21.3,21.3c-11.7,0-21.3-9.5-21.3-21.3c0-11.7,9.5-21.3,21.3-21.3 C158.2,164.6,167.8,174.2,167.8,185.9z M133.7,185.9c0,7.1,5.7,12.8,12.8,12.8c7.1,0,12.8-5.7,12.8-12.8s-5.7-12.8-12.8-12.8 C139.4,173.1,133.7,178.8,133.7,185.9z" class="st11"/><path d="M200.7,193.8c0,7.4-6.2,13.4-14,13.4c-7.7,0-13.9-5.9-13.9-13.4c0-7.4,6.2-13.4,13.9-13.4 C194.5,180.4,200.7,186.4,200.7,193.8z M193.3,193.7c0-1.8-0.6-3.5-1.9-4.8c-1.3-1.3-2.9-2-4.7-2c-1.7,0-3.4,0.7-4.6,2 c-1.3,1.3-2,3-2,4.9c0,1.9,0.6,3.6,2,4.9c1.2,1.3,2.9,2,4.6,2c1.8,0,3.4-0.7,4.7-2C192.7,197.4,193.3,195.6,193.3,193.7z" class="st11"/><path d="M212.2,184.1c2.4-2.3,5.7-3.8,9.4-3.8c7.4,0,13.4,6,13.4,13.4c0,7.4-6,13.4-13.4,13.4c-3.6,0-7-1.4-9.4-3.8 v21.4h-6.9v-43.6h6.3L212.2,184.1z M225.3,188.9c-1.2-1.3-2.9-2-4.6-2c-1.8,0-3.5,0.7-4.7,2c-1.2,1.3-1.9,3-1.9,4.8 c0,1.9,0.7,3.6,1.9,4.9c1.2,1.3,2.9,2,4.7,2c1.8,0,3.4-0.7,4.6-2c1.2-1.3,1.9-3,1.9-4.9C227.2,191.9,226.5,190.2,225.3,188.9z" class="st11"/><path d="M243.2,197.8c3.7,4.2,9.3,4.4,9.3,1.2c0-1.9-1.8-2.5-3.7-3c-4.9-1.5-8.3-3-8.3-7.9c0-4.6,4.2-7.7,9-7.7 c4.3,0,6.7,0.9,10.1,3l-3.4,5.3c-4.9-3.5-8.3-3.2-8.6-0.5c-0.3,1.9,2.5,2.2,5.4,3.2c3.6,1.1,6.9,3.5,6.9,7.8c0,4-4.2,7.9-9.3,7.9 c-4.6,0-8.9-1.5-12-4.6L243.2,197.8z" class="st11"/><path d="M270.5,214.1l-6.5-2.2l0.2-0.3c2-4.2,3.5-8.1,4.3-11.7c0.4-1.8,0.7-3.7,0.9-5.7c0.2-2,0.3-4.2,0.3-6.6 c0-2.3-0.1-4.6-0.3-6.6c-0.2-2-0.5-3.9-0.9-5.7c-0.8-3.5-2.3-7.5-4.3-11.7l-0.2-0.3l6.5-2.2l0.1,0.2c2.1,3.7,3.6,7.8,4.7,12.2 c1.1,4.4,1.6,9.1,1.6,14.1c0,5-0.5,9.7-1.6,14.1c-1.1,4.3-2.6,8.4-4.7,12.2L270.5,214.1z" class="st11"/></g></g></svg>