<?xml version="1.0" encoding="utf-8"?>
<!-- Generator: Adobe Illustrator 21.1.0, SVG Export Plug-In . SVG Version: 6.00 Build 0)  -->
<svg version="1.1" id="Layer_1" xmlns="http://www.w3.org/2000/svg" xmlns:xlink="http://www.w3.org/1999/xlink" x="0px" y="0px"
	 viewBox="0 0 100 100" style="enable-background:new 0 0 100 100;" xml:space="preserve">
<style type="text/css">
	.st0{fill:#181818;}
</style>
<g>
	<path class="st0" d="M30.1,51.4v5H12.4v-5l4.3-1.4V22.5l-4.3-1.7v-4.8l13.3-0.3h5.5c4.4,0,7.8,1.1,10.3,3.2
		c2.5,2.2,3.7,5.1,3.7,8.9c0,4.8-1.4,8.4-4.3,10.8c-2.8,2.4-6.9,3.6-12.2,3.6h-3.1V50L30.1,51.4z M25.7,22.5v13h3.1
		c2.4,0,4.3-0.6,5.6-1.7c1.3-1.1,1.9-2.7,1.9-4.9c0-1.9-0.5-3.5-1.5-4.7c-1-1.2-2.5-1.8-4.4-1.8H25.7z"/>
</g>
<g>
	<path class="st0" d="M41.7,84.3l-9.4-34l-4.1-1.7v-4.8l17.2-0.3v5.1l-4.2,1.7l5,21L54.3,44l7.8-0.5l7.8,27.7l5.6-20.9l-4.3-1.7
		v-4.8l16.5-0.3v5.1l-4.2,1.7l-9.9,34h-8.2l-7.6-27.5c-0.9,3.8-2.4,9.1-4.5,16c-2.1,6.9-3.3,10.7-3.5,11.5H41.7z"/>
</g>
</svg>
