<?xml version="1.0" encoding="UTF-8" standalone="no"?>
<!DOCTYPE svg PUBLIC "-//W3C//DTD SVG 1.1//EN" "http://www.w3.org/Graphics/SVG/1.1/DTD/svg11.dtd">
<svg width="100%" height="100%" viewBox="0 0 100 100" version="1.1" xmlns="http://www.w3.org/2000/svg" xmlns:xlink="http://www.w3.org/1999/xlink" xml:space="preserve" xmlns:serif="http://www.serif.com/" style="fill-rule:evenodd;clip-rule:evenodd;stroke-linejoin:round;stroke-miterlimit:2;">
    <g transform="matrix(0.205035,0,0,0.358696,-5.86106,-24.7402)">
        <path d="M226.285,165.175C225.378,169.324 223.865,172.219 221.748,173.862C219.632,175.504 217.439,176.066 215.171,175.547C212.903,175.028 210.937,173.473 209.274,170.88C207.61,168.287 206.779,164.916 206.779,160.767C207.081,152.815 210.71,144.906 217.666,137.041C224.621,129.175 233.694,121.828 244.884,115C256.073,108.172 268.926,102.035 283.442,96.59C297.959,91.144 312.929,86.866 328.352,83.754C347.405,79.951 365.55,78.828 382.788,80.383C400.026,81.939 415.298,85.353 428.605,90.626C441.911,95.898 452.95,102.554 461.72,110.592C470.49,118.63 476.085,127.101 478.504,136.004C480.924,144.906 479.714,153.852 474.875,162.841C470.036,171.83 460.661,179.869 446.75,186.956C435.56,192.661 422.405,197.674 407.284,201.996C392.163,206.318 376.361,210.077 359.879,213.275C343.397,216.474 326.764,219.369 309.98,221.962C293.196,224.555 277.47,226.975 262.802,229.222C248.135,231.47 235.055,233.76 223.563,236.094C212.071,238.428 203.452,240.977 197.706,243.743C190.448,247.374 184.248,250.658 179.107,253.597C173.966,256.536 169.656,259.388 166.179,262.154C162.701,264.92 159.979,267.729 158.013,270.581C156.047,273.433 154.46,276.415 153.25,279.527C151.435,283.849 149.016,286.571 145.992,287.695C142.968,288.819 140.095,288.948 137.373,288.084C134.651,287.22 132.61,285.491 131.249,282.898C129.888,280.305 130.115,277.366 131.929,274.082C134.954,268.031 139.641,262.024 145.992,256.06C152.343,250.096 161.567,244.348 173.663,238.817C185.76,233.285 201.335,228.099 220.388,223.259C239.44,218.418 263.483,214.01 292.515,210.034C323.06,205.885 348.085,201.002 367.591,195.384C387.097,189.765 401.84,183.585 411.82,176.844C421.8,170.102 427.471,162.885 428.832,155.192C430.192,147.499 428,139.591 422.254,131.466C416.205,122.822 407.511,116.34 396.17,112.018C384.829,107.697 372.203,105.19 358.292,104.498C344.38,103.807 330.091,104.801 315.423,107.48C300.756,110.16 287.147,114.179 274.597,119.538C262.046,124.897 251.386,131.466 242.616,139.245C233.845,147.024 228.402,155.667 226.285,165.175ZM142.363,324.905C142.363,328.881 140.019,332.208 135.332,334.888C130.644,337.567 124.822,338.907 117.867,338.907C110.911,338.907 105.089,337.567 100.402,334.888C95.714,332.208 93.371,328.881 93.371,324.905C93.371,320.929 95.714,317.601 100.402,314.922C105.089,312.242 110.911,310.902 117.867,310.902C124.822,310.902 130.644,312.242 135.332,314.922C140.019,317.601 142.363,320.929 142.363,324.905Z" style="fill:rgb(245,0,108);fill-rule:nonzero;"/>
    </g>
    <g transform="matrix(1.07288,0,0,1.07288,0.386933,-3.66841)">
        <path d="M26.617,49.008C25.92,50.325 25.159,51.519 24.333,52.59C23.507,53.662 22.552,54.572 21.467,55.32C20.719,55.837 20.047,56.108 19.454,56.133C18.86,56.159 18.376,56.004 18.002,55.669C17.627,55.333 17.395,54.83 17.305,54.159C17.214,53.487 17.324,52.713 17.634,51.835C17.117,52.093 16.485,52.584 15.736,53.307C14.988,54.03 14.226,54.843 13.452,55.746C12.677,56.65 11.948,57.566 11.264,58.496C10.58,59.425 10.031,60.212 9.618,60.858C9.205,61.529 8.837,61.987 8.514,62.232C8.192,62.478 7.934,62.568 7.74,62.503C7.546,62.439 7.437,62.232 7.411,61.884C7.385,61.535 7.45,61.09 7.604,60.548C8.456,57.708 9.199,55.32 9.831,53.384C10.464,51.448 10.986,49.86 11.399,48.621C11.864,47.201 12.277,46.053 12.638,45.175C12.432,45.511 12.187,45.885 11.903,46.298C11.67,46.659 11.406,47.066 11.109,47.518C10.812,47.969 10.496,48.466 10.16,49.008C9.876,49.473 9.592,49.77 9.308,49.899C9.024,50.028 8.798,50.028 8.631,49.899C8.463,49.77 8.379,49.538 8.379,49.202C8.379,48.866 8.521,48.466 8.805,48.002C9.089,47.537 9.386,47.053 9.696,46.55C10.005,46.046 10.341,45.491 10.702,44.884C11.064,44.278 11.483,43.613 11.961,42.89C12.438,42.167 13,41.354 13.645,40.451C14.291,39.573 14.949,38.966 15.62,38.631C16.291,38.295 16.866,38.173 17.343,38.263C17.821,38.353 18.156,38.618 18.35,39.057C18.544,39.496 18.473,40.038 18.137,40.683C17.672,41.587 17.182,42.587 16.666,43.684C16.149,44.781 15.633,45.898 15.117,47.034C14.6,48.169 14.103,49.28 13.626,50.364C13.148,51.448 12.722,52.423 12.348,53.287C11.974,54.152 11.67,54.862 11.438,55.417C11.206,55.972 11.077,56.288 11.051,56.366C11.077,56.288 11.303,55.914 11.728,55.243C12.154,54.572 12.716,53.758 13.413,52.803C14.11,51.848 14.917,50.822 15.833,49.725C16.75,48.628 17.711,47.614 18.718,46.685C19.751,45.73 20.68,45.13 21.506,44.884C22.332,44.639 22.984,44.594 23.461,44.749C23.939,44.904 24.21,45.194 24.275,45.62C24.339,46.046 24.126,46.466 23.636,46.879C23.145,47.292 22.635,47.827 22.106,48.486C21.577,49.144 21.112,49.835 20.712,50.557C20.312,51.28 20.015,51.977 19.822,52.648C19.628,53.32 19.621,53.862 19.802,54.275C20.215,54.249 20.667,54.023 21.157,53.597C21.648,53.171 22.138,52.648 22.629,52.029C23.119,51.409 23.591,50.738 24.042,50.015C24.494,49.292 24.901,48.621 25.262,48.002C25.624,47.382 25.966,46.963 26.288,46.743C26.611,46.524 26.856,46.472 27.024,46.588C27.192,46.704 27.256,46.976 27.218,47.401C27.179,47.827 26.979,48.363 26.617,49.008ZM25.068,62.949C25.43,63.078 25.907,62.968 26.501,62.62C27.095,62.271 27.747,61.761 28.457,61.09C29.167,60.419 29.935,59.599 30.761,58.631C31.587,57.663 32.419,56.605 33.258,55.456C34.097,54.307 34.923,53.1 35.737,51.835C36.55,50.57 37.318,49.292 38.041,48.002C38.376,47.382 38.712,46.963 39.047,46.743C39.383,46.524 39.635,46.472 39.803,46.588C39.97,46.704 40.041,46.976 40.015,47.401C39.99,47.827 39.783,48.363 39.396,49.008C38.157,51.099 36.892,53.12 35.601,55.069C34.31,57.018 33.026,58.741 31.748,60.238C30.47,61.735 29.218,62.91 27.992,63.762C26.766,64.614 25.598,64.975 24.488,64.846C23.739,64.769 23.203,64.291 22.881,63.413C22.558,62.536 22.403,61.426 22.416,60.083C22.429,58.741 22.584,57.263 22.881,55.649C23.178,54.036 23.584,52.455 24.1,50.906C24.617,49.357 25.217,47.937 25.901,46.646C26.585,45.356 27.314,44.375 28.089,43.703C28.734,43.136 29.341,42.787 29.909,42.658C30.477,42.529 30.987,42.587 31.438,42.832C31.89,43.077 32.258,43.484 32.542,44.052C32.826,44.62 33.007,45.317 33.084,46.143C33.187,47.305 33.091,48.531 32.794,49.822C32.497,51.112 32.058,52.306 31.477,53.404C30.896,54.501 30.206,55.424 29.405,56.172C28.605,56.921 27.753,57.321 26.85,57.373C26.127,57.398 25.572,57.205 25.185,56.792C24.978,57.566 24.817,58.315 24.701,59.038C24.584,59.76 24.513,60.399 24.488,60.954C24.462,61.509 24.494,61.961 24.584,62.31C24.675,62.658 24.836,62.871 25.068,62.949ZM29.87,47.266C29.483,47.524 29.089,47.918 28.689,48.447C28.289,48.976 27.908,49.589 27.547,50.286C27.185,50.983 26.843,51.745 26.521,52.571C26.198,53.397 25.907,54.223 25.649,55.049C26.166,55.488 26.727,55.533 27.334,55.185C27.94,54.836 28.476,54.255 28.941,53.442C29.405,52.629 29.741,51.667 29.948,50.557C30.154,49.447 30.128,48.35 29.87,47.266ZM45.088,51.564C45.037,52.003 44.927,52.565 44.759,53.249C44.591,53.933 44.411,54.604 44.217,55.262C44.023,55.92 43.849,56.521 43.694,57.063C43.539,57.605 43.462,57.953 43.462,58.108C43.643,58.108 43.939,57.805 44.352,57.198C44.765,56.592 45.256,55.811 45.824,54.856C46.392,53.9 47.024,52.823 47.721,51.622C48.418,50.422 49.141,49.215 49.89,48.002C50.277,47.382 50.632,46.969 50.955,46.763C51.277,46.556 51.523,46.511 51.69,46.627C51.858,46.743 51.923,47.008 51.884,47.421C51.845,47.834 51.632,48.363 51.245,49.008C50.496,50.299 49.767,51.545 49.057,52.745C48.347,53.946 47.683,55.043 47.063,56.037C46.443,57.031 45.882,57.876 45.379,58.573C44.875,59.27 44.456,59.773 44.12,60.083C43.501,60.625 42.939,60.787 42.436,60.567C41.932,60.348 41.642,59.799 41.564,58.922C41.513,58.612 41.493,58.218 41.506,57.74C41.519,57.263 41.551,56.779 41.603,56.288C41.216,57.166 40.764,58.024 40.248,58.863C39.732,59.702 39.176,60.438 38.583,61.071C37.989,61.703 37.382,62.181 36.763,62.503C36.143,62.826 35.524,62.897 34.904,62.716C34.336,62.536 33.981,62.019 33.839,61.167C33.697,60.316 33.729,59.276 33.936,58.05C34.143,56.824 34.504,55.482 35.02,54.023C35.537,52.565 36.169,51.138 36.918,49.744C37.666,48.35 38.525,47.079 39.493,45.93C40.461,44.781 41.487,43.884 42.571,43.239C43.268,42.826 43.901,42.587 44.469,42.522C45.037,42.458 45.527,42.497 45.94,42.639C46.353,42.781 46.676,42.994 46.908,43.277C47.14,43.561 47.289,43.852 47.353,44.149C47.418,44.446 47.379,44.717 47.237,44.962C47.095,45.207 46.857,45.369 46.521,45.446C45.23,45.73 44.03,46.311 42.92,47.188C41.81,48.066 40.809,49.086 39.919,50.248C39.028,51.409 38.254,52.629 37.595,53.907C36.937,55.185 36.408,56.372 36.008,57.469C35.608,58.567 35.356,59.483 35.253,60.219C35.149,60.954 35.201,61.361 35.407,61.438C35.666,61.516 35.995,61.387 36.395,61.051C36.795,60.716 37.221,60.245 37.673,59.638C38.125,59.031 38.583,58.328 39.047,57.527C39.512,56.727 39.932,55.914 40.306,55.088C40.68,54.262 40.996,53.449 41.255,52.648C41.513,51.848 41.668,51.151 41.719,50.557C41.745,50.093 41.952,49.764 42.339,49.57C42.726,49.376 43.133,49.325 43.559,49.415C43.985,49.505 44.365,49.731 44.701,50.093C45.037,50.454 45.166,50.945 45.088,51.564ZM57.286,63.065C57.544,62.497 57.996,61.632 58.641,60.47C59.287,59.309 60.016,58.018 60.829,56.598C61.642,55.178 62.501,53.713 63.404,52.203C64.308,50.693 65.172,49.292 65.999,48.002C66.386,47.408 66.747,47.008 67.083,46.801C67.418,46.595 67.676,46.55 67.857,46.666C68.038,46.782 68.102,47.047 68.051,47.46C67.999,47.873 67.767,48.389 67.354,49.008C66.838,49.835 66.186,50.919 65.398,52.261C64.611,53.604 63.785,55.03 62.92,56.54C62.055,58.05 61.19,59.56 60.326,61.071C59.461,62.581 58.68,63.891 57.983,65.001C57.544,65.672 57.131,65.995 56.744,65.969C56.357,65.943 56.098,65.595 55.969,64.924C55.892,64.459 55.86,63.704 55.872,62.658C55.885,61.613 55.963,60.348 56.105,58.863C56.247,57.379 56.44,55.701 56.686,53.829C56.931,51.958 57.234,49.951 57.596,47.808C56.95,49.409 56.215,51.08 55.388,52.823C54.562,54.565 53.691,56.133 52.775,57.527C51.858,58.922 50.935,59.999 50.006,60.761C49.077,61.522 48.173,61.722 47.295,61.361C46.676,61.103 46.295,60.541 46.153,59.677C46.011,58.812 46.043,57.805 46.25,56.656C46.456,55.507 46.805,54.294 47.295,53.016C47.786,51.738 48.347,50.538 48.98,49.415C49.612,48.292 50.296,47.324 51.032,46.511C51.768,45.698 52.484,45.201 53.181,45.02C54.059,44.788 54.769,44.878 55.311,45.291C55.853,45.704 56.24,46.182 56.473,46.724C56.989,45.562 57.479,44.368 57.944,43.142C58.409,41.916 58.861,40.657 59.299,39.366C59.945,36.475 60.719,33.532 61.623,30.538C61.958,29.402 62.436,28.55 63.056,27.982C63.675,27.414 64.25,27.117 64.779,27.091C65.308,27.066 65.689,27.298 65.921,27.788C66.153,28.279 66.063,29.015 65.65,29.996C65.443,30.486 65.16,31.273 64.798,32.358C64.437,33.442 64.037,34.707 63.598,36.152C63.159,37.598 62.694,39.186 62.204,40.915C61.713,42.645 61.236,44.407 60.771,46.201C60.306,47.995 59.854,49.77 59.416,51.525C58.977,53.281 58.596,54.914 58.273,56.424C57.951,57.934 57.699,59.27 57.518,60.432C57.338,61.593 57.26,62.471 57.286,63.065ZM47.838,59.812C48.121,60.044 48.541,59.915 49.096,59.425C49.651,58.934 50.29,58.173 51.013,57.14C51.736,56.108 52.504,54.836 53.317,53.326C54.13,51.816 54.95,50.144 55.776,48.311C55.311,47.873 54.756,47.821 54.111,48.157C53.465,48.492 52.807,49.054 52.136,49.841C51.465,50.628 50.806,51.545 50.161,52.59C49.515,53.636 48.973,54.656 48.535,55.649C48.096,56.643 47.799,57.527 47.644,58.302C47.489,59.076 47.554,59.58 47.838,59.812ZM71.807,45.717C71.342,46.44 70.858,47.24 70.355,48.118C69.851,48.996 69.361,49.899 68.883,50.828C68.406,51.758 67.967,52.681 67.567,53.597C67.167,54.514 66.831,55.372 66.56,56.172C66.289,56.972 66.102,57.669 65.999,58.263C65.895,58.857 65.921,59.296 66.076,59.58L75.524,46.337C76.015,45.304 76.609,44.517 77.306,43.974C78.003,43.432 78.629,43.142 79.184,43.103C79.739,43.065 80.145,43.271 80.403,43.723C80.662,44.175 80.597,44.865 80.21,45.794C80.029,46.182 79.771,46.769 79.435,47.556C79.1,48.344 78.713,49.234 78.274,50.228C77.835,51.222 77.364,52.293 76.86,53.442C76.357,54.591 75.86,55.733 75.369,56.869C74.182,59.528 72.904,62.419 71.536,65.543C72.904,63.297 74.234,61.09 75.524,58.922C76.066,57.992 76.641,57.037 77.247,56.056C77.854,55.075 78.448,54.113 79.029,53.171C79.61,52.229 80.171,51.312 80.713,50.422C81.255,49.531 81.746,48.724 82.185,48.002C82.572,47.382 82.927,46.969 83.25,46.763C83.572,46.556 83.824,46.511 84.005,46.627C84.185,46.743 84.25,47.008 84.198,47.421C84.147,47.834 83.927,48.363 83.54,49.008C81.888,51.822 80.371,54.346 78.99,56.579C77.609,58.812 76.338,60.883 75.176,62.794C74.014,64.704 72.943,66.492 71.962,68.157C70.981,69.822 70.039,71.481 69.135,73.133C68.232,74.785 67.36,76.482 66.521,78.225C65.682,79.967 64.837,81.858 63.985,83.898C63.598,84.801 63.236,85.479 62.901,85.931C62.565,86.382 62.281,86.628 62.049,86.666C61.816,86.705 61.655,86.55 61.565,86.202C61.474,85.853 61.507,85.318 61.662,84.595C61.713,84.311 61.958,83.536 62.397,82.271C62.836,81.006 63.391,79.432 64.062,77.547C64.734,75.663 65.482,73.578 66.308,71.293C67.134,69.009 67.973,66.705 68.825,64.381C69.677,62.058 70.503,59.819 71.304,57.663C72.104,55.507 72.801,53.616 73.395,51.99C73.033,52.558 72.633,53.165 72.194,53.81C71.755,54.455 71.31,55.107 70.858,55.766C70.406,56.424 69.948,57.076 69.484,57.721C69.019,58.366 68.567,58.96 68.128,59.502C67.38,60.432 66.773,61.167 66.308,61.71C65.844,62.252 65.431,62.419 65.069,62.213C64.63,61.981 64.301,61.426 64.082,60.548C63.862,59.67 63.772,58.586 63.811,57.295C63.849,56.004 64.043,54.565 64.392,52.978C64.74,51.39 65.25,49.77 65.921,48.118C66.36,47.034 66.85,46.162 67.393,45.504C67.935,44.846 68.464,44.368 68.98,44.071C69.496,43.774 69.981,43.62 70.432,43.607C70.884,43.594 71.252,43.684 71.536,43.878C71.82,44.071 71.994,44.336 72.059,44.672C72.123,45.007 72.039,45.356 71.807,45.717Z" style="fill:rgb(182,241,129);fill-rule:nonzero;"/>
    </g>
</svg>
