<?xml version="1.0" encoding="UTF-8" standalone="no"?>
<!DOCTYPE svg PUBLIC "-//W3C//DTD SVG 1.1//EN" "http://www.w3.org/Graphics/SVG/1.1/DTD/svg11.dtd">
<svg width="100%" height="100%" viewBox="0 0 100 100" version="1.1" xmlns="http://www.w3.org/2000/svg" xmlns:xlink="http://www.w3.org/1999/xlink" xml:space="preserve" xmlns:serif="http://www.serif.com/" style="fill-rule:evenodd;clip-rule:evenodd;stroke-linejoin:round;stroke-miterlimit:2;">
    <g transform="matrix(0.798821,0,0,0.798821,10.0589,10.1597)">
        <path d="M80.2,69.878C80.2,73.418 77.32,76.158 73.78,76.158L26.226,76.158C22.682,76.158 19.799,73.418 19.799,69.878L14.133,20.025C14.133,20.025 25.297,16.86 31.653,16.86C35.3,16.86 59.783,23.42 66.736,23.42C73.691,23.42 85.871,20.025 85.871,20.025L80.2,69.878ZM56.192,49.082C57.11,46.662 55.892,43.957 53.472,43.04L35.084,36.088C32.664,35.173 29.962,36.394 29.044,38.818L22.092,57.198C21.177,59.621 22.395,62.323 24.818,63.241L43.198,70.196C45.62,71.114 48.328,69.893 49.242,67.468L56.192,49.083L56.192,49.082ZM79.63,49.945L75.27,30.78C74.696,28.258 72.188,26.677 69.666,27.25L50.5,31.62C48.897,31.983 47.682,33.125 47.154,34.557L55.487,37.707C60.844,39.735 63.557,45.743 61.53,51.102L58.313,59.61L76.103,55.565C78.625,54.985 80.207,52.477 79.631,49.947L79.63,49.945ZM20.46,82.575C16.92,82.575 14.036,79.835 14.036,76.291L6.416,8.803C6.416,7.033 4.978,5.597 3.206,5.597C1.437,5.596 0,7.03 0,8.802L6.71,88.99C6.71,92.534 9.584,95.406 13.125,95.406L86.88,95.406C90.42,95.406 93.295,92.534 93.295,88.99L100,8.802C100,7.032 98.564,5.596 96.793,5.596C95.023,5.596 93.586,7.031 93.586,8.802L85.969,76.292C85.969,79.835 83.087,82.574 79.544,82.574L20.458,82.574L20.46,82.575Z" style="fill:rgb(223,74,74);fill-rule:nonzero;"/>
    </g>
</svg>
