<?xml version="1.0" encoding="UTF-8" standalone="no"?>
<!DOCTYPE svg PUBLIC "-//W3C//DTD SVG 1.1//EN" "http://www.w3.org/Graphics/SVG/1.1/DTD/svg11.dtd">
<svg width="100%" height="100%" viewBox="0 0 1200 1200" version="1.1" xmlns="http://www.w3.org/2000/svg" xmlns:xlink="http://www.w3.org/1999/xlink" xml:space="preserve" xmlns:serif="http://www.serif.com/" style="fill-rule:evenodd;clip-rule:evenodd;stroke-linejoin:round;stroke-miterlimit:2;">
    <g>
        <g>
            <path d="M618.75,1031.2C618.75,1041.56 610.356,1049.95 600,1049.95C589.645,1049.95 581.25,1041.56 581.25,1031.2C581.25,1020.85 589.645,1012.45 600,1012.45C610.356,1012.45 618.75,1020.85 618.75,1031.2" style="fill:rgb(0,16,146);fill-rule:nonzero;"/>
            <rect x="281.25" y="1012.5" width="37.5" height="37.5" style="fill:rgb(0,16,146);fill-rule:nonzero;"/>
            <rect x="431.25" y="1012.5" width="37.5" height="37.5" style="fill:rgb(0,16,146);fill-rule:nonzero;"/>
            <path d="M1031.25,937.5L168.75,937.5C143.895,937.531 120.066,947.418 102.492,964.992C84.918,982.566 75.031,1006.39 75,1031.25L75,1106.25C75,1111.22 76.977,1115.99 80.492,1119.51C84.008,1123.02 88.777,1125 93.75,1125L1106.25,1125C1111.22,1125 1115.99,1123.02 1119.51,1119.51C1123.02,1115.99 1125,1111.22 1125,1106.25L1125,1031.25C1124.97,1006.39 1115.08,982.566 1097.51,964.992C1079.93,947.418 1056.11,937.531 1031.25,937.5ZM356.25,1068.75C356.25,1073.72 354.273,1078.49 350.758,1082.01C347.242,1085.52 342.473,1087.5 337.5,1087.5L262.5,1087.5C257.527,1087.5 252.758,1085.52 249.242,1082.01C245.726,1078.49 243.75,1073.72 243.75,1068.75L243.75,993.75C243.75,988.777 245.726,984.008 249.242,980.492C252.757,976.976 257.527,975 262.5,975L337.5,975C342.472,975 347.242,976.976 350.758,980.492C354.273,984.008 356.25,988.777 356.25,993.75L356.25,1068.75ZM506.25,1068.75C506.25,1073.72 504.273,1078.49 500.758,1082.01C497.242,1085.52 492.473,1087.5 487.5,1087.5L412.5,1087.5C407.527,1087.5 402.758,1085.52 399.242,1082.01C395.726,1078.49 393.75,1073.72 393.75,1068.75L393.75,993.75C393.75,988.777 395.726,984.008 399.242,980.492C402.757,976.976 407.527,975 412.5,975L487.5,975C492.472,975 497.242,976.976 500.758,980.492C504.273,984.008 506.25,988.777 506.25,993.75L506.25,1068.75ZM600,1087.5C585.082,1087.5 570.773,1081.57 560.227,1071.02C549.676,1060.48 543.75,1046.17 543.75,1031.25C543.75,1016.33 549.676,1002.02 560.227,991.477C570.774,980.926 585.082,975 600,975C614.918,975 629.227,980.926 639.773,991.477C650.324,1002.02 656.25,1016.33 656.25,1031.25C656.25,1046.17 650.324,1060.48 639.773,1071.02C629.226,1081.57 614.918,1087.5 600,1087.5ZM956.25,1087.5L768.75,1087.5C762.051,1087.5 755.863,1083.93 752.512,1078.12C749.164,1072.32 749.164,1065.18 752.512,1059.38C755.864,1053.57 762.051,1050 768.75,1050L956.25,1050C962.949,1050 969.137,1053.57 972.488,1059.38C975.836,1065.18 975.836,1072.32 972.488,1078.12C969.136,1083.93 962.949,1087.5 956.25,1087.5ZM1087.5,1068.75C1087.5,1073.72 1085.52,1078.49 1082.01,1082.01C1078.49,1085.52 1073.72,1087.5 1068.75,1087.5L1031.25,1087.5C1024.55,1087.5 1018.36,1083.93 1015.01,1078.12C1011.66,1072.32 1011.66,1065.18 1015.01,1059.38C1018.36,1053.57 1024.55,1050 1031.25,1050L1068.75,1050C1073.72,1050 1078.49,1051.98 1082.01,1055.49C1085.52,1059.01 1087.5,1063.78 1087.5,1068.75L1087.5,1068.75Z" style="fill:rgb(0,16,146);fill-rule:nonzero;"/>
        </g>
        <g id="Magenta">
            <path d="M525,750L543.75,750L543.75,694.539C531.629,713.598 516.777,730.773 499.668,745.519C453.863,783.867 396.398,805.531 336.678,806.96C308.643,807.421 280.99,800.433 256.541,786.71C223.561,779.519 189.076,785.409 160.353,803.136C148.353,811.214 137.982,821.472 129.771,833.382C141.279,856.527 154.478,878.792 169.259,899.999L543.749,899.999L543.749,862.499L524.999,862.499C518.3,862.499 512.112,858.925 508.761,853.124C505.413,847.323 505.413,840.175 508.761,834.374C512.113,828.573 518.3,824.999 524.999,824.999L543.749,824.999L543.749,787.499L524.999,787.499C518.3,787.499 512.112,783.925 508.761,778.124C505.413,772.323 505.413,765.175 508.761,759.374C512.113,753.573 518.3,749.999 524.999,749.999L525,750Z" style="fill:rgb(255,51,245);fill-rule:nonzero;"/>
            <path d="M268.26,488.4C289.268,494.084 311.155,495.802 332.795,493.462C368.6,489.861 404.752,494.716 438.335,507.638C467.358,519.721 493.593,537.627 515.417,560.252C525.585,538.646 543.601,521.724 565.8,512.928C536.952,479.334 522.359,435.807 525.132,391.618C531.417,355.005 549.964,321.614 577.726,296.93C589.706,284.254 601.031,272.274 600.132,264.719C599.55,259.804 592.312,242.969 526.745,224.727C526.143,224.727 525.6,225.008 525.003,225.008L524.999,225.004C523.179,225 521.366,224.734 519.616,224.215C516.104,223.062 512.655,221.719 509.288,220.184C486.788,214.707 458.663,209.176 423.768,203.891C408.498,226.09 388.963,245.028 366.299,259.598C332.596,280.508 293.608,291.328 253.949,290.778C230.133,290.778 206.433,287.438 183.543,280.86C171.066,297.083 159.547,314.016 149.043,331.579C178.93,419.763 219.039,472.509 268.253,488.399L268.26,488.4Z" style="fill:rgb(255,51,245);fill-rule:nonzero;"/>
            <path d="M215.06,746.91C210.166,739.203 206.173,731.461 202.384,724.09C193.786,702.695 178.63,684.57 159.091,672.324C134.439,658.613 106.282,652.508 78.165,654.773C83.013,702.937 94.567,750.187 112.497,795.153C120.587,786.337 129.7,778.52 139.645,771.868C162.196,757.153 188.184,748.552 215.059,746.911L215.06,746.91Z" style="fill:rgb(255,51,245);fill-rule:nonzero;"/>
            <path d="M235.76,706.99C243.194,725.576 255.971,741.541 272.475,752.869C329.663,788.736 422.305,762.244 475.335,716.982C495.565,699.529 512.03,678.138 523.73,654.115C514.097,640.447 508.332,624.435 507.042,607.763C485.64,579.072 457.065,556.513 424.183,542.365C395.589,531.513 364.831,527.595 334.429,530.927C308.335,533.579 281.976,531.263 256.745,524.103C255.733,523.782 254.87,523.22 253.784,522.865C231.538,545.564 201.944,559.615 170.292,562.502C166.73,562.802 163.241,562.931 159.831,562.931L159.827,562.931C130.624,562.587 102.327,552.755 79.202,534.919C76.468,556.505 75.065,578.243 75.003,600.001C75.003,605.626 75.472,611.251 75.64,617.024C111.445,614.278 147.245,622.344 178.41,640.18C203.988,655.969 224.031,679.313 235.765,706.989L235.76,706.99Z" style="fill:rgb(255,51,245);fill-rule:nonzero;"/>
            <path d="M167.21,525C185.812,523.375 203.503,516.238 218.022,504.508C181.198,479.309 150.202,436.238 125.51,375.508C107.893,412.57 94.725,451.594 86.287,491.758C87.17,492.317 88.01,492.942 88.799,493.633C108.928,515.289 137.697,526.801 167.209,525L167.21,525Z" style="fill:rgb(255,51,245);fill-rule:nonzero;"/>
            <path d="M519.64,183.94C614.195,207.19 634.34,234.565 637.37,260.292C640.331,285.304 623.159,303.417 604.972,322.71C582.96,341.608 567.956,367.366 562.37,395.835C558.452,429.812 574.425,467.253 609.432,507.155L609.432,507.151C615.713,507.772 621.916,509.026 627.94,510.901C620.549,480.538 624.979,448.499 640.335,421.276C666.397,379.389 714.53,372.19 761.065,365.174L761.065,365.178C781.51,362.698 801.721,358.565 821.495,352.823C819.503,342.19 820.218,331.229 823.577,320.948C827.366,309.589 828.046,297.425 825.546,285.714C820.472,269.749 809.823,256.14 795.546,247.37C776.64,233.979 761.503,215.944 751.597,195.003C739.191,163.507 738.113,128.679 748.542,96.472C675.741,74.945 599.132,69.538 524.022,80.628C522.659,85.144 519.632,88.972 515.549,91.335C500.412,100.12 490.072,115.284 487.424,132.585C487.151,143.362 490.061,153.983 495.788,163.116C501.518,172.253 509.811,179.495 519.636,183.94L519.64,183.94Z" style="fill:rgb(255,51,245);fill-rule:nonzero;"/>
            <path d="M450,129.9C451.016,116.986 455.141,104.505 462.02,93.525C413.219,106.83 366.614,127.154 323.66,153.865C376.836,159.096 421.16,164.967 457.91,171.303C451.812,158.393 449.09,144.151 449.996,129.901L450,129.9Z" style="fill:rgb(255,51,245);fill-rule:nonzero;"/>
            <path d="M346.2,227.91C359.118,219.609 370.786,209.508 380.852,197.91C351.266,194.16 317.739,190.652 279.602,187.39C278.672,187.206 277.762,186.941 276.883,186.605C252.856,205.375 230.496,226.191 210.055,248.816C256.442,259.546 305.172,252.066 346.195,227.91L346.2,227.91Z" style="fill:rgb(255,51,245);fill-rule:nonzero;"/>
            <path d="M1040.2,562.88C1036.79,562.88 1033.3,562.747 1029.74,562.45L1029.74,562.45C998.09,559.579 968.497,545.552 946.243,522.868C945.231,523.224 944.368,523.786 943.282,524.107C918.048,531.247 891.692,533.564 865.598,530.931C835.203,527.583 804.446,531.505 775.86,542.369C742.973,556.514 714.391,579.068 692.985,607.767C691.696,624.439 685.93,640.451 676.297,654.119C687.996,678.142 704.461,699.533 724.692,716.986C777.715,762.213 870.362,788.779 927.552,752.873C944.056,741.545 956.833,725.58 964.267,706.994C976.001,679.318 996.044,655.974 1021.62,640.185C1052.78,622.33 1088.59,614.263 1124.39,617.029C1124.56,611.404 1125.03,605.779 1125.03,600.006C1124.97,578.229 1123.58,556.475 1120.85,534.869C1097.72,552.709 1069.41,562.541 1040.2,562.881L1040.2,562.88Z" style="fill:rgb(255,51,245);fill-rule:nonzero;"/>
            <path d="M997.61,724.09C993.86,731.457 989.848,739.203 984.954,746.91C1011.83,748.543 1037.81,757.144 1060.35,771.867C1070.29,778.519 1079.41,786.336 1087.5,795.152C1105.43,750.187 1116.98,702.937 1121.83,654.772C1093.71,652.503 1065.55,658.608 1040.9,672.323C1021.36,684.569 1006.21,702.694 997.61,724.089L997.61,724.09Z" style="fill:rgb(255,51,245);fill-rule:nonzero;"/>
            <path d="M819.23,218.3C839.949,232.101 855.093,252.816 861.96,276.745C865.98,294.374 865.296,312.753 859.972,330.034C859.745,330.972 859.597,331.608 859.409,332.432C862.202,330.108 864.839,327.604 867.304,324.932C895.992,293.057 901.054,236.694 882.492,157.792C851.625,137.948 818.746,121.421 784.41,108.48C776.886,131.781 777.414,156.933 785.91,179.898C793.574,195.32 805.039,208.539 819.23,218.296L819.23,218.3Z" style="fill:rgb(255,51,245);fill-rule:nonzero;"/>
            <rect x="581.25" y="712.5" width="37.5" height="37.5" style="fill:rgb(255,51,245);fill-rule:nonzero;"/>
            <path d="M878.32,386.98C868.535,387.125 858.804,385.5 849.597,382.179C822.941,392.503 795.046,399.281 766.628,402.335C725.023,408.577 689.077,413.98 672.167,441.147C658.479,463.139 659.042,495.522 673.929,537.483L673.925,537.487C674.651,539.639 674.968,541.909 674.862,544.179C678.636,549.194 681.89,554.577 684.577,560.249C707.71,535.659 736.268,516.815 767.975,505.222C799.682,493.624 833.663,489.597 867.202,493.46C888.843,495.795 910.725,494.081 931.737,488.397C980.956,472.514 1021.06,419.752 1050.95,331.577C1045.98,323.233 1040.82,315.022 1035.4,306.995L1035.41,306.995C1016.6,330.929 992.799,350.479 965.674,364.292C938.545,378.104 908.74,385.847 878.319,386.983L878.32,386.98Z" style="fill:rgb(255,51,245);fill-rule:nonzero;"/>
            <path d="M656.25,600C656.25,631.066 631.066,656.25 600,656.25C568.934,656.25 543.75,631.066 543.75,600C543.75,568.934 568.934,543.75 600,543.75C631.066,543.75 656.25,568.934 656.25,600" style="fill:rgb(255,51,245);fill-rule:nonzero;"/>
            <path d="M981.98,504.56C996.507,516.271 1014.2,523.388 1032.79,524.998C1062.32,526.764 1091.1,515.205 1111.2,493.498C1111.98,492.803 1112.83,492.174 1113.71,491.623C1105.28,451.459 1092.11,412.439 1074.49,375.373C1049.8,436.291 1018.8,479.363 981.979,504.563L981.98,504.56Z" style="fill:rgb(255,51,245);fill-rule:nonzero;"/>
            <path d="M1070.2,833.38C1061.99,821.47 1051.62,811.212 1039.62,803.134C1010.9,785.392 976.411,779.501 943.43,786.708C918.981,800.435 891.328,807.423 863.293,806.958C803.574,805.524 746.103,783.864 700.303,745.517C683.194,730.771 668.342,713.595 656.221,694.537L656.221,749.998L674.971,749.998C681.67,749.998 687.858,753.572 691.209,759.373C694.557,765.174 694.557,772.322 691.209,778.123C687.857,783.924 681.67,787.498 674.971,787.498L656.221,787.498L656.221,824.998L674.971,824.998C681.67,824.998 687.858,828.572 691.209,834.373C694.557,840.174 694.557,847.322 691.209,853.123C687.857,858.924 681.67,862.498 674.971,862.498L656.221,862.498L656.221,899.998L1030.71,899.998C1045.49,878.791 1058.69,856.525 1070.2,833.381L1070.2,833.38Z" style="fill:rgb(255,51,245);fill-rule:nonzero;"/>
            <rect x="581.25" y="862.5" width="37.5" height="37.5" style="fill:rgb(255,51,245);fill-rule:nonzero;"/>
            <path d="M931.18,338.61C963.918,326.176 992.164,304.196 1012.26,275.516C987.106,243.614 958.367,214.707 926.606,189.379C936.938,259.223 927.114,312.379 896.961,347.629C908.606,345.613 920.055,342.598 931.18,338.61L931.18,338.61Z" style="fill:rgb(255,51,245);fill-rule:nonzero;"/>
            <rect x="581.25" y="787.5" width="37.5" height="37.5" style="fill:rgb(255,51,245);fill-rule:nonzero;"/>
        </g>
    </g>
</svg>
