<svg xmlns="http://www.w3.org/2000/svg" xmlns:xlink="http://www.w3.org/1999/xlink" id="Layer_1" x="0" y="0" enable-background="new 0 0 100 100" version="1.1" viewBox="0 0 100 100" xml:space="preserve"><path d="M56.9,67.7c0.8-0.6,1.6-1,2.4-1.6c-1.7-3.4-3.3-6.7-5-10.2c10.4-4.2,20.7-8.3,30.9-12.4c0.1,0.1,0.2,0.1,0.2,0.2	c0.3,7.8-1,15.3-5.1,22.1c-4.6,7.7-11.3,12.7-19.8,15.2c-5.1,1.6-10.4,2.1-15.7,1.5c-8.4-0.9-15.7-4.4-21.8-10.2	C17.6,67,13.9,60.5,12.4,53c-3.2-16.1,4.3-33.6,20.8-40.8C38,10,43.1,9,48.4,8.9c0.8,0,1.7,0,2.7,0c-6.6,16.5-13.2,32.9-19.7,49.2	c1.7,1.7,3.3,3.3,5,5c4.2-1.7,8.5-3.4,13-5.2C51.8,61.2,54.3,64.4,56.9,67.7z M46.2,12.4c-1.9,0-3.6,0.3-5.3,0.7	c-18.4,4.1-28.4,21.3-25.4,38.6c1.4,8.1,5.5,14.8,11.8,20.1c5.1,4.3,11.1,6.9,17.8,7.6c4.4,0.5,8.8,0.1,13.1-0.9	c7-1.8,12.9-5.3,17.3-11c3.5-4.5,5.5-9.6,6.3-15.2c0.2-1.2,0.3-2.5,0.5-3.9c-7.9,3.2-15.7,6.3-23.5,9.4c1.6,3.3,3.2,6.4,4.7,9.6	c-2.5,1.6-4.9,3.2-7.3,4.8c-2.7-3.5-5.3-6.8-7.9-10.2c-4.3,1.7-8.6,3.4-12.6,5c-2.8-2.8-5.4-5.4-8.1-8.1	C33.7,43.5,39.9,28,46.2,12.4z"/><path d="M49.4,90.8c-4.6,0-8.3-0.7-12-1.7c-1.6-0.4-3.2-0.9-4.8-1.4c-0.3-0.1-0.6-0.2-0.9-0.4c-0.6-0.4-0.9-1.2-0.7-1.9	c0.2-0.7,0.8-1.1,1.5-1.1c0.3,0,0.6,0.1,0.9,0.2c3.5,1.2,7,2.1,10.6,2.6c3.8,0.6,7.5,0.4,11.3-0.4c2.8-0.6,5.5-1.3,8.3-2.2	c0.2-0.1,0.5-0.2,0.7-0.2c0.8-0.1,1.6,0.4,1.8,1.1c0.2,0.8-0.1,1.6-0.9,1.9c-0.3,0.2-0.7,0.3-1,0.4c-3.7,1.2-7.4,2.2-11.2,2.7	C51.7,90.6,50.2,90.7,49.4,90.8z"/><path d="M48.7,98.8c-3.8,0-7.5-0.5-11.2-1.5c-0.3-0.1-0.6-0.2-0.8-0.3c-0.7-0.4-1-1.1-0.8-1.9c0.2-0.7,0.8-1.2,1.6-1.1	c0.3,0,0.6,0.1,0.8,0.2c6.8,1.9,13.7,1.9,20.5,0c0.3-0.1,0.6-0.2,0.9-0.2c0.8-0.1,1.5,0.4,1.7,1.1c0.2,0.8-0.1,1.6-0.9,1.9	c-0.9,0.3-1.8,0.6-2.7,0.8C54.8,98.4,51.8,98.8,48.7,98.8z"/><path d="M72.7,23.4c-0.7,0-1.1-0.3-1.4-0.8C71,22,71,21.5,71.3,20.9c0.2-0.2,0.4-0.4,0.6-0.6c4.6-4.6,9.2-9.2,13.7-13.7	C85.8,6.4,86,6.2,86.2,6c0.6-0.4,1.5-0.4,2,0.2c0.6,0.5,0.7,1.4,0.2,2c-0.1,0.2-0.3,0.4-0.5,0.6c-4.6,4.6-9.2,9.3-13.9,13.9	C73.7,23.1,73.3,23.4,72.7,23.4z"/><path d="M66.3,18.3c-1.2,0-2-1.1-1.6-2.1c0.1-0.2,0.2-0.5,0.3-0.7c2.6-4.3,5.1-8.6,7.7-12.9C72.8,2.4,73,2.2,73.1,2	c0.5-0.6,1.3-0.7,2-0.3c0.7,0.4,1,1.2,0.7,1.9c-0.1,0.2-0.2,0.5-0.3,0.7c-2.6,4.3-5.2,8.6-7.8,12.9C67.4,17.8,66.9,18.3,66.3,18.3z"/><path d="M91.1,18.6c0.9,0,1.5,0.4,1.8,1c0.2,0.6,0.1,1.3-0.4,1.8c-0.2,0.2-0.5,0.3-0.7,0.5c-4.3,2.6-8.5,5.1-12.8,7.7	c-0.2,0.1-0.4,0.3-0.7,0.4c-0.8,0.3-1.6,0-2-0.7c-0.4-0.7-0.2-1.6,0.4-2.1c0.2-0.1,0.4-0.3,0.6-0.4c4.3-2.6,8.5-5.1,12.8-7.7	C90.5,18.8,90.9,18.6,91.1,18.6z"/><path d="M91.4,33.2c0,0.7-0.4,1.3-1.2,1.6c-0.7,0.3-1.5,0.5-2.2,0.7c-2,0.6-4,1.3-6.1,1.8c-0.4,0.1-0.9,0.2-1.3,0.1	c-0.7-0.1-1.1-0.7-1.2-1.4c-0.1-0.6,0.3-1.3,0.9-1.6c0.3-0.1,0.5-0.2,0.8-0.3c2.6-0.8,5.1-1.6,7.7-2.4c0.3-0.1,0.6-0.2,0.8-0.2	C90.7,31.6,91.4,32.3,91.4,33.2z"/><path d="M62.8,4.7c0,0.2-0.1,0.5-0.2,0.8c-0.8,2.7-1.6,5.4-2.5,8.1c-0.2,0.8-0.6,1.3-1.5,1.4c-1,0.1-1.8-0.7-1.7-1.7	c0-0.3,0.1-0.7,0.2-1c0.8-2.5,1.5-5.1,2.3-7.6c0.1-0.3,0.2-0.6,0.3-0.8c0.4-0.6,1.1-0.9,1.8-0.7C62.4,3.3,62.8,3.9,62.8,4.7z"/></svg>