<svg xmlns="http://www.w3.org/2000/svg" xmlns:xlink="http://www.w3.org/1999/xlink" id="Layer_1" x="0" y="0" enable-background="new 0 0 150 150" version="1.1" viewBox="0 0 150 150" xml:space="preserve"><style type="text/css">.st0{fill:#f4cb1e}.st1{fill:#1e7eb6}.st2{fill:#f0f3f1}</style><g><path d="M137.4,105.4l-5.7-9.4c3.1-3.9,5.1-8.8,5.5-14.1l11.1-2.7l-11.3-2.8c-0.7-4.9-2.8-9.4-5.9-13l6.3-10.5 l-10.7,6.4c-3.6-2.6-7.9-4.4-12.5-4.9L111.1,42L108,54.6c-4.5,0.6-8.6,2.4-12.1,5l-11.1-6.7l6.6,11c-2.8,3.5-4.7,7.7-5.4,12.3 l-12.1,3l11.9,2.9c0.4,5,2.2,9.6,5,13.4l-6,10l9.8-5.9c3.8,3.3,8.6,5.5,13.9,6.1l2.6,10.7l2.6-10.6c5.4-0.5,10.4-2.6,14.3-5.9 L137.4,105.4z" class="st0"/><polygon points="2.5 123.5 22.8 99.1 24.4 104.2 42.2 92.6 53.5 75.3 59.6 82.9 74.8 61.4 146.2 123.5" class="st1"/><polygon points="22.3 103.3 23.4 106.6 46.4 92.5 53.5 80.3 61.3 86.7 76.7 66 132.1 115.2 92.6 88.6 92.9 101.6 81.1 79.4 80.1 95 74.3 77.5 64.5 108.5 63.3 91.3 53.3 107.4 46.7 96 38.1 106.6 33.7 102.1 21.3 112 21.3 106.6 5.9 121" class="st2"/></g></svg>