<svg xmlns="http://www.w3.org/2000/svg" xmlns:xlink="http://www.w3.org/1999/xlink" x="0" y="0" enable-background="new 0 0 100 100" version="1.1" viewBox="0 0 100 100" xml:space="preserve"><style type="text/css">.st0{display:none}.st1{display:inline;fill:#181818}.st2{fill:#ab4444}.st2,.st3{display:inline}.st4{fill:#ab4444}.st5{display:inline}.st5,.st6{fill:#343434}.st7{fill:#161516}.st8{fill-rule:evenodd;clip-rule:evenodd}.st8,.st9{fill:#fff}.st10{display:inline;fill:#579a83}.st11{fill:#ce6899}.st12{display:inline;fill:#fff}.st13{font-family:&apos;Raleway&apos;}.st14{font-size:24.653px}.st15{fill:#c0282d}.st16{fill:#222221}</style><g id="Layer_6" class="st0"><rect width="114.2" height="114.2" x="-5.6" y="-5.9" class="st1"/></g><g id="Layer_1" class="st0"><path d="M96.7,20C82,8.9,62.4,14.8,62.4,14.8c14.4-3.3,24.1,17.9,25.7,20.8c2.5,4.4,6.8,4.4,6.8,4.4 c-1.7-3.6,0.6-11.3,1.6-14.6C97.5,22.1,96.7,20,96.7,20z" class="st2"/><path d="M38,14.8c0,0-19.6-5.8-34.4,5.3c0,0-0.7,2,0.3,5.4c1,3.3,3.2,11,1.6,14.6c0,0,4.1,0,6.8-4.4 C14,32.7,23.5,11.4,38,14.8z" class="st2"/><path d="M49.9,84.1c-5.7,2-9.6,0.5-9.6,0.5s2.4,6.3,9.9,6c7.5-0.3,9.2-5.5,9.2-5.5C55.2,86.1,49.9,84.1,49.9,84.1z" class="st2"/><g class="st3"><polygon points="60.5 31.6 55.7 28.1 54.7 31.6" class="st4"/><polygon points="52 23.5 55 25.7 56.8 19.9" class="st4"/><path d="M83.8,31.7c0,0-7.7-18.2-22.4-16l-1.7,2c0,0-0.3-0.1-0.8-0.1l-2.8,9l6.9,5.1l1.8,1.3H54.2l-3.5,11.3L47.2,33 H36.5l8.7-6.4l-2.8-9.2c-1.2,0.2-1.8,0.3-1.8,0.3l-1.7-2c-14.7-2.2-22.5,17-22.5,17s3.6,6.5,6.8,9c0,0-3.4,18.3,9.1,28.8 c0,0,1.9,7.5,4.2,9.6c2.3,2.1,6.2,5.1,13.8,2c7.6,3.1,11.5,0.1,13.8-2c2.3-2.1,4.2-9.6,4.2-9.6c12.5-10.5,9.1-28.8,9.1-28.8 C80.4,39.2,83.8,31.7,83.8,31.7z M32.9,45.9c-3.7-0.6-4.7-4.8-4.7-4.8c0.8-1.3,2.7-3.7,6.5-3.3c3.8,0.4,8.2,5.7,8.2,5.7 C40.4,45.3,36.6,46.6,32.9,45.9z M59,69.1c-0.1,1-1.9,2.2-2.4,2.2c0,0-0.4-2.7-2.3-1.9c-1.9,0.8-2.2,4.2-0.6,4.7 c1.7,0.4-0.7,2.7-1.6,3.3c-0.9,0.6-1.5,2.2-1.5,3.1h0c0-0.8-0.6-2.5-1.5-3.1c-0.9-0.6-3.3-2.8-1.6-3.3c1.7-0.4,1.3-3.8-0.6-4.7 c-1.9-0.8-2.3,1.9-2.3,1.9c-0.6-0.1-2.3-1.3-2.4-2.2c-0.1-1-0.7-4.1,2.7-6.1c3.4-2,5.6-0.5,5.6-0.5h0c0,0,2.2-1.5,5.6,0.5 C59.6,65,59.1,68.2,59,69.1z M67.7,46.2c-3.7,0.6-7.5-0.6-10-2.4c0,0,4.4-5.4,8.2-5.7c3.8-0.4,5.6,2,6.5,3.3 C72.5,41.4,71.4,45.5,67.7,46.2z" class="st4"/><path d="M50.7,22.6l7-5.2c-1.7-0.2-4.5-0.5-7.6-0.3c-2.6-0.1-4.8,0-6.5,0.2L50.7,22.6z" class="st4"/><polygon points="54.5 27.2 50.7 24.4 46.9 27.2 48.3 31.6 53.1 31.6" class="st4"/><polygon points="40.9 31.6 46.7 31.6 45.7 28.1" class="st4"/><polygon points="44.6 19.8 46.5 25.7 49.5 23.5" class="st4"/><polygon points="52.7 33 48.7 33 50.7 39.4" class="st4"/></g></g><g id="Layer_2" class="st0"><path d="M74.8,27.7C59.5,27.7,52.7,3,52.7,3s-6.8,24.7-22.1,24.7c-1.3,0-2.7-0.2-4.2-0.6L7.3,20c0,0,14.2,15,15.6,31.1 c0,0,0.2,1,1.9,2.3c-0.3,3-0.4,7.5-0.4,10.3c-0.1,4.6,0.5,9.3,1.9,13.3c2.5,6.9,7.2,10.7,11.7,13.9c4.7,3.4,9.7,6.4,14.7,5 c5,1.4,10-1.7,14.7-5c4.5-3.2,9.2-7,11.7-13.9c1.4-4,2-8.7,1.9-13.3c0-2.8-0.1-7.2-0.4-10.3c1.7-1.3,1.9-2.3,1.9-2.3 C83.8,35.1,98,20,98,20l-19,7.1C77.5,27.6,76.1,27.7,74.8,27.7z M76.3,63.9c-0.7,1.2-1.5,2.2-2.3,3.1c-1.7,1.9-3.4,3.7-4.5,6.4 c-0.4,0.9-0.7,1.9-1.1,2.8c-0.7,1.7-1.6,3.1-2.6,4.5c-0.8,1.1-1.6,2.3-2.5,3c-1.2,0.9-2.5,1.1-3.8,1.2c-1,0-2.1,0-3-0.9 c-0.8-0.8-1.3-2-1.9-3c-0.4-0.7-1-1.3-1.7-1.5c0,0-0.1,0-0.1,0c-0.1,0-0.1,0-0.2,0c-0.1,0-0.1,0-0.2,0c0,0-0.1,0-0.1,0 c-0.6,0.2-1.2,0.8-1.7,1.5c-0.6,1-1.2,2.3-1.9,3c-0.9,0.9-2,0.9-3,0.9c-1.3,0-2.6-0.2-3.8-1.2c-0.9-0.7-1.7-1.9-2.5-3 c-0.9-1.4-1.9-2.8-2.6-4.5c-0.4-0.9-0.7-1.9-1.1-2.8c-1.1-2.7-2.9-4.6-4.5-6.4c-0.8-0.9-1.7-1.9-2.3-3.1c-0.8-1.5-1.5-5.8-2.1-9.2 c3.8,1.9,11.3,3.8,25.8,3.8c14.5,0,22-1.9,25.8-3.8C77.9,58.1,77.1,62.4,76.3,63.9z M80.1,30.2l8.2-3.1c-4,6-8.2,14.3-9.1,23.1 c-0.8,0.9-5.5,5-26.5,5s-25.8-4.1-26.5-5C25.2,41.5,21,33.2,17,27.2l8.2,3.1c0.1,0,0.2,0.1,0.3,0.1c1.7,0.5,3.4,0.7,5.1,0.7 C41.9,31,49,20.3,52.7,12.3c3.7,8,10.8,18.7,22.1,18.7c1.7,0,3.4-0.2,5.1-0.7C79.9,30.3,80,30.3,80.1,30.2z" class="st5"/><g class="st3"><path d="M51.2,60.7c-0.1,0.3-0.9,0.4-1.8,0.2c-0.9-0.2-1.5-0.7-1.5-1c0.1-0.3,0.9-0.4,1.8-0.2 C50.7,59.9,51.3,60.4,51.2,60.7z" class="st6"/><path d="M54.1,60.7c0.1,0.3,0.9,0.4,1.8,0.2c0.9-0.2,1.5-0.7,1.5-1c-0.1-0.3-0.9-0.4-1.8-0.2 C54.7,59.9,54,60.4,54.1,60.7z" class="st6"/></g><g class="st3"><path d="M49.1,36.2v-2.1h7.2v2.1l-1.9,0.4v12.6l1.9,0.4v2.1h-7.2v-2.1l1.9-0.4V36.5L49.1,36.2z" class="st6"/></g><polygon points="52.7 23.2 53.7 26.3 57 26.3 54.3 28.3 55.4 31.4 52.7 29.5 50 31.4 51 28.3 48.3 26.3 51.6 26.3" class="st5"/><path d="M61.4,65l0.2,3.2c0,0.4-0.3,0.7-0.7,0.8l-2.8,0.2c-0.4,0-0.7-0.3-0.8-0.7l-0.2-2.9l-2.1,0.3l0.3,4.6 c0,0.4-0.3,0.7-0.7,0.8l-2.8,0.2c-0.4,0-0.7-0.3-0.8-0.7l-0.2-4.3l-2,0.2l0.6,3c0.1,0.4-0.2,0.8-0.6,0.8l-2.8,0.5 c-0.4,0.1-0.8-0.2-0.8-0.6L44.6,67l-5.3,0.6c0,0,7.3,9.2,15.5,8c8.3-1.1,10.4-11.1,10.4-11.1L61.4,65z" class="st5"/></g><g id="Layer_3" class="st0"><g class="st3"><path d="M44.8,62.1c0,1.9-0.3,3.7-1,5.2c-0.7,1.5-1.6,2.9-2.8,4c-1.2,1.1-2.5,2-4.1,2.5c-1.6,0.6-3.2,0.9-4.9,0.9 c-1.8,0-3.5-0.3-5-1c-1.5-0.7-2.9-1.6-4-2.8c-1.1-1.2-2-2.5-2.6-4.1s-0.9-3.2-0.9-5c0-1.4,0.2-2.7,0.6-3.9c0.4-1.2,1-2.2,1.7-3.2 c0.7-0.9,1.5-1.7,2.3-2.4c0.9-0.7,1.8-1.2,2.7-1.6c-0.8-0.4-1.6-0.9-2.3-1.5c-0.7-0.6-1.4-1.3-1.9-2.1c-0.5-0.8-1-1.6-1.3-2.6 c-0.3-0.9-0.5-1.9-0.5-3c0-1.8,0.3-3.4,1-4.8c0.7-1.4,1.6-2.5,2.7-3.5c1.1-0.9,2.3-1.7,3.7-2.1c1.4-0.5,2.7-0.7,4.1-0.7 c1.4,0,2.7,0.2,4.1,0.7c1.4,0.5,2.6,1.2,3.7,2.1c1.1,0.9,2,2.1,2.7,3.5c0.7,1.4,1,3,1,4.7c0,1.1-0.2,2.1-0.5,3 c-0.3,0.9-0.8,1.8-1.3,2.6c-0.6,0.8-1.2,1.5-2,2.1c-0.7,0.6-1.5,1.1-2.3,1.5c1,0.4,1.9,1,2.8,1.7c0.9,0.7,1.7,1.5,2.3,2.5 s1.2,2,1.6,3.2C44.6,59.4,44.8,60.7,44.8,62.1z M41.2,61.8c0-1.5-0.3-2.8-0.8-3.9c-0.5-1.1-1.3-2.1-2.1-2.9 c-0.9-0.8-1.9-1.4-3-1.8c-1.1-0.4-2.2-0.6-3.2-0.6c-1.1,0-2.2,0.2-3.3,0.6c-1.1,0.4-2.1,1-2.9,1.8c-0.9,0.8-1.5,1.8-2.1,2.9 c-0.5,1.1-0.8,2.4-0.8,3.8c0,1.4,0.3,2.7,0.8,3.8c0.5,1.1,1.3,2.1,2.1,2.9s1.9,1.4,2.9,1.8c1.1,0.4,2.2,0.6,3.3,0.6 c1.1,0,2.2-0.2,3.3-0.6c1.1-0.4,2.1-1,2.9-1.8c0.9-0.8,1.6-1.8,2.1-2.9C41,64.4,41.2,63.2,41.2,61.8z M24.2,41.9 c0,1.2,0.2,2.2,0.7,3.2c0.5,0.9,1.1,1.7,1.9,2.3c0.8,0.6,1.6,1.1,2.5,1.4c0.9,0.3,1.9,0.5,2.8,0.5c0.9,0,1.8-0.2,2.8-0.5 c0.9-0.3,1.8-0.8,2.5-1.5c0.8-0.7,1.4-1.5,1.9-2.4c0.5-0.9,0.7-2,0.7-3.2c0-1.1-0.2-2.2-0.7-3.1c-0.4-0.9-1-1.7-1.8-2.3 c-0.7-0.6-1.6-1.1-2.5-1.4c-0.9-0.3-1.9-0.5-3-0.5s-2,0.2-3,0.5c-0.9,0.3-1.8,0.8-2.5,1.5c-0.7,0.6-1.3,1.4-1.7,2.4 C24.4,39.7,24.2,40.7,24.2,41.9z" class="st7"/><path d="M66.9,70.6c2.3,0,4.2-0.5,5.7-1.6s2.7-2.4,3.7-4.1c0.9-1.7,1.5-3.6,1.9-5.8s0.5-4.4,0.5-6.6v-22h3.6v22 c0,2.9-0.3,5.7-0.8,8.4c-0.5,2.6-1.4,5-2.7,7c-1.2,2-2.8,3.6-4.8,4.8c-2,1.2-4.3,1.8-7.2,1.8c-2.9,0-5.4-0.6-7.3-1.9 c-2-1.2-3.5-2.9-4.7-4.9c-1.2-2-2.1-4.4-2.6-7c-0.5-2.6-0.8-5.3-0.8-8.1v-22h3.6v22c0,2.3,0.2,4.5,0.6,6.7c0.4,2.2,1,4.1,1.9,5.8 c0.9,1.7,2.1,3,3.6,4.1C62.7,70.1,64.6,70.6,66.9,70.6z" class="st7"/></g></g><g id="Layer_4" class="st0"><g class="st3"><path d="M50.6,3.3C24.2,3.3,2.8,24.7,2.8,51.2c0,21.1,13.7,39,32.7,45.4c2.4,0.4,3.3-1,3.3-2.3c0-1.1,0-4.9-0.1-8.9 c-13.3,2.9-16.1-5.6-16.1-5.6c-2.2-5.5-5.3-7-5.3-7c-4.3-3,0.3-2.9,0.3-2.9c4.8,0.3,7.3,4.9,7.3,4.9c4.3,7.3,11.2,5.2,13.9,4 c0.4-3.1,1.7-5.2,3-6.4C31.3,71.1,20.1,67,20.1,48.7c0-5.2,1.9-9.5,4.9-12.8c-0.5-1.2-2.1-6.1,0.5-12.7c0,0,4-1.3,13.1,4.9 c3.8-1.1,7.9-1.6,12-1.6c4.1,0,8.2,0.5,12,1.6c9.1-6.2,13.1-4.9,13.1-4.9c2.6,6.6,1,11.4,0.5,12.7c3.1,3.3,4.9,7.6,4.9,12.8 C81.1,67,70,71.1,59.3,72.2c1.7,1.5,3.2,4.4,3.2,8.9c0,6.4-0.1,11.5-0.1,13.1c0,1.3,0.9,2.8,3.3,2.3c19-6.3,32.7-24.2,32.7-45.4 C98.4,24.7,77,3.3,50.6,3.3z" class="st8"/><path d="M20.9,72c-0.1,0.2-0.5,0.3-0.8,0.1c-0.3-0.2-0.5-0.5-0.4-0.7c0.1-0.2,0.5-0.3,0.8-0.1 C20.9,71.4,21.1,71.7,20.9,72L20.9,72z M20.4,71.5" class="st9"/><path d="M22.9,74.1c-0.2,0.2-0.7,0.1-1-0.2c-0.3-0.3-0.4-0.8-0.1-1c0.2-0.2,0.7-0.1,1,0.2 C23.1,73.5,23.1,73.9,22.9,74.1L22.9,74.1z M22.4,73.7" class="st9"/><path d="M24.8,76.9c-0.3,0.2-0.8,0-1.1-0.4c-0.3-0.4-0.3-0.9,0-1.1c0.3-0.2,0.8,0,1.1,0.4 C25.1,76.2,25.1,76.7,24.8,76.9L24.8,76.9z M24.8,76.9" class="st9"/><path d="M27.3,79.6c-0.3,0.3-0.8,0.2-1.2-0.2c-0.4-0.4-0.5-0.9-0.3-1.2c0.3-0.3,0.8-0.2,1.2,0.2 C27.5,78.7,27.6,79.3,27.3,79.6L27.3,79.6z M27.3,79.6" class="st9"/><path d="M30.9,81.1c-0.1,0.4-0.7,0.5-1.2,0.4c-0.5-0.2-0.9-0.6-0.8-1c0.1-0.4,0.7-0.6,1.2-0.4 C30.7,80.3,31,80.7,30.9,81.1L30.9,81.1z M30.9,81.1" class="st9"/><path d="M34.8,81.4c0,0.4-0.4,0.7-1,0.7c-0.6,0-1-0.3-1-0.7c0-0.4,0.4-0.7,1-0.7C34.4,80.7,34.8,81,34.8,81.4 L34.8,81.4z M34.8,81.4" class="st9"/><path d="M38.5,80.8c0.1,0.4-0.3,0.8-0.9,0.9c-0.6,0.1-1.1-0.1-1.1-0.5c-0.1-0.4,0.3-0.8,0.9-0.9 C37.9,80.1,38.4,80.4,38.5,80.8L38.5,80.8z M38.5,80.8" class="st9"/></g></g><g id="Layer_5" class="st0"><path d="M14.5,4.9c0.4,0,0.6,0.2,0.6,0.6v19.7c0,0.7-0.1,1.4-0.4,2.1c-0.3,0.6-0.7,1.2-1.1,1.7 c-0.5,0.5-1,0.9-1.7,1.1c-0.6,0.3-1.3,0.4-2.1,0.4H8.1c-0.7,0-1.4-0.1-2.1-0.4c-0.6-0.3-1.2-0.7-1.7-1.1c-0.5-0.5-0.9-1-1.1-1.7 c-0.3-0.6-0.4-1.3-0.4-2.1v-4.5c0-0.4,0.2-0.6,0.6-0.8l3.8-1c0.4-0.1,0.6,0,0.6,0.4V25c0,0.3,0.1,0.5,0.3,0.7 C8.3,25.9,8.5,26,8.8,26h0.3c0.3,0,0.5-0.1,0.7-0.3c0.2-0.2,0.3-0.4,0.3-0.7V5.5c0-0.4,0.2-0.6,0.6-0.6C10.7,4.9,14.5,4.9,14.5,4.9 L14.5,4.9L14.5,4.9z M30.9,29.6c0.1,0.4-0.1,0.6-0.5,0.6h-3.8c-0.4,0-0.6-0.2-0.6-0.6l-0.3-4.1H23l-0.3,4.1 c-0.1,0.4-0.3,0.6-0.6,0.6h-3.8c-0.4,0-0.6-0.2-0.5-0.6l3.2-24.1c0.1-0.4,0.3-0.6,0.7-0.6h5.6c0.4,0,0.6,0.2,0.7,0.6L30.9,29.6 L30.9,29.6z M25.2,20.8l-0.8-9.3h-0.3l-0.8,9.3H25.2L25.2,20.8z M40.6,4.9c0.7,0,1.4,0.1,2.1,0.4c0.6,0.3,1.2,0.7,1.7,1.1 c0.5,0.5,0.9,1,1.1,1.7c0.3,0.6,0.4,1.3,0.4,2.1v14.7c0,0.7-0.1,1.4-0.4,2.1c-0.3,0.6-0.7,1.2-1.1,1.7c-0.5,0.5-1,0.9-1.7,1.1 c-0.6,0.3-1.3,0.4-2.1,0.4h-6.3c-0.4,0-0.6-0.2-0.6-0.6V5.5c0-0.4,0.2-0.6,0.6-0.6L40.6,4.9L40.6,4.9z M41,10.4 c0-0.3-0.1-0.5-0.3-0.7c-0.2-0.2-0.4-0.3-0.7-0.3h-1.3v16.3H40c0.3,0,0.5-0.1,0.7-0.3c0.2-0.2,0.3-0.4,0.3-0.7V10.4L41,10.4z M59.6,25.9v3.8c0,0.4-0.2,0.6-0.6,0.6h-9.2c-0.4,0-0.6-0.2-0.6-0.6V5.5c0-0.4,0.2-0.6,0.6-0.6H59c0.4,0,0.6,0.2,0.6,0.6v3.7 c0,0.4-0.2,0.6-0.6,0.6h-4.8v4.8h4.2c0.4,0,0.6,0.2,0.6,0.6V19c0,0.4-0.2,0.6-0.6,0.6h-4.2v5.7H59C59.4,25.3,59.6,25.5,59.6,25.9 L59.6,25.9L59.6,25.9z" class="st10"/><g class="st3"><path d="M86.9,77.2c-2.3,0-4.3,0.6-5.9,1.4c-0.6-1.2-1.2-2.3-1.3-3.1c-0.1-0.9-0.3-1.5-0.1-2.6 c0.1-1.1,0.8-2.7,0.8-2.8c0-0.1-0.1-0.7-1.5-0.7c-1.3,0-2.4,0.3-2.6,0.6c-0.1,0.3-0.4,1.1-0.5,1.9c-0.2,1.2-2.6,5.5-4,7.7 c-0.4-0.9-0.8-1.6-0.9-2.2c-0.1-0.9-0.3-1.5-0.1-2.6c0.1-1.1,0.8-2.7,0.8-2.8c0-0.1-0.1-0.7-1.5-0.7c-1.3,0-2.4,0.3-2.6,0.6 c-0.1,0.3-0.3,1.2-0.5,1.9c-0.3,0.8-3.5,7.9-4.3,9.7c-0.4,0.9-0.8,1.7-1.1,2.2l0,0c0,0,0,0,0,0.1c-0.2,0.4-0.4,0.7-0.4,0.7 s0,0,0,0c-0.2,0.3-0.4,0.6-0.5,0.6c-0.1,0-0.2-0.9,0-2c0.5-2.5,1.6-6.3,1.6-6.4c0-0.1,0.2-0.7-0.7-1.1c-0.9-0.3-1.3,0.2-1.3,0.2 s-0.1,0.2-0.1,0.2s1-4.3-2-4.3c-1.9,0-4.5,2.1-5.8,3.9c-0.8,0.4-2.5,1.4-4.4,2.4c-0.7,0.4-1.4,0.8-2.1,1.2c0,0-0.1-0.1-0.1-0.2 c-3.7-3.9-10.4-6.7-10.1-11.9c0.1-1.9,0.8-6.9,13-13c10.1-5,18.1-3.6,19.4-0.5c2,4.3-4.3,12.4-14.7,13.6c-4,0.4-6-1.1-6.6-1.7 c-0.5-0.6-0.6-0.6-0.8-0.5c-0.3,0.2-0.1,0.7,0,1c0.3,0.8,1.6,2.2,3.7,2.9c1.9,0.6,6.6,1,12.2-1.2c6.3-2.4,11.2-9.2,9.8-14.9 c-1.4-5.8-11-7.7-20-4.4c-5.4,1.9-11.2,4.9-15.4,8.8c-5,4.7-5.8,8.7-5.4,10.4c1.2,6,9.5,9.9,12.8,12.8c-0.2,0.1-0.3,0.2-0.5,0.3 c-1.7,0.8-8,4.1-9.6,7.6c-1.8,4,0.3,6.8,1.7,7.2c4.3,1.2,8.6-0.9,11-4.5c2.4-3.5,2.1-8.1,1-10.2c0,0,0,0,0-0.1 c0.4-0.3,0.9-0.5,1.3-0.8c0.8-0.5,1.7-1,2.4-1.3c-0.4,1.1-0.7,2.4-0.8,4.3c-0.2,2.2,0.7,5.2,1.9,6.3C52.4,92,53,92,53.4,92 c1.4,0,2-1.2,2.7-2.6c0.9-1.7,1.6-3.7,1.6-3.7s-1,5.3,1.7,5.3c1,0,1.9-1.2,2.4-1.9v0c0,0,0,0,0.1-0.1C62,89,62,88.9,62,88.9v0 c0.4-0.7,1.2-2.2,2.5-4.7c1.6-3.2,3.2-7.3,3.2-7.3s0.1,1,0.6,2.6c0.3,1,0.9,2,1.4,3.1c-0.4,0.5-0.6,0.8-0.6,0.8s0,0,0,0 c-0.3,0.4-0.6,0.8-1,1.3c-1.3,1.6-2.9,3.3-3.1,3.8c-0.3,0.6-0.2,1.1,0.3,1.4c0.3,0.3,1,0.3,1.6,0.3c1.2-0.1,2-0.4,2.4-0.5 c0.6-0.2,1.4-0.6,2.1-1.1c1.3-0.9,2.1-2.3,2-4.1c0-1-0.4-2-0.8-2.9c0.1-0.2,0.2-0.3,0.3-0.5c2-2.9,3.6-6.2,3.6-6.2s0.1,1,0.6,2.6 c0.2,0.8,0.7,1.7,1.2,2.6c-1.9,1.5-3.1,3.3-3.5,4.5c-0.8,2.2-0.2,3.2,0.9,3.4c0.5,0.1,1.2-0.1,1.7-0.4c0.7-0.2,1.5-0.6,2.2-1.1 c1.3-0.9,2.5-2.3,2.4-4c0-0.8-0.3-1.6-0.5-2.4c1.6-0.7,3.7-1,6.3-0.7c5.7,0.7,6.8,4.2,6.6,5.7c-0.2,1.5-1.4,2.3-1.8,2.6 c-0.4,0.3-0.5,0.3-0.5,0.5c0,0.3,0.2,0.3,0.6,0.2c0.5-0.1,3-1.2,3.1-4C96.2,81,92.8,77.1,86.9,77.2L86.9,77.2z M43.1,91.9 c-1.9,2.1-4.5,2.8-5.6,2.2c-1.2-0.7-0.7-3.7,1.6-5.9c1.4-1.3,3.2-2.6,4.4-3.3c0.3-0.2,0.7-0.4,1.2-0.7c0.1,0,0.1-0.1,0.1-0.1l0,0 c0.1-0.1,0.2-0.1,0.3-0.2C45.9,87,45,89.8,43.1,91.9L43.1,91.9z M56.8,82.6c-0.7,1.6-2,5.7-2.9,5.5c-0.7-0.2-1.2-3.3-0.1-6.4 c0.5-1.5,1.6-3.4,2.2-4.1c1-1.1,2.2-1.5,2.4-1.1C58.8,77.2,57.2,81.6,56.8,82.6L56.8,82.6z M68.1,88c-0.3,0.1-0.5,0.2-0.7,0.2 c-0.1,0,0.1-0.2,0.1-0.2s1.4-1.5,2-2.2c0.3-0.4,0.7-0.9,1.1-1.4v0.2C70.7,86.3,68.9,87.5,68.1,88L68.1,88z M76.9,86 c-0.2-0.1-0.2-0.6,0.5-2.1c0.3-0.6,0.9-1.6,1.9-2.5c0.1,0.4,0.2,0.8,0.2,1.1C79.5,84.8,77.9,85.7,76.9,86L76.9,86z" class="st11"/></g><text class="st12 st13 st14" transform="matrix(1 0 0 1 15.1625 55.7155)">&amp;</text></g><g id="Layer_7"><g id="XMLID_18_"><path id="XMLID_19_" d="M56.6,8.6c-12.3,0-23.3,5.4-30.9,13.9h48.9L71,26.3c-1.7,1.9-1.8,1.9-3.3,4.3 c-1.2,1.9-0.9,4-0.9,4l0.5,2.4H53.7l1.7-3.4l-8.9,0l-5.9,14.7h7.7l4-8.9l13.8,0l-4,8.9h10.5l-5.3,12.5l-10.8,0l-4.2,9.3l-13.8,0 l4.2-9.3l-7.5,0l-5.8,12.9c-0.8,1.7-1.7,3.2-2.9,4.5c7.6,8.1,18.3,13.1,30.3,13.1C79.5,91.4,98,72.9,98,50S79.5,8.6,56.6,8.6z" class="st15"/></g><path id="XMLID_13_" d="M69.5,50.3H59l4-8.9l-9.4,0l-4,8.9h-12l7.6-18.7l13.5-0.1l-1.7,3.4h7.9c0,0-0.6-2.8,1.2-5.5 c1.7-2.7,1.7-2.6,4-5H13.6c0,0-2.4,1.5-2.4,3.9c0,2.4,2.1,3.3,2.1,3.3l18.7-0.1l-8.1,18.7c-8.2,3.1-14.1,8.5-17.6,16.3l-3.9,8.8 C2.1,76,2,76.7,2,77.2c0,1.7,1.2,3.1,3.5,4.1c1.9,0.8,4,1.3,6.2,1.3c3.3,0,6.4-0.8,9.1-2.3c3-1.7,5.3-4.2,6.7-7.3l6.3-14.1l11.9,0 l-4.2,9.3l9.4,0l4.2-9.3l10.8,0L69.5,50.3z M13,74.8c-0.5,1-1.2,1.4-2.1,1.4c-0.8,0-1.3-0.3-1.3-0.9c0-0.1,0-0.2,0.1-0.4l3.8-8.4 c2-4.5,4.2-7.1,6.6-7.7C16.9,66,14.5,71.3,13,74.8z" class="st16"/></g></svg>