<?xml version="1.0" encoding="utf-8"?>
<!-- Generator: Adobe Illustrator 21.1.0, SVG Export Plug-In . SVG Version: 6.00 Build 0)  -->
<svg version="1.1" id="Layer_1" xmlns="http://www.w3.org/2000/svg" xmlns:xlink="http://www.w3.org/1999/xlink" x="0px" y="0px"
	 viewBox="0 0 600 600" style="enable-background:new 0 0 600 600;" xml:space="preserve">
<g>
	<path d="M20.9,221.9v-8.3l7.8-2.4v-45.4h-9.1l-2.4,9.1H8.5v-20.1l55.4-0.3v20.4H55l-2.4-9.1h-9.1v45.4l7.9,2.4v8.3H20.9z"/>
	<path d="M97.5,213.6v8.3H68.7v-8.3l7.2-2.4v-45.4l-7.2-2.9V155l22-0.5h7.3c8,0,14.1,1.6,18.4,4.9c4.3,3.3,6.4,8.1,6.4,14.6
		c0,8.5-3.6,14.5-10.8,18.1c1.6,1.8,2.9,3.9,4,6.2l6.4,13.1l6.5,2.2v8.3h-17.7l-8-17.7c-1.7-3.8-3.1-6.2-4.1-7.3
		c-1-1-2.7-1.5-5.1-1.5h-3.3v15.8L97.5,213.6z M90.6,165.8v19.6h5.4c3.8,0,6.7-0.9,8.8-2.6c2.1-1.8,3.2-4.2,3.2-7.4
		c0-2.9-0.9-5.2-2.6-6.9c-1.7-1.8-4-2.6-7-2.6H90.6z"/>
	<path d="M154.8,165.8v30.3c0,5.5,0.9,9.5,2.8,11.8c1.8,2.3,5.1,3.5,9.7,3.5c4.8,0,8.1-1.3,9.7-3.9c1.7-2.6,2.5-6.9,2.5-12.9v-28.9
		L172,163V155l29.4-0.5v8.4l-7.2,2.9v28.9c0,9.6-2.1,16.7-6.3,21.4c-4.2,4.7-11.3,7-21.2,7c-9.4,0-16.2-2.2-20.4-6.5
		c-4.2-4.3-6.3-11.1-6.3-20.4v-30.3l-7.2-2.9V155l29.4-0.5v8.4L154.8,165.8z"/>
	<path d="M235.3,213.6v8.3h-27.2v-8.3l7.2-2.4v-45.4l-7.2-2.9V155l24.7-0.5l14.3,31.8l15-31.3l22.9-0.5v8.4l-6.9,2.9v45.4l7.2,2.4
		v8.3h-28.5v-8.3l7.5-2.4V175c-1.1,3-2.5,6.1-4,9.3c-1.5,3.2-3.2,6.7-5.1,10.5c-1.9,3.8-3.3,6.8-4.3,8.9l-10.3,0.5l-11-22.6l-1.6-5
		v34.6L235.3,213.6z"/>
	<path d="M321.5,213.6v8.3h-29.1v-8.3l7.2-2.4v-45.4l-7.2-2.9V155l22-0.5h9.1c7.3,0,12.9,1.8,17.1,5.4c4.1,3.6,6.2,8.5,6.2,14.7
		c0,7.9-2.3,13.9-7,17.9c-4.7,4-11.4,6-20.2,6h-5.1v12.7L321.5,213.6z M314.3,165.8v21.5h5.1c4,0,7.1-0.9,9.2-2.8
		c2.1-1.8,3.2-4.5,3.2-8c0-3.2-0.8-5.8-2.5-7.7c-1.7-2-4.1-3-7.3-3H314.3z"/>
	<path d="M364,201.2l1.4,8c2.5,1.3,5.7,2,9.4,2c3.2,0,6-0.7,8.2-2.1c2.2-1.4,3.3-3.3,3.3-5.7c0-1.7-0.8-3.2-2.4-4.5
		c-1.6-1.3-3.6-2.3-6-3c-2.4-0.7-5-1.6-7.8-2.8c-2.8-1.2-5.4-2.5-7.8-3.8c-2.4-1.4-4.4-3.4-6-6.1c-1.6-2.7-2.4-5.9-2.4-9.6
		c0-6.4,2.2-11.4,6.7-15c4.5-3.5,10.3-5.3,17.5-5.3c3.2,0,6.5,0.3,10,1c3.5,0.6,6.2,1.3,8.1,1.9l2.9,1l-0.5,17.4h-8.8l-2.4-8.1
		c-2.9-1-5.7-1.4-8.4-1.4c-3.2,0-5.8,0.6-7.5,1.9c-1.8,1.3-2.6,2.9-2.6,4.9c0,1.7,0.8,3.2,2.4,4.5c1.6,1.3,3.6,2.3,6,3
		c2.4,0.7,5,1.7,7.7,2.8c2.8,1.1,5.4,2.4,7.7,3.7c2.4,1.3,4.4,3.3,6,5.9c1.6,2.6,2.4,5.7,2.4,9.2c0,6.9-2.4,12.4-7.2,16.3
		c-4.8,3.9-11,5.9-18.6,5.9c-3.2,0-6.6-0.3-10.1-0.9c-3.6-0.6-6.3-1.2-8.3-1.9l-2.9-0.9v-18.3H364z"/>
	<path d="M412.5,214.5c0-2.6,0.8-4.7,2.4-6.3c1.6-1.6,3.6-2.3,5.8-2.3c2.6,0,4.6,0.7,6,2.2c1.4,1.5,2.1,3.6,2.1,6.4
		c0,2.7-0.8,4.8-2.4,6.4c-1.6,1.6-3.5,2.3-5.8,2.3c-2.6,0-4.6-0.7-6-2.2C413.1,219.4,412.5,217.3,412.5,214.5z"/>
	<path d="M468.1,213.6v8.3h-29.1v-8.3l7.2-2.4v-45.4l-7.2-2.9V155l22-0.5h9.1c7.3,0,12.9,1.8,17.1,5.4c4.1,3.6,6.2,8.5,6.2,14.7
		c0,7.9-2.3,13.9-7,17.9c-4.7,4-11.4,6-20.2,6h-5.1v12.7L468.1,213.6z M460.9,165.8v21.5h5.1c4,0,7.1-0.9,9.2-2.8
		c2.1-1.8,3.2-4.5,3.2-8c0-3.2-0.8-5.8-2.5-7.7c-1.7-2-4.1-3-7.3-3H460.9z"/>
	<path d="M517.7,221.9l-15.5-56.2l-6.7-2.8V155l28.4-0.5v8.4l-7,2.9l8.2,34.6l13.4-45.1l12.9-0.8l12.8,45.8l9.2-34.5l-7.2-2.9V155
		l27.2-0.5v8.4l-6.9,2.9l-16.3,56.1h-13.6l-12.5-45.4c-1.5,6.2-4,15-7.5,26.4c-3.5,11.4-5.4,17.7-5.8,19H517.7z"/>
</g>
<g>
	<path d="M99.9,347c-3,0-4.5-1.7-4.5-5.1c0-4,2.6-8.9,7.9-14.5l3.1,2.6c-2.4,3.3-3.7,5.7-3.7,7.3c0,0.3,0.1,0.6,0.2,0.9
		c0.2,0.3,0.4,0.8,0.6,1.2c0.2,0.5,0.4,1,0.6,1.6c0.1,0.6,0.2,1.1,0.2,1.6c0,1.1-0.4,2.1-1.2,3C102.4,346.5,101.3,347,99.9,347z
		 M113.4,347c-3,0-4.5-1.7-4.5-5.1c0-4,2.6-8.9,7.9-14.5l3.1,2.6c-2.4,3.3-3.7,5.7-3.7,7.3c0,0.3,0.1,0.6,0.2,0.9
		c0.2,0.3,0.4,0.8,0.6,1.2c0.2,0.5,0.4,1,0.6,1.6c0.1,0.6,0.2,1.1,0.2,1.6c0,1.1-0.4,2.1-1.2,3C115.8,346.5,114.7,347,113.4,347z"/>
	<path d="M128.9,346.7c5-1.8,9.5-2.8,13.7-2.8c4,0,7.2,0.8,9.3,2.4c2.2,1.6,3.2,4.4,3.2,8.2v21l5.5,1.4v3.8l-10.7,0.3l-1.4-4.8
		c-3.7,3.7-7.3,5.5-10.9,5.5c-3.6,0-6.3-0.9-8.1-2.7s-2.7-4.3-2.7-7.7c0-7.1,5.3-10.7,15.9-10.7h5.5v-5.5c0-4.1-2.2-6.2-6.6-6.2
		c-2.5,0-4.5,0.3-6.1,0.8l-0.8,0.3l-1,5.2h-4.5L128.9,346.7z M148.2,365.3h-4.8c-3.5,0-5.9,0.4-7.3,1.3c-1.4,0.9-2.2,2.3-2.2,4.2
		c0,1.8,0.4,3.2,1.3,4.1c0.9,0.9,2.1,1.4,3.7,1.4c0.8,0,1.6-0.1,2.4-0.4c0.8-0.3,1.6-0.6,2.3-1c0.8-0.4,1.4-0.9,2-1.3
		c0.6-0.5,1.1-0.9,1.4-1.3l1.2-1.4V365.3z"/>
	<path d="M197.2,370.1c-2,0-3.7-0.2-5.2-0.6l-0.3,6.5h10.7c4.5,0,7.9,0.9,10.3,2.6c2.3,1.7,3.5,4.3,3.5,7.7c0,3.7-1.5,6.7-4.6,8.9
		c-3,2.2-7.5,3.3-13.4,3.3c-11,0-16.6-3.3-16.6-10c0-2.9,1.5-5.4,4.6-7.4c0.7-0.5,1.6-0.9,2.6-1.2c-1.2-0.2-2.2-0.6-3-1.3
		c-0.8-0.7-1.1-1.5-1.1-2.3c0-1.5,0.9-3.7,2.7-6.6l0.9-1.4c-0.4-0.1-1-0.6-1.7-1.2c-0.7-0.7-1.3-1.4-1.8-2.1
		c-1.2-1.9-1.9-4.4-1.9-7.4c0-4.4,1.4-7.7,4.1-10c2.7-2.3,6.4-3.5,11.1-3.5c2.6,0,4.6,0.3,6.1,1l0.8,0.3l12.1-0.3v3.8l-6.7,1
		c1.2,1.7,1.9,4,1.9,7c0,4.5-1.4,7.9-4.1,10.1C205.6,369,201.9,370.1,197.2,370.1z M200.7,381.2h-7.6c-0.2,0.1-0.7,0.4-1.3,0.9
		c-0.7,0.5-1.2,0.9-1.6,1.3c-1.1,1.2-1.6,2.5-1.6,4c0,2.3,0.9,3.8,2.7,4.6c1.8,0.8,4.5,1.2,8,1.2c6.9,0,10.3-2.2,10.3-6.6
		c0-2.1-0.7-3.6-2.2-4.3C205.9,381.6,203.7,381.2,200.7,381.2z M197.9,348.8c-5.3,0-7.9,2.8-7.9,8.3c0,2.5,0.6,4.5,1.9,6
		c1.3,1.5,3.2,2.2,5.6,2.2c2.8,0,4.8-0.7,6.1-2c1.3-1.3,1.9-3.4,1.9-6.3C205.5,351.5,203,348.8,197.9,348.8z"/>
	<path d="M233.1,344.6l0.6,5c3.4-3.8,6.9-5.7,10.4-5.7c1.9,0,3.7,0.3,5.5,0.8l0.8,0.2l-0.3,10h-4.5l-1-5.2c-4,0-7.3,1.8-10,5.4v20.5
		l6.9,1.7v3.8h-19.7v-3.8l5.9-1.7v-25.5l-5.9-1.4V345L233.1,344.6z"/>
	<path d="M284.9,363.8l-23.8,0.1c0,3.8,0.9,6.8,2.7,9c1.8,2.3,4.2,3.4,7.3,3.4c1,0,2-0.1,3-0.3c1-0.2,2-0.4,2.9-0.7s1.7-0.6,2.4-0.9
		c0.7-0.3,1.4-0.7,1.9-1l1.4-0.9l2.4,3.6c-1.6,1.2-3,2.2-4.3,2.9c-1.3,0.7-2.9,1.4-4.6,1.9c-1.8,0.6-3.7,0.9-5.8,0.9
		c-5.4,0-9.5-1.6-12.4-4.9c-2.8-3.3-4.2-7.8-4.2-13.5c0-2.9,0.4-5.5,1.2-7.9c0.8-2.4,2-4.5,3.5-6.2c1.5-1.7,3.3-3.1,5.3-4
		c2.1-1,4.3-1.4,6.8-1.4c9.7,0,14.5,5.4,14.5,16.2L284.9,363.8z M261.3,358.8h16.6c0-2.8-0.6-5.1-1.8-6.8c-1.2-1.7-3.1-2.6-5.8-2.6
		c-2.6,0-4.7,0.9-6.3,2.7C262.5,353.7,261.6,356,261.3,358.8z"/>
	<path d="M292.8,346.7c5-1.8,9.5-2.8,13.7-2.8c4,0,7.2,0.8,9.3,2.4c2.2,1.6,3.2,4.4,3.2,8.2v21l5.5,1.4v3.8l-10.7,0.3l-1.4-4.8
		c-3.7,3.7-7.3,5.5-10.9,5.5c-3.6,0-6.3-0.9-8.1-2.7s-2.7-4.3-2.7-7.7c0-7.1,5.3-10.7,15.9-10.7h5.5v-5.5c0-4.1-2.2-6.2-6.6-6.2
		c-2.5,0-4.5,0.3-6.1,0.8l-0.8,0.3l-1,5.2h-4.5L292.8,346.7z M312.1,365.3h-4.8c-3.4,0-5.9,0.4-7.3,1.3c-1.4,0.9-2.2,2.3-2.2,4.2
		c0,1.8,0.4,3.2,1.3,4.1c0.9,0.9,2.1,1.4,3.7,1.4c0.8,0,1.6-0.1,2.4-0.4c0.8-0.3,1.6-0.6,2.3-1c0.8-0.4,1.4-0.9,2-1.3
		c0.6-0.5,1.1-0.9,1.4-1.3l1.2-1.4V365.3z"/>
	<path d="M341.8,334.9V345h10v5.2h-10v22.1c0,2.8,1.1,4.2,3.4,4.2c1.5,0,3.3-0.6,5.4-1.7l1.9,3.7c-3.1,2.3-6.3,3.5-9.7,3.5
		c-2.3,0-4.3-0.8-5.7-2.3c-1.5-1.5-2.2-4.1-2.2-7.7v-21.7H328v-4.5l6.9-0.7v-8.7L341.8,334.9z"/>
	<path d="M374.9,346.7c5-1.8,9.5-2.8,13.7-2.8c4,0,7.2,0.8,9.3,2.4c2.2,1.6,3.2,4.4,3.2,8.2v21l5.5,1.4v3.8l-10.7,0.3l-1.4-4.8
		c-3.7,3.7-7.3,5.5-10.9,5.5s-6.3-0.9-8.1-2.7s-2.7-4.3-2.7-7.7c0-7.1,5.3-10.7,15.9-10.7h5.5v-5.5c0-4.1-2.2-6.2-6.6-6.2
		c-2.5,0-4.5,0.3-6.1,0.8l-0.8,0.3l-1,5.2h-4.5L374.9,346.7z M394.2,365.3h-4.8c-3.5,0-5.9,0.4-7.3,1.3s-2.2,2.3-2.2,4.2
		c0,1.8,0.4,3.2,1.3,4.1c0.8,0.9,2.1,1.4,3.7,1.4c0.8,0,1.6-0.1,2.4-0.4c0.8-0.3,1.6-0.6,2.3-1c0.8-0.4,1.4-0.9,2-1.3
		c0.6-0.5,1.1-0.9,1.4-1.3l1.2-1.4V365.3z"/>
	<path d="M422.9,344.6l0.6,4.9c0.5-0.4,1.1-0.9,1.9-1.5s1.8-1.3,2.9-1.9c1.1-0.6,2.4-1.1,3.7-1.6c1.4-0.4,2.8-0.7,4.2-0.7
		c3.7,0,6.5,1.1,8.3,3.3c1.8,2.2,2.7,5.2,2.7,9.1v19.3l5.2,1.7v3.8H436v-3.8l4.5-1.7V357c0-2.5-0.5-4.3-1.4-5.5
		c-1-1.2-2.4-1.8-4.4-1.8c-1,0-1.9,0.1-2.9,0.4c-0.9,0.3-1.8,0.6-2.6,1s-1.5,0.9-2.1,1.3c-0.6,0.5-1.1,1-1.6,1.4l-1.2,1.4v20.4
		l4.5,1.7v3.8h-17.3v-3.8l5.9-1.7v-25.5l-5.9-1.4V345L422.9,344.6z"/>
	<path d="M489.4,328.1v47.6l5.9,1.4v3.8l-11.7,0.3l-0.6-3.9c-3.1,3.1-6.9,4.6-11.4,4.6c-4.5,0-7.9-1.6-10.3-4.8
		c-2.4-3.2-3.6-7.6-3.6-13.3c0-6,1.5-10.8,4.6-14.5c3.1-3.6,7.6-5.4,13.7-5.4c2.3,0,4.4,0.4,6.6,1.1v-11.5l-5.9-1.4v-3.8
		L489.4,328.1z M482.5,371.2v-20.4c-1.6-0.9-4-1.4-7.2-1.4c-6.9,0-10.3,4.6-10.3,13.8c0,4,0.7,7.2,2.1,9.6c1.4,2.3,3.6,3.5,6.5,3.5
		c2.3,0,4.2-0.6,5.7-1.8C480.8,373.4,481.8,372.2,482.5,371.2z"/>
	<path d="M80.8,452.9c-2,0-3.7-0.2-5.2-0.6l-0.3,6.5h10.7c4.5,0,7.9,0.9,10.3,2.6c2.3,1.7,3.5,4.3,3.5,7.7c0,3.7-1.5,6.7-4.6,8.9
		c-3,2.2-7.5,3.3-13.4,3.3c-11,0-16.6-3.3-16.6-10c0-2.9,1.5-5.4,4.6-7.4c0.7-0.5,1.6-0.9,2.6-1.2c-1.2-0.2-2.2-0.6-3-1.3
		c-0.8-0.7-1.1-1.5-1.1-2.3c0-1.5,0.9-3.7,2.7-6.6l0.9-1.4c-0.4-0.1-1-0.6-1.7-1.2c-0.7-0.7-1.3-1.4-1.8-2.1
		c-1.2-1.9-1.9-4.4-1.9-7.4c0-4.4,1.4-7.7,4.1-10c2.7-2.3,6.4-3.5,11.1-3.5c2.6,0,4.6,0.3,6.1,1l0.8,0.3l12.1-0.3v3.8l-6.7,1
		c1.2,1.7,1.9,4,1.9,7c0,4.5-1.4,7.9-4.1,10.1C89.2,451.8,85.5,452.9,80.8,452.9z M84.2,464h-7.6c-0.2,0.1-0.7,0.4-1.3,0.9
		c-0.7,0.5-1.2,0.9-1.6,1.3c-1.1,1.2-1.6,2.5-1.6,4c0,2.3,0.9,3.8,2.7,4.6c1.8,0.8,4.5,1.2,8,1.2c6.9,0,10.3-2.2,10.3-6.6
		c0-2.1-0.7-3.6-2.2-4.3C89.4,464.4,87.2,464,84.2,464z M81.4,431.6c-5.3,0-7.9,2.8-7.9,8.3c0,2.5,0.6,4.5,1.9,6
		c1.3,1.5,3.2,2.2,5.6,2.2c2.8,0,4.8-0.7,6.1-2c1.3-1.3,1.9-3.4,1.9-6.3C89,434.3,86.5,431.6,81.4,431.6z"/>
	<path d="M105.3,446.3c0-2.9,0.4-5.6,1.3-8c0.9-2.4,2.1-4.5,3.6-6.2c1.6-1.7,3.4-3,5.6-3.9c2.1-0.9,4.5-1.4,7.1-1.4
		c5.2,0,9.2,1.6,12,4.9c2.9,3.3,4.3,7.8,4.3,13.6c0,2.9-0.4,5.5-1.2,7.8c-0.8,2.4-2,4.4-3.5,6.1c-1.5,1.7-3.3,3.1-5.5,4
		c-2.1,1-4.5,1.4-7.1,1.4c-5.2,0-9.3-1.6-12.2-4.7C106.7,456.9,105.3,452.3,105.3,446.3z M122.5,432.2c-6.7,0-10,4.5-10,13.5
		c0,9,3.2,13.5,9.7,13.5c3.4,0,5.8-1.1,7.3-3.4c1.5-2.3,2.3-5.8,2.3-10.3C131.8,436.6,128.7,432.2,122.5,432.2z"/>
	<path d="M144.6,446.3c0-2.9,0.4-5.6,1.3-8c0.9-2.4,2.1-4.5,3.6-6.2c1.6-1.7,3.4-3,5.6-3.9c2.1-0.9,4.5-1.4,7.1-1.4
		c5.2,0,9.2,1.6,12,4.9c2.9,3.3,4.3,7.8,4.3,13.6c0,2.9-0.4,5.5-1.2,7.8c-0.8,2.4-2,4.4-3.5,6.1c-1.5,1.7-3.3,3.1-5.5,4
		c-2.1,1-4.5,1.4-7.1,1.4c-5.2,0-9.3-1.6-12.2-4.7C146,456.9,144.6,452.3,144.6,446.3z M161.8,432.2c-6.7,0-10,4.5-10,13.5
		c0,9,3.2,13.5,9.7,13.5c3.4,0,5.8-1.1,7.3-3.4c1.5-2.3,2.3-5.8,2.3-10.3C171.1,436.6,168,432.2,161.8,432.2z"/>
	<path d="M216,410.9v47.6l5.9,1.4v3.8l-11.7,0.3l-0.6-3.9c-3.1,3.1-6.9,4.6-11.4,4.6c-4.5,0-7.9-1.6-10.3-4.8
		c-2.4-3.2-3.6-7.6-3.6-13.3c0-6,1.5-10.8,4.6-14.5c3.1-3.6,7.6-5.4,13.7-5.4c2.3,0,4.4,0.4,6.6,1.1v-11.5l-5.9-1.4v-3.8L216,410.9z
		 M209.1,454v-20.4c-1.6-0.9-4-1.4-7.2-1.4c-6.9,0-10.4,4.6-10.4,13.8c0,4,0.7,7.2,2.1,9.6c1.4,2.3,3.6,3.5,6.5,3.5
		c2.3,0,4.2-0.6,5.7-1.8C207.3,456.2,208.4,455,209.1,454z"/>
	<path d="M255.3,427.4v4.1l-5.2,0.7l5.9,25.5l9-30l6.6-1l8.6,31.1l5.5-25.2l-4.8-1v-3.8l15.5-0.3v4.1l-4,0.7L284,464H276l-6.6-21.4
		l-1.7-6.6l-1.4,6.6l-6.6,21.4h-7.9l-8.6-31.4l-3.4-1v-3.8L255.3,427.4z"/>
	<path d="M330.5,446.6l-23.8,0.1c0,3.8,0.9,6.8,2.7,9c1.8,2.3,4.2,3.4,7.3,3.4c1,0,2-0.1,3-0.3s2-0.4,2.9-0.7
		c0.9-0.3,1.7-0.6,2.4-0.9c0.7-0.3,1.4-0.7,1.9-1l1.4-0.9l2.4,3.6c-1.6,1.2-3,2.2-4.3,2.9c-1.3,0.7-2.9,1.4-4.6,1.9
		c-1.8,0.6-3.7,0.9-5.8,0.9c-5.4,0-9.5-1.6-12.3-4.9c-2.8-3.3-4.2-7.8-4.2-13.5c0-2.9,0.4-5.5,1.2-7.9c0.8-2.4,2-4.5,3.5-6.2
		c1.5-1.7,3.3-3.1,5.3-4s4.3-1.4,6.8-1.4c9.7,0,14.5,5.4,14.5,16.2L330.5,446.6z M307,441.6h16.6c0-2.8-0.6-5.1-1.8-6.8
		c-1.2-1.7-3.1-2.6-5.8-2.6c-2.6,0-4.7,0.9-6.3,2.7C308.1,436.5,307.2,438.8,307,441.6z"/>
	<path d="M345.7,410.9v19.9c3.4-2.7,6.8-4,10.4-4c4.9,0,8.5,1.6,10.9,4.8s3.6,7.7,3.6,13.5c0,2.9-0.4,5.5-1.2,7.9
		c-0.8,2.4-2,4.5-3.7,6.2c-1.6,1.8-3.6,3.1-5.9,4.1c-2.3,1-5.1,1.4-8.1,1.4c-2.3,0-4.5-0.2-6.3-0.3c-1.9-0.2-3.5-0.5-4.9-0.9
		l-1.5-0.5v-46.6l-5.5-1.4v-3.8L345.7,410.9z M345.7,458.5c1.1,0.5,3.5,0.7,7.2,0.7c1.8,0,3.4-0.3,4.7-1c1.3-0.7,2.4-1.6,3.2-2.9
		c0.9-1.2,1.5-2.7,1.9-4.3c0.4-1.7,0.6-3.5,0.6-5.5c0-4.1-0.7-7.4-2.1-9.7c-1.4-2.3-3.6-3.5-6.5-3.5c-2.3,0-4.2,0.4-5.6,1.3
		c-1.4,0.9-2.5,1.9-3.4,3.1V458.5z"/>
	<path d="M376.8,452.9h4.8l0.8,5.9c0.5,0.2,1.2,0.3,2.2,0.4s2,0.2,2.9,0.2c3,0,5.2-0.4,6.5-1.3c1.4-0.9,2-2.3,2-4.1
		c0-1.2-0.5-2.2-1.4-3c-0.9-0.7-2.1-1.4-3.6-1.9s-3-1-4.7-1.5s-3.2-1.2-4.7-2c-1.4-0.8-2.6-1.9-3.6-3.1c-0.9-1.3-1.4-3-1.4-5.1
		c0-3.4,1.1-6.1,3.5-7.9c2.3-1.8,5.4-2.8,9.2-2.9c1.6,0,3.3,0.2,4.9,0.4c1.7,0.2,3.4,0.6,5.1,1.1l1.7,0.6l-0.2,9.3h-4.5l-1.1-5.4
		c-0.4-0.1-1.1-0.3-2.1-0.5c-1.1-0.2-2.2-0.3-3.4-0.3c-0.8,0-1.6,0.1-2.3,0.2c-0.7,0.1-1.4,0.4-2,0.7c-0.6,0.3-1,0.8-1.4,1.4
		c-0.3,0.6-0.5,1.3-0.5,2.2c0,1.3,0.5,2.4,1.4,3.1c0.9,0.8,2.1,1.4,3.6,2c1.4,0.6,3,1.1,4.7,1.6c1.7,0.5,3.2,1.2,4.7,2
		c1.4,0.8,2.6,1.8,3.6,3.1c0.9,1.2,1.4,2.9,1.4,4.9c0,1.9-0.4,3.6-1.2,5.1c-0.8,1.5-1.9,2.7-3.3,3.7c-1.4,1-3,1.7-4.9,2.2
		s-3.9,0.7-6,0.7c-0.8,0-1.6,0-2.4-0.1c-0.9-0.1-1.7-0.2-2.5-0.3c-0.8-0.1-1.6-0.2-2.3-0.4c-0.7-0.1-1.3-0.3-1.8-0.4l-1.6-0.4
		L376.8,452.9z"/>
	<path d="M421.7,427.4v31l5.2,1.7v3.8h-17.9v-3.8l5.9-1.7v-25.5l-5.9-1.4v-3.8L421.7,427.4z M417.9,411.2c3,0,4.5,1.7,4.5,5.2
		c0,1.4-0.5,2.5-1.5,3.3s-2.1,1.2-3.2,1.2c-1.2,0-2.3-0.4-3-1.3s-1.2-2-1.2-3.6c0-1.5,0.4-2.7,1.3-3.6S416.6,411.2,417.9,411.2z"/>
	<path d="M444.5,417.7v10.1h10v5.2h-10v22.1c0,2.8,1.1,4.2,3.4,4.2c1.5,0,3.3-0.6,5.4-1.7l1.9,3.7c-3.1,2.3-6.3,3.5-9.7,3.5
		c-2.3,0-4.3-0.8-5.7-2.3c-1.5-1.5-2.2-4.1-2.2-7.7v-21.7h-6.9v-4.5l6.9-0.7v-8.7L444.5,417.7z"/>
	<path d="M490.3,446.6l-23.8,0.1c0,3.8,0.9,6.8,2.7,9c1.8,2.3,4.2,3.4,7.3,3.4c1,0,2-0.1,3-0.3c1-0.2,2-0.4,2.9-0.7
		c0.9-0.3,1.7-0.6,2.4-0.9c0.7-0.3,1.4-0.7,1.9-1l1.4-0.9l2.4,3.6c-1.6,1.2-3,2.2-4.3,2.9c-1.3,0.7-2.9,1.4-4.6,1.9
		c-1.8,0.6-3.7,0.9-5.8,0.9c-5.4,0-9.5-1.6-12.4-4.9c-2.8-3.3-4.2-7.8-4.2-13.5c0-2.9,0.4-5.5,1.2-7.9c0.8-2.4,2-4.5,3.5-6.2
		c1.5-1.7,3.3-3.1,5.3-4s4.3-1.4,6.8-1.4c9.7,0,14.5,5.4,14.5,16.2L490.3,446.6z M466.8,441.6h16.6c0-2.8-0.6-5.1-1.8-6.8
		c-1.2-1.7-3.1-2.6-5.8-2.6c-2.6,0-4.7,0.9-6.3,2.7C467.9,436.5,467,438.8,466.8,441.6z"/>
	<path d="M496.9,427.1c2.4-3.3,3.7-5.7,3.7-7.3c0-0.2-0.1-0.5-0.2-0.9c-0.1-0.3-0.3-0.8-0.6-1.3c-0.3-0.5-0.4-1-0.6-1.6
		s-0.2-1.1-0.2-1.7c0-1.1,0.4-2.1,1.2-3c0.8-0.9,1.9-1.3,3.2-1.3c3,0,4.5,1.7,4.5,5.1c0,4-2.6,8.9-7.9,14.5L496.9,427.1z
		 M510.3,427.1c2.4-3.3,3.7-5.7,3.7-7.3c0-0.2-0.1-0.5-0.2-0.9c-0.1-0.3-0.3-0.8-0.6-1.3c-0.3-0.5-0.4-1-0.6-1.6s-0.2-1.1-0.2-1.7
		c0-1.1,0.4-2.1,1.2-3c0.8-0.9,1.9-1.3,3.2-1.3c3,0,4.5,1.7,4.5,5.1c0,4-2.6,8.9-7.9,14.5L510.3,427.1z"/>
</g>
</svg>
