<svg xmlns="http://www.w3.org/2000/svg" xmlns:xlink="http://www.w3.org/1999/xlink" id="Layer_1" x="0" y="0" enable-background="new 0 0 600 250" version="1.1" viewBox="0 0 600 250" xml:space="preserve"><g><path d="M20.9,113.1v-8.3l7.8-2.4V57h-9.1l-2.4,9.1H8.5V46l55.4-0.3v20.4H55L52.6,57h-9.1v45.4l7.9,2.4v8.3L20.9,113.1L20.9,113.1z"/><path d="M97.5,104.8v8.3H68.7v-8.3l7.2-2.4V57l-7.2-2.9v-7.9l22-0.5H98c8,0,14.1,1.6,18.4,4.9c4.3,3.3,6.4,8.1,6.4,14.6 c0,8.5-3.6,14.5-10.8,18.1c1.6,1.8,2.9,3.9,4,6.2l6.4,13.1l6.5,2.2v8.3h-17.7l-8-17.7c-1.7-3.8-3.1-6.2-4.1-7.3 c-1-1-2.7-1.5-5.1-1.5h-3.3v15.8L97.5,104.8z M90.6,57v19.6H96c3.8,0,6.7-0.9,8.8-2.6c2.1-1.8,3.2-4.2,3.2-7.4 c0-2.9-0.9-5.2-2.6-6.9c-1.7-1.8-4-2.6-7-2.6h-7.8V57z"/><path d="M154.8,57v30.3c0,5.5,0.9,9.5,2.8,11.8c1.8,2.3,5.1,3.5,9.7,3.5c4.8,0,8.1-1.3,9.7-3.9c1.7-2.6,2.5-6.9,2.5-12.9V56.9 l-7.5-2.7v-8l29.4-0.5v8.4l-7.2,2.9v28.9c0,9.6-2.1,16.7-6.3,21.4s-11.3,7-21.2,7c-9.4,0-16.2-2.2-20.4-6.5S140,96.7,140,87.4V57.1 l-7.2-2.9v-8l29.4-0.5v8.4L154.8,57z"/><path d="M235.3,104.8v8.3h-27.2v-8.3l7.2-2.4V57l-7.2-2.9v-7.9l24.7-0.5l14.3,31.8l15-31.3l22.9-0.5v8.4l-6.9,2.9v45.4l7.2,2.4v8.3 h-28.5v-8.3l7.5-2.4V66.2c-1.1,3-2.5,6.1-4,9.3s-3.2,6.7-5.1,10.5s-3.3,6.8-4.3,8.9l-10.3,0.5l-11-22.6l-1.6-5v34.6L235.3,104.8z"/><path d="M321.5,104.8v8.3h-29.1v-8.3l7.2-2.4V57l-7.2-2.9v-7.9l22-0.5h9.1c7.3,0,12.9,1.8,17.1,5.4c4.1,3.6,6.2,8.5,6.2,14.7 c0,7.9-2.3,13.9-7,17.9s-11.4,6-20.2,6h-5.1v12.7L321.5,104.8z M314.3,57v21.5h5.1c4,0,7.1-0.9,9.2-2.8c2.1-1.8,3.2-4.5,3.2-8 c0-3.2-0.8-5.8-2.5-7.7c-1.7-2-4.1-3-7.3-3H314.3z"/><path d="M364,92.4l1.4,8c2.5,1.3,5.7,2,9.4,2c3.2,0,6-0.7,8.2-2.1c2.2-1.4,3.3-3.3,3.3-5.7c0-1.7-0.8-3.2-2.4-4.5s-3.6-2.3-6-3 s-5-1.6-7.8-2.8s-5.4-2.5-7.8-3.8c-2.4-1.4-4.4-3.4-6-6.1c-1.6-2.7-2.4-5.9-2.4-9.6c0-6.4,2.2-11.4,6.7-15 c4.5-3.5,10.3-5.3,17.5-5.3c3.2,0,6.5,0.3,10,1c3.5,0.6,6.2,1.3,8.1,1.9l2.9,1l-0.5,17.4h-8.8l-2.4-8.1c-2.9-1-5.7-1.4-8.4-1.4 c-3.2,0-5.8,0.6-7.5,1.9c-1.8,1.3-2.6,2.9-2.6,4.9c0,1.7,0.8,3.2,2.4,4.5s3.6,2.3,6,3s5,1.7,7.7,2.8c2.8,1.1,5.4,2.4,7.7,3.7 c2.4,1.3,4.4,3.3,6,5.9c1.6,2.6,2.4,5.7,2.4,9.2c0,6.9-2.4,12.4-7.2,16.3c-4.8,3.9-11,5.9-18.6,5.9c-3.2,0-6.6-0.3-10.1-0.9 c-3.6-0.6-6.3-1.2-8.3-1.9l-2.9-0.9V92.4L364,92.4L364,92.4z"/><path d="M412.5,105.7c0-2.6,0.8-4.7,2.4-6.3s3.6-2.3,5.8-2.3c2.6,0,4.6,0.7,6,2.2s2.1,3.6,2.1,6.4c0,2.7-0.8,4.8-2.4,6.4 c-1.6,1.6-3.5,2.3-5.8,2.3c-2.6,0-4.6-0.7-6-2.2C413.1,110.6,412.5,108.5,412.5,105.7z"/><path d="M468.1,104.8v8.3H439v-8.3l7.2-2.4V57l-7.2-2.9v-7.9l22-0.5h9.1c7.3,0,12.9,1.8,17.1,5.4c4.1,3.6,6.2,8.5,6.2,14.7 c0,7.9-2.3,13.9-7,17.9s-11.4,6-20.2,6h-5.1v12.7L468.1,104.8z M460.9,57v21.5h5.1c4,0,7.1-0.9,9.2-2.8c2.1-1.8,3.2-4.5,3.2-8 c0-3.2-0.8-5.8-2.5-7.7c-1.7-2-4.1-3-7.3-3H460.9z"/><path d="M517.7,113.1l-15.5-56.2l-6.7-2.8v-7.9l28.4-0.5v8.4l-7,2.9l8.2,34.6l13.4-45.1l12.9-0.8l12.8,45.8l9.2-34.5l-7.2-2.9v-7.9 l27.2-0.5v8.4l-6.9,2.9l-16.3,56.1h-13.6l-12.5-45.4c-1.5,6.2-4,15-7.5,26.4s-5.4,17.7-5.8,19H517.7z"/></g><g><path d="M23,180.6c0,0.9-0.3,1.7-0.9,2.4s-1.4,1.1-2.4,1.1c-1.6,0-2.4-0.8-2.4-2.4c0-1.6,0.8-3.4,2.3-5.4c1.3-1.7,2.5-3.1,3.6-4.1 l0.7-0.6l1.7,1.7c-2.1,2.4-3.1,4-3.1,4.8c0,0.3,0.1,0.7,0.3,1.2C22.9,179.8,23,180.2,23,180.6z M31.5,180.6c0,0.9-0.3,1.7-0.9,2.4 s-1.4,1.1-2.4,1.1c-1.6,0-2.4-0.8-2.4-2.4c0-1.6,0.8-3.4,2.3-5.4c1.3-1.7,2.5-3.1,3.6-4.1l0.7-0.6l1.7,1.7c-2.1,2.4-3.1,4-3.1,4.8 c0,0.3,0.1,0.7,0.3,1.2C31.4,179.8,31.5,180.2,31.5,180.6z"/><path d="M53.4,202.6l3.9,0.7l-0.4,2.4l-8.3,0.4l1.8-8.2c-1.2,2.4-2.5,4.3-4,5.8c-0.7,0.7-1.6,1.4-2.7,2c-1.1,0.6-2.2,0.9-3.3,0.9 c-1.7,0-3-0.7-4.2-2.2c-1.1-1.5-1.7-3.3-1.7-5.6c0-5.2,1.3-9.2,3.9-12.2s5.7-4.5,9.3-4.5c0.9,0,1.7,0.1,2.5,0.3 c0.8,0.2,1.5,0.4,1.9,0.6l0.6,0.4l1.3-0.9h2.4L53.4,202.6z M51,190.9l0.9-4.7c-1.1-0.4-2.5-0.7-4-0.7c-2.4,0-4.4,1.1-6.2,3.2 c-1.7,2.1-2.6,5.3-2.6,9.4c0,1.5,0.3,2.7,0.8,3.5c0.5,0.8,1.2,1.2,2.1,1.2c0.9,0,1.9-0.4,2.8-1.2c1-0.8,1.8-1.8,2.6-3 c1.5-2.5,2.6-4.7,3.2-6.5L51,190.9z"/><path d="M95.7,182.6l-4,24.6c-0.5,3.2-1.7,5.6-3.5,7.3c-1.8,1.7-4.2,2.5-7,2.5c-1.2,0-2.4-0.2-3.8-0.5c-1.4-0.3-2.4-0.6-3.2-0.9 l-1.2-0.4l1.1-3.2c2.6,0.9,4.8,1.4,6.7,1.4c3.6,0,5.9-2,6.7-5.9l2-9.5c-1.2,2.4-2.6,4.3-4,5.8c-0.7,0.7-1.6,1.4-2.7,2 c-1.1,0.6-2.2,0.9-3.3,0.9c-1.7,0-3-0.7-4.1-2.2c-1.1-1.5-1.6-3.3-1.6-5.6c0-5.2,1.3-9.2,3.9-12.2c2.6-3,5.7-4.5,9.2-4.5 c0.9,0,1.8,0.1,2.6,0.3c0.8,0.2,1.5,0.4,1.8,0.6l0.6,0.4l1.3-0.9H95.7z M90.1,190.9l0.8-4.7c-1.1-0.4-2.4-0.7-4-0.7 c-2.3,0-4.4,1.1-6.1,3.2c-1.7,2.1-2.6,5.3-2.6,9.4c0,1.6,0.2,2.8,0.7,3.6s1.2,1.2,2.1,1.2c0.9,0,1.9-0.4,2.9-1.2 c1-0.8,1.8-1.8,2.6-3c1.5-2.4,2.5-4.6,3.2-6.5L90.1,190.9z"/><path d="M118.1,182.6l-1.3,6.7h-2.9v-3.1c-0.9,0-1.8,0.4-2.7,1.2c-0.9,0.8-1.7,1.8-2.3,2.9c-1.3,2.4-2.3,4.5-2.8,6.3l-0.4,1.2 l-1.4,8.4H100l3.2-20l-3.8-0.9l0.4-2.4l8.2-0.2l-1.7,7.7c0.9-2.3,2.1-4.1,3.5-5.5c0.7-0.7,1.5-1.3,2.6-1.8c1.1-0.5,2.2-0.8,3.4-0.8 C116.5,182.2,117.3,182.3,118.1,182.6z"/><path d="M137.9,188c0,2.5-1.4,4.6-4.3,6.2c-2.9,1.6-6.6,2.4-11.3,2.4c-0.1,0.7-0.1,1.3-0.1,1.9c0,3.1,1.6,4.6,4.9,4.6 c0.9,0,2-0.2,3.2-0.5c1.2-0.3,2.2-0.7,2.9-1l1.1-0.5l1.3,2.3c-0.4,0.2-0.8,0.5-1.5,0.9c-0.6,0.4-1.8,0.9-3.6,1.5 c-1.7,0.6-3.4,0.9-4.9,0.9c-2.4,0-4.4-0.7-5.8-2.1c-1.5-1.4-2.2-3.3-2.2-5.6c0-4.7,1.3-8.6,3.8-11.9c2.5-3.2,5.5-4.8,9.1-4.8 c2.3,0,4,0.5,5.4,1.6C137.2,184.8,137.9,186.2,137.9,188z M122.7,193.4c3.2,0,5.8-0.5,7.9-1.4c2.1-0.9,3.1-2.1,3.1-3.6 c0-1.9-1.1-2.9-3.3-2.9c-1.6,0-3.2,0.7-4.6,2.2C124.2,189.2,123.2,191.1,122.7,193.4z"/><path d="M159.6,202.6l3.9,0.7l-0.4,2.4l-8.3,0.4l1.8-8.2c-1.2,2.4-2.5,4.3-4,5.8c-0.7,0.7-1.6,1.4-2.7,2c-1.1,0.6-2.2,0.9-3.3,0.9 c-1.7,0-3-0.7-4.2-2.2c-1.1-1.5-1.7-3.3-1.7-5.6c0-5.2,1.3-9.2,3.9-12.2s5.7-4.5,9.3-4.5c0.9,0,1.7,0.1,2.5,0.3 c0.8,0.2,1.5,0.4,1.9,0.6l0.6,0.4l1.3-0.9h2.4L159.6,202.6z M157.1,190.9l0.9-4.7c-1.1-0.4-2.5-0.7-4-0.7c-2.4,0-4.4,1.1-6.2,3.2 c-1.7,2.1-2.6,5.3-2.6,9.4c0,1.5,0.3,2.7,0.8,3.5c0.5,0.8,1.2,1.2,2.1,1.2c0.9,0,1.9-0.4,2.8-1.2c1-0.8,1.8-1.8,2.6-3 c1.5-2.5,2.6-4.7,3.2-6.5L157.1,190.9z"/><path d="M178.8,202.2l0.7,2.4c-2.2,1.4-4.2,2-5.8,2c-3,0-4.5-1.8-4.5-5.3c0-0.9,0.1-1.8,0.3-2.8l2-12.3H167l0.5-2.9l4.4-0.4 l0.9-5.6l4.4-0.9l-1.1,6.5h6.1l-0.5,3.3h-6.1l-1.9,11.9c-0.2,1.2-0.3,2.1-0.3,2.9s0.1,1.3,0.4,1.6c0.3,0.3,0.6,0.5,1.1,0.5 c0.9,0,2-0.2,3.2-0.7L178.8,202.2z"/><path d="M215.5,202.6l3.9,0.7l-0.4,2.4l-8.3,0.4l1.8-8.2c-1.2,2.4-2.5,4.3-4,5.8c-0.7,0.7-1.6,1.4-2.7,2c-1.1,0.6-2.2,0.9-3.3,0.9 c-1.7,0-3-0.7-4.2-2.2c-1.1-1.5-1.7-3.3-1.7-5.6c0-5.2,1.3-9.2,3.9-12.2s5.7-4.5,9.3-4.5c0.9,0,1.7,0.1,2.5,0.3 c0.8,0.2,1.5,0.4,1.9,0.6l0.6,0.4l1.3-0.9h2.4L215.5,202.6z M213.1,190.9l0.9-4.7c-1.1-0.4-2.5-0.7-4-0.7c-2.4,0-4.4,1.1-6.2,3.2 c-1.7,2.1-2.6,5.3-2.6,9.4c0,1.5,0.3,2.7,0.8,3.5c0.5,0.8,1.2,1.2,2.1,1.2c0.9,0,1.9-0.4,2.8-1.2c1-0.8,1.8-1.8,2.6-3 c1.5-2.5,2.6-4.7,3.2-6.5L213.1,190.9z"/><path d="M238.6,206.2l2.5-15.3c0.1-0.9,0.2-1.5,0.2-2c0-2-0.8-2.9-2.3-2.9c-1.1,0-2.1,0.4-3.2,1.3c-1.1,0.8-1.9,1.9-2.6,3 c-1.5,2.5-2.6,4.7-3.3,6.7l-0.4,1.2l-1.3,8H224l3.2-20l-3.7-0.9l0.4-2.4l8.1-0.2l-2,8.6c0.4-1,1.1-2,1.8-3.2 c0.8-1.2,1.6-2.1,2.3-2.9s1.7-1.4,2.9-2.1c1.2-0.6,2.4-0.9,3.7-0.9c3.3,0,4.9,1.8,4.9,5.5c0,0.7-0.1,1.6-0.2,2.5l-2,12.5l3.8,0.7 l-0.4,2.4L238.6,206.2z"/><path d="M270.4,202.6l3.8,0.7l-0.4,2.4l-8.1,0.4l2-8.2c-0.9,2.1-2.2,4-3.9,5.8c-0.7,0.7-1.7,1.4-2.7,2c-1.1,0.6-2.2,0.9-3.3,0.9 c-1.7,0-3.1-0.7-4.2-2.2c-1.1-1.5-1.6-3.3-1.6-5.6c0-5.1,1.3-9.2,3.9-12.2c2.6-3,5.7-4.5,9.3-4.5c1.6,0,3,0.3,4.3,1l1.2-7.6 l-3.8-0.9l0.4-2.4l8.2-0.2L270.4,202.6z M268.1,190.9l0.7-4.7c-1-0.4-2.3-0.7-3.8-0.7c-2.5,0-4.6,1.2-6.3,3.5 c-1.6,2.4-2.4,5.3-2.4,8.9c0,1.6,0.2,2.8,0.7,3.6c0.5,0.8,1.2,1.3,2.1,1.3c0.9,0,1.9-0.4,2.9-1.2c1-0.8,1.8-1.8,2.5-3 c1.4-2.4,2.5-4.6,3.1-6.5L268.1,190.9z"/><path d="M312.7,182.6l-4,24.6c-0.5,3.2-1.7,5.6-3.5,7.3c-1.8,1.7-4.2,2.5-7,2.5c-1.2,0-2.4-0.2-3.8-0.5c-1.4-0.3-2.4-0.6-3.2-0.9 l-1.2-0.4l1.1-3.2c2.6,0.9,4.8,1.4,6.7,1.4c3.6,0,5.9-2,6.7-5.9l2-9.5c-1.2,2.4-2.6,4.3-4,5.8c-0.7,0.7-1.6,1.4-2.7,2 c-1.1,0.6-2.2,0.9-3.3,0.9c-1.7,0-3-0.7-4.1-2.2c-1.1-1.5-1.6-3.3-1.6-5.6c0-5.2,1.3-9.2,3.9-12.2c2.6-3,5.7-4.5,9.2-4.5 c0.9,0,1.8,0.1,2.6,0.3c0.8,0.2,1.5,0.4,1.8,0.6l0.6,0.4l1.3-0.9H312.7z M307.1,190.9l0.8-4.7c-1.1-0.4-2.4-0.7-4-0.7 c-2.3,0-4.4,1.1-6.1,3.2c-1.7,2.1-2.6,5.3-2.6,9.4c0,1.6,0.2,2.8,0.7,3.6s1.2,1.2,2.1,1.2c0.9,0,1.9-0.4,2.9-1.2 c1-0.8,1.8-1.8,2.6-3c1.5-2.4,2.5-4.6,3.2-6.5L307.1,190.9z"/><path d="M323.8,206.6c-2.4,0-4.4-0.8-5.8-2.3c-1.5-1.5-2.2-3.6-2.2-6.1c0-4.7,1.2-8.6,3.7-11.6c2.5-3,5.7-4.4,9.6-4.4 c2.5,0,4.6,0.8,6,2.3c1.5,1.5,2.2,3.5,2.2,6c0,4.9-1.3,8.8-3.8,11.7C331,205.2,327.8,206.6,323.8,206.6z M330.7,199.7 c1.5-2.3,2.2-5.2,2.2-8.7c0-3.5-1.6-5.3-4.7-5.3c-2.5,0-4.4,1.2-5.8,3.6c-1.4,2.4-2.2,5.3-2.2,8.6c0,1.7,0.4,3,1.2,3.8 c0.8,0.8,1.9,1.3,3.3,1.3C327.2,203.1,329.2,202,330.7,199.7z"/><path d="M349.2,206.6c-2.4,0-4.4-0.8-5.8-2.3c-1.5-1.5-2.2-3.6-2.2-6.1c0-4.7,1.2-8.6,3.7-11.6c2.5-3,5.7-4.4,9.6-4.4 c2.5,0,4.6,0.8,6,2.3c1.5,1.5,2.2,3.5,2.2,6c0,4.9-1.3,8.8-3.8,11.7C356.4,205.2,353.1,206.6,349.2,206.6z M356,199.7 c1.5-2.3,2.2-5.2,2.2-8.7c0-3.5-1.6-5.3-4.7-5.3c-2.5,0-4.4,1.2-5.8,3.6c-1.4,2.4-2.2,5.3-2.2,8.6c0,1.7,0.4,3,1.2,3.8 c0.8,0.8,1.9,1.3,3.3,1.3C352.5,203.1,354.5,202,356,199.7z"/><path d="M385.7,202.6l3.8,0.7l-0.4,2.4l-8.1,0.4l2-8.2c-0.9,2.1-2.2,4-3.9,5.8c-0.7,0.7-1.7,1.4-2.7,2c-1.1,0.6-2.2,0.9-3.3,0.9 c-1.7,0-3.1-0.7-4.2-2.2c-1.1-1.5-1.6-3.3-1.6-5.6c0-5.1,1.3-9.2,3.9-12.2c2.6-3,5.7-4.5,9.3-4.5c1.6,0,3,0.3,4.3,1l1.2-7.6 l-3.8-0.9l0.4-2.4l8.2-0.2L385.7,202.6z M383.4,190.9l0.7-4.7c-1-0.4-2.3-0.7-3.8-0.7c-2.5,0-4.6,1.2-6.3,3.5 c-1.6,2.4-2.4,5.3-2.4,8.9c0,1.6,0.2,2.8,0.7,3.6c0.5,0.8,1.2,1.3,2.1,1.3s1.9-0.4,2.9-1.2c1-0.8,1.8-1.8,2.5-3 c1.4-2.4,2.5-4.6,3.1-6.5L383.4,190.9z"/><path d="M440.7,185.3l-2.2,0.5l-8.9,20.4h-5.1l-2-15.1l-0.6,2.2l-5,12.9h-5l-3.2-20.2l-3.3-0.7l0.4-2.4l7.2-0.2l2.2,19.3l7.2-19.1 l3.2-0.2l2.3,19.3l6.5-15.8l-3.9-0.8l0.4-2.4l10.3-0.2L440.7,185.3z"/><path d="M461.1,188c0,2.5-1.4,4.6-4.3,6.2c-2.9,1.6-6.6,2.4-11.3,2.4c-0.1,0.7-0.1,1.3-0.1,1.9c0,3.1,1.6,4.6,4.9,4.6 c0.9,0,2-0.2,3.2-0.5c1.2-0.3,2.2-0.7,2.9-1l1.1-0.5l1.3,2.3c-0.4,0.2-0.8,0.5-1.5,0.9c-0.6,0.4-1.8,0.9-3.6,1.5 c-1.8,0.6-3.4,0.9-4.9,0.9c-2.4,0-4.4-0.7-5.8-2.1c-1.5-1.4-2.2-3.3-2.2-5.6c0-4.7,1.3-8.6,3.8-11.9c2.5-3.2,5.5-4.8,9.1-4.8 c2.3,0,4,0.5,5.4,1.6C460.5,184.8,461.1,186.2,461.1,188z M445.9,193.4c3.2,0,5.8-0.5,7.9-1.4c2.1-0.9,3.1-2.1,3.1-3.6 c0-1.9-1.1-2.9-3.3-2.9c-1.6,0-3.2,0.7-4.6,2.2C447.5,189.2,446.5,191.1,445.9,193.4z"/><path d="M474.1,172l-1.7,10.7l-1.8,8.2c0.3-0.8,0.8-1.8,1.5-2.9c0.7-1.1,1.4-2.1,2.2-2.8c0.7-0.8,1.6-1.4,2.7-2 c1.1-0.6,2.2-0.9,3.4-0.9c1.9,0,3.4,0.8,4.4,2.3c1,1.5,1.6,3.4,1.6,5.7c0,4.9-1.4,8.9-4.1,11.9c-2.7,3-5.9,4.6-9.6,4.6 c-2.5,0-4.8-0.3-7-1l-1.1-0.4l4.8-29.8l-3.7-0.9l0.4-2.4L474.1,172z M470.2,198l-0.9,4.7c1.2,0.4,2.4,0.7,3.7,0.7 c2.2,0,4.2-1.1,6.1-3.3c1.9-2.2,2.8-5.2,2.8-9.2c0-1.4-0.3-2.6-0.8-3.5c-0.5-0.9-1.3-1.4-2.3-1.4s-2,0.4-3,1.2 c-1,0.8-1.8,1.8-2.4,3c-1.3,2.4-2.3,4.6-2.8,6.5L470.2,198z"/><path d="M493.2,199.1l0,3.8c0.9,0.4,2,0.5,3.4,0.5c1.4,0,2.6-0.3,3.4-0.9c0.9-0.6,1.3-1.4,1.3-2.4c0-1-0.3-1.8-1-2.4 c-0.7-0.6-1.5-1.1-2.4-1.6c-1-0.4-1.9-0.9-2.9-1.5c-1-0.5-1.8-1.3-2.4-2.2c-0.7-0.9-1-2-1-3.2c0-2.3,0.8-4.1,2.5-5.3 c1.7-1.2,3.8-1.8,6.4-1.8c2,0,3.9,0.3,5.6,0.8l0.9,0.3l-1.1,6h-2.9l-0.3-3.5c-0.7-0.3-1.6-0.4-2.9-0.4c-1.3,0-2.3,0.3-3.1,0.8 c-0.8,0.5-1.2,1.3-1.2,2.2c0,0.9,0.3,1.7,1,2.4c0.7,0.6,1.5,1.2,2.5,1.7s2,1,3,1.5s1.8,1.2,2.5,2.1c0.7,0.9,1,1.9,1,3 c0,2.3-0.9,4.2-2.7,5.5c-1.8,1.4-4.2,2-7.3,2c-2.2,0-4.2-0.3-5.8-0.8l-0.9-0.3l1.1-6.4H493.2z"/><path d="M512,206.2l3.2-20l-3.8-0.9l0.4-2.4l8.1-0.2l-3.2,20l3.8,0.7l-0.4,2.4L512,206.2z M521.3,174.7c0,0.9-0.3,1.7-0.8,2.5 c-0.5,0.8-1.3,1.2-2.1,1.2s-1.5-0.2-2-0.6c-0.4-0.4-0.7-1.1-0.7-2c0-0.9,0.3-1.7,0.8-2.5c0.5-0.8,1.3-1.2,2.1-1.2 c0.9,0,1.5,0.2,2,0.6C521.1,173.2,521.3,173.8,521.3,174.7z"/><path d="M537.1,202.2l0.7,2.4c-2.2,1.4-4.2,2-5.8,2c-3,0-4.5-1.8-4.5-5.3c0-0.9,0.1-1.8,0.3-2.8l2-12.3h-4.4l0.5-2.9l4.4-0.4 l0.9-5.6l4.4-0.9l-1.1,6.5h6.1l-0.5,3.3H534l-1.9,11.9c-0.2,1.2-0.3,2.1-0.3,2.9s0.1,1.3,0.4,1.6c0.3,0.3,0.6,0.5,1.1,0.5 c0.9,0,2-0.2,3.2-0.7L537.1,202.2z"/><path d="M561.3,188c0,2.5-1.4,4.6-4.3,6.2c-2.9,1.6-6.6,2.4-11.3,2.4c-0.1,0.7-0.1,1.3-0.1,1.9c0,3.1,1.6,4.6,4.9,4.6 c0.9,0,2-0.2,3.2-0.5c1.2-0.3,2.2-0.7,2.9-1l1.1-0.5l1.3,2.3c-0.4,0.2-0.8,0.5-1.5,0.9c-0.6,0.4-1.8,0.9-3.6,1.5 c-1.8,0.6-3.4,0.9-4.9,0.9c-2.4,0-4.4-0.7-5.8-2.1c-1.5-1.4-2.2-3.3-2.2-5.6c0-4.7,1.3-8.6,3.8-11.9c2.5-3.2,5.5-4.8,9.1-4.8 c2.3,0,4,0.5,5.4,1.6C560.6,184.8,561.3,186.2,561.3,188z M546.1,193.4c3.2,0,5.8-0.5,7.9-1.4c2.1-0.9,3.1-2.1,3.1-3.6 c0-1.9-1.1-2.9-3.3-2.9c-1.6,0-3.2,0.7-4.6,2.2C547.6,189.2,546.6,191.1,546.1,193.4z"/><path d="M568,175c0-0.9,0.3-1.7,0.9-2.4c0.6-0.7,1.4-1.1,2.4-1.1c1.6,0,2.4,0.8,2.4,2.4c0,1.6-0.8,3.4-2.3,5.4 c-1.3,1.7-2.5,3.1-3.6,4.1l-0.7,0.6l-1.7-1.7c2.1-2.4,3.1-4,3.1-4.8c0-0.3-0.1-0.7-0.3-1.2C568.1,175.9,568,175.4,568,175z M576.5,175c0-0.9,0.3-1.7,0.9-2.4c0.6-0.7,1.4-1.1,2.4-1.1c1.6,0,2.4,0.8,2.4,2.4c0,1.6-0.8,3.4-2.3,5.4c-1.3,1.7-2.5,3.1-3.6,4.1 l-0.7,0.6l-1.7-1.7c2.1-2.4,3.1-4,3.1-4.8c0-0.3-0.1-0.7-0.3-1.2C576.6,175.9,576.5,175.4,576.5,175z"/></g></svg>