<?xml version="1.0" encoding="utf-8"?>
<!-- Generator: Adobe Illustrator 22.1.0, SVG Export Plug-In . SVG Version: 6.00 Build 0)  -->
<svg version="1.1" id="Layer_1" xmlns="http://www.w3.org/2000/svg" xmlns:xlink="http://www.w3.org/1999/xlink" x="0px" y="0px"
	 viewBox="0 0 320 320" style="enable-background:new 0 0 320 320;" xml:space="preserve">
<style type="text/css">
	.st0{fill:#444545;}
</style>
<g>
	<path class="st0" d="M224.7,165.2c-0.3-7.6-0.2-15.2-0.1-22.6c0-3.3,0.1-6.6,0.1-9.9l0-8.6v-2.4c0-9.2,0-18.7,0.1-28.1
		c-11.7-2.9-23.5-5.8-35-8.7c-9.3-2.3-19-4.8-28.5-7.1c-0.7-0.2-1.6-0.2-2.2,0c-9.3,2.3-18.8,4.7-28,7c-11.7,2.9-23.7,5.9-35.6,8.8
		l0,7.9c0.1,21.2,0.2,43.1-0.1,64.7c-0.2,15.1,4.5,28.3,14.3,40.2c12.1,14.6,28.1,26.1,50.3,36c18.9-8.3,34-18.4,45.9-30.9
		C219.2,197.5,225.3,182.4,224.7,165.2z M202.2,134.5c-5.7,7.4-11.5,14.7-17.2,22.1c-9.3,12-18.6,24-27.9,36
		c-5.2,6.7-9.5,6.7-14.5-0.2c-8.2-11.3-16.5-22.6-24.7-33.9c-2.8-3.8-2.8-7.8,0-10.3c2.8-2.6,6.8-2.3,10.3,0.7
		c6.1,5.2,12.1,10.5,18.1,15.8c1,0.8,2,1.6,4,3.2c0.8-1.3,1.3-2.6,2.2-3.5c12.7-12.8,25.5-25.6,38.3-38.3c1.4-1.4,3.2-2.7,5-3.2
		c3-0.8,5.7,0.4,7.3,3.2C204.8,129.1,204.2,131.9,202.2,134.5z"/>
	<path class="st0" d="M267.9,164.7L267.9,164.7c-0.2-4.6-0.2-9.4-0.2-14.1h0.2l0-35.5c0-11.6,0-23.6,0.1-35.3
		c0.2-14.3-8-24.9-21.8-28.2c-13.5-3.3-27.2-6.7-40.4-10l-5.9-1.5c-10-2.5-20.4-5.1-30.6-7.6c-5.9-1.4-12.3-1.5-18.1,0
		c-11.2,2.8-22.4,5.5-32.8,8.2c-12.9,3.2-28.9,7.2-44.2,10.9c-13.8,3.3-22,14-22,28.5l0.1,12.6c0.1,24.3,0.3,49.4-0.1,74
		c-0.4,25.3,7.8,48.1,24.1,68c17.7,21.4,40.6,37.8,72.1,51.6c3.5,1.5,7.5,2.3,11.5,2.3c4.2,0,8.3-0.8,12-2.4
		c26.6-11.5,47.9-25.8,65.1-43.8C258.6,219.7,269,193.6,267.9,164.7z M218.8,226.2L218.8,226.2c-15.3,16-34.6,29.1-58.8,39.8
		c-28.5-12.8-49.1-27.6-64.6-46.4c-12.6-15.3-18.6-32.2-18.4-51.5c0.4-28.7,0.3-57.9,0.1-86.1l0-8c15-3.7,30.1-7.4,44.8-11.1
		c12.2-3.1,24.9-6.2,37.4-9.3c0.3-0.1,1-0.1,1.5,0c12.4,3,24.9,6.2,37.1,9.2c14.7,3.7,29.8,7.5,44.9,11.2c-0.1,11.7-0.1,23.4,0,34.8
		c0,0.2,0,0.4,0,0.6l0,14.2c0,4.4,0,8.8-0.1,13.2c-0.1,9.8-0.2,19.9,0.2,30C243.7,188.9,235.8,208.3,218.8,226.2z"/>
</g>
</svg>
