<?xml version="1.0" encoding="UTF-8"?>
<svg width="1200pt" height="1200pt" version="1.1" viewBox="0 0 1200 1200" xmlns="http://www.w3.org/2000/svg">
 <g>
  <path d="m533.85 935.36h132.09c8.6211 0 16.586-4.5977 20.898-12.066 4.3086-7.4648 4.3086-16.664 0-24.133-4.3125-7.4648-12.277-12.066-20.898-12.066h-132.09c-8.6211 0-16.586 4.6016-20.898 12.066-4.3086 7.4688-4.3086 16.668 0 24.133 4.3125 7.4688 12.277 12.066 20.898 12.066zm0-27.941h132.09c2.1016 0 3.8086 1.707 3.8086 3.8086 0 2.1055-1.707 3.8125-3.8086 3.8125h-132.09c-2.1016 0-3.8086-1.707-3.8086-3.8125 0-2.1016 1.707-3.8086 3.8086-3.8086z"/>
  <path d="m598.98 308.03c6.6016 0 12.934-2.6211 17.602-7.293 4.668-4.668 7.293-11 7.293-17.602 0-6.6016-2.625-12.934-7.293-17.602-4.668-4.668-11-7.293-17.602-7.293s-12.934 2.625-17.602 7.293c-4.6719 4.668-7.293 11-7.293 17.602 0.011718 6.5977 2.6406 12.922 7.3047 17.59 4.668 4.6641 10.992 7.2891 17.59 7.3047zm0-29.414c2.3242 0.24609 4.0898 2.207 4.0898 4.5469 0 2.3359-1.7656 4.3008-4.0898 4.5469-1.2891 0.13672-2.5781-0.28125-3.5391-1.1484-0.96484-0.86719-1.5156-2.1055-1.5156-3.3984 0-1.2969 0.55078-2.5352 1.5156-3.4023 0.96094-0.86719 2.25-1.2812 3.5391-1.1445z"/>
  <path d="m827.55 435.04c-6.5898 0-12.91 2.6172-17.57 7.2773-4.6562 4.6562-7.2734 10.977-7.2734 17.566 0 6.5859 2.6172 12.906 7.2734 17.566 4.6602 4.6562 10.98 7.2773 17.57 7.2773 6.5859 0 12.906-2.6211 17.566-7.2773 4.6562-4.6602 7.2734-10.98 7.2734-17.566 0-6.5898-2.6172-12.91-7.2734-17.566-4.6602-4.6602-10.98-7.2773-17.566-7.2773zm0 29.363c-1.832 0-3.4805-1.1016-4.1797-2.7891-0.69922-1.6914-0.3125-3.6367 0.98047-4.9297 1.293-1.293 3.2383-1.6797 4.9297-0.98047 1.6875 0.69922 2.7891 2.3477 2.7891 4.1797 0 2.4961-2.0234 4.5195-4.5195 4.5195z"/>
  <path d="m907.42 435.04c-6.5898 0-12.91 2.6172-17.566 7.2773-4.6602 4.6562-7.2773 10.977-7.2773 17.566 0 6.5859 2.6172 12.906 7.2773 17.566 4.6562 4.6562 10.977 7.2773 17.566 7.2773 6.5898 0 12.906-2.6211 17.566-7.2773 4.6602-4.6602 7.2773-10.98 7.2773-17.566 0-6.5898-2.6172-12.91-7.2773-17.566-4.6602-4.6602-10.977-7.2773-17.566-7.2773zm0 29.363c-1.8281 0-3.4766-1.1016-4.1797-2.7891-0.69922-1.6914-0.3125-3.6367 0.98047-4.9297 1.293-1.293 3.2383-1.6797 4.9297-0.98047 1.6875 0.69922 2.7891 2.3477 2.7891 4.1797 0 2.4961-2.0234 4.5195-4.5195 4.5195z"/>
  <path d="m987.28 435.04c-6.5898 0-12.906 2.6172-17.566 7.2773-4.6602 4.6562-7.2773 10.977-7.2773 17.566 0 6.5859 2.6172 12.906 7.2773 17.566 4.6602 4.6562 10.977 7.2773 17.566 7.2773s12.91-2.6211 17.566-7.2773c4.6602-4.6602 7.2773-10.98 7.2773-17.566 0-6.5898-2.6172-12.91-7.2773-17.566-4.6562-4.6602-10.977-7.2773-17.566-7.2773zm0 29.363c-1.8281 0-3.4766-1.1016-4.1758-2.7891-0.69922-1.6914-0.3125-3.6367 0.98047-4.9297 1.293-1.293 3.2383-1.6797 4.9258-0.98047 1.6914 0.69922 2.793 2.3477 2.793 4.1797 0 2.4961-2.0273 4.5195-4.5234 4.5195z"/>
  <path d="m1097.9 846v-296.8c18.875-25.977 29.16-57.203 29.418-89.312-0.30469-32.023-10.586-63.156-29.418-89.062v-77.578c-0.027344-18.492-7.3828-36.219-20.461-49.293-13.074-13.074-30.801-20.434-49.293-20.461h-858.59c-18.465 0.066407-36.152 7.4414-49.195 20.516-13.043 13.07-20.379 30.773-20.406 49.238v552.75l-99.984 0.003906v68.941c0.027344 16.32 6.5234 31.969 18.066 43.508 11.539 11.543 27.188 18.039 43.508 18.066h1077.1c16.285-0.082031 31.879-6.6016 43.379-18.137 11.496-11.535 17.965-27.152 17.992-43.438v-68.941zm-415.58-344.3-56.344 46.484c-3.3789 2.8242-4.5547 7.5039-2.9102 11.59 1.6406 4.0859 5.7305 6.6484 10.125 6.3438l80.625-6.0977 2.1328 2.5898c42.066 49.18 111.77 78.492 185.84 78.492v0.003906c15.867-0.007812 31.707-1.3516 47.352-4.0156v175.23h-281.96c-0.45703-87.992-57.562-162.07-135.24-184.57 24.965-14.492 42.246-39.277 47.215-67.715 4.9648-28.434-2.8906-57.613-21.465-79.711-18.57-22.098-45.961-34.855-74.828-34.855-28.863 0-56.254 12.758-74.828 34.855-18.57 22.098-26.426 51.277-21.461 79.711 4.9688 28.438 22.25 53.223 47.215 67.715-77.578 22.508-134.79 96.582-135.24 184.57h-49.637v-433.87h451.7c-15.57 24.27-23.941 52.453-24.133 81.289-0.050781 14.191 1.918 28.32 5.8438 41.965zm-35.562 310.62h-327.89c0.55859-94.496 73.922-171.21 164-171.21 90.078 0 163.44 76.715 164 171.21zm-163.9-191.54c-20.562 0.015625-40.293-8.1484-54.832-22.691-14.543-14.543-22.707-34.27-22.695-54.836 0.015624-20.562 8.2031-40.281 22.766-54.805 14.562-14.523 34.301-22.66 54.863-22.621 20.566 0.042969 40.273 8.2578 54.777 22.836 14.504 14.582 22.617 34.332 22.547 54.895-0.078124 20.492-8.2695 40.117-22.777 54.59-14.508 14.469-34.156 22.609-54.648 22.633zm232.43-262.66h-486.7v474.51h740.88v-199.86c4.6758-1.168 9.2969-2.5391 13.82-3.9609v217.19h-768.72v-501.24h513.12c-4.3711 4.3203-8.4844 8.7891-12.398 13.363zm288.32 263.37c27.613-11.023 52.758-27.43 73.973-48.266v272.77h-73.973zm-101.61-0.71094c-68.434 0-132.09-26.672-170.25-71.125l-5.2812-6.5586c-1.9258-2.3711-4.8203-3.7539-7.875-3.7578h-0.76172l-53.953 4.0625 36.934-30.484v0.003906c3.2852-2.6992 4.543-7.1602 3.1484-11.176-4.6602-13.504-7.0469-27.684-7.0625-41.965 0-88.754 92.008-160.95 205.15-160.95s204.95 72.293 204.95 161.05c0 88.754-92.059 160.89-205.2 160.89zm-781.73-327.54c0.011718-13.105 5.2266-25.672 14.492-34.938 9.2695-9.2695 21.836-14.48 34.941-14.496h858.59c13.109 0 25.684 5.2109 34.953 14.48 9.2695 9.2695 14.48 21.844 14.48 34.953v53.293c-41.355-41.355-104.76-67.926-175.79-67.926v0.003906c-53.418-0.60938-105.71 15.367-149.67 45.723h-558.04v521.66h-73.973zm1059.4 621.7c-0.015626 10.938-4.3672 21.422-12.098 29.156-7.7344 7.7305-18.219 12.082-29.156 12.098h-1077.1c-10.902-0.070312-21.336-4.4414-29.023-12.172-7.6914-7.7266-12.012-18.18-12.027-29.082v-48.621h1159.4z"/>
 </g>
</svg>
