<?xml version="1.0" standalone="no"?>
<!DOCTYPE svg PUBLIC "-//W3C//DTD SVG 20010904//EN"
 "http://www.w3.org/TR/2001/REC-SVG-20010904/DTD/svg10.dtd">
<svg version="1.0" xmlns="http://www.w3.org/2000/svg"
 width="600.000000pt" height="600.000000pt" viewBox="0 0 600.000000 600.000000"
 preserveAspectRatio="xMidYMid meet">
<metadata>
Created by potrace 1.14, written by Peter Selinger 2001-2017
</metadata>
<g transform="translate(0.000000,600.000000) scale(0.100000,-0.100000)"
fill="#000000" stroke="none">
<path d="M4829 5009 l-24 -20 28 17 c15 9 27 18 27 20 0 8 -8 4 -31 -17z"/>
<path d="M5027 4960 c127 -194 244 -493 289 -740 3 -14 9 -50 15 -80 23 -130
31 -360 16 -481 -30 -251 -191 -606 -400 -883 -119 -158 -305 -352 -447 -466
-100 -81 -303 -211 -425 -273 -139 -71 -283 -137 -299 -137 -6 0 -20 -6 -31
-13 -33 -21 -370 -142 -465 -167 -19 -5 -93 -25 -165 -44 -71 -20 -131 -36
-133 -35 -1 0 -26 -5 -55 -10 -75 -16 -98 -21 -132 -26 -16 -3 -41 -7 -55 -10
-14 -3 -47 -7 -75 -11 -27 -3 -61 -7 -75 -9 -154 -25 -532 -25 -720 -1 -14 2
-50 6 -80 10 -81 11 -270 54 -374 86 -250 77 -485 192 -719 351 -96 65 -101
67 -124 52 -17 -11 -22 -21 -17 -37 11 -37 75 -150 109 -191 214 -260 680
-593 1000 -714 33 -13 69 -27 80 -31 52 -23 293 -90 370 -104 33 -6 122 -22
175 -32 91 -16 292 -29 445 -28 122 0 354 12 365 19 3 1 32 6 65 10 33 3 89
13 125 20 37 8 77 16 90 19 265 50 680 229 930 400 402 275 729 692 978 1246
69 154 156 464 186 670 3 19 7 44 10 55 7 37 19 239 19 330 0 449 -160 897
-438 1231 -86 103 -93 107 -38 24z"/>
<path d="M4730 4948 c-148 -95 -451 -299 -685 -463 -137 -97 -290 -203 -340
-237 -49 -34 -132 -91 -182 -127 -51 -36 -122 -86 -158 -111 -36 -25 -110 -76
-164 -115 -55 -38 -177 -124 -272 -190 -95 -66 -209 -145 -253 -176 -193 -134
-1172 -816 -1289 -896 -70 -48 -205 -142 -300 -208 -94 -66 -213 -147 -264
-180 -50 -33 -92 -63 -92 -67 -1 -8 130 74 236 149 120 83 824 571 1303 902
107 74 218 151 246 170 28 20 94 65 145 100 52 36 189 130 304 210 116 80 236
164 268 186 32 22 100 69 151 105 198 138 386 268 519 360 450 310 875 607
892 622 20 18 -3 6 -65 -34z"/>
<path d="M4500 4657 c-25 -18 -81 -58 -125 -88 -44 -31 -156 -109 -250 -175
-93 -65 -181 -127 -195 -136 -20 -13 -341 -239 -407 -286 -38 -27 -272 -190
-348 -243 -44 -31 -136 -95 -205 -144 -148 -104 -535 -374 -669 -466 -51 -35
-128 -88 -170 -117 -42 -29 -119 -82 -171 -118 -52 -36 -133 -92 -180 -125
-47 -33 -128 -89 -180 -125 -52 -36 -162 -112 -245 -169 -82 -57 -189 -130
-237 -162 -48 -32 -87 -61 -88 -65 0 -10 135 -90 225 -132 76 -36 273 -114
305 -121 8 -2 44 -13 80 -24 87 -27 273 -68 346 -76 32 -4 61 -9 64 -10 7 -4
115 -16 185 -21 67 -4 354 -4 385 0 14 2 57 7 95 10 182 18 477 91 685 168
257 96 577 279 800 460 349 281 593 682 717 1176 39 155 39 303 0 421 -32 94
-113 257 -177 352 -36 53 -188 250 -193 249 -1 0 -22 -15 -47 -33z m368 -559
c12 -33 21 -63 19 -65 -3 -2 -62 -19 -133 -38 -71 -19 -145 -39 -164 -45 -19
-6 -84 -23 -145 -39 -60 -16 -146 -39 -190 -51 -44 -12 -127 -35 -185 -50 -58
-16 -132 -36 -165 -45 -33 -9 -91 -24 -130 -35 -287 -75 -581 -154 -635 -171
-36 -11 -74 -21 -85 -23 -11 -2 -33 -7 -50 -11 -70 -18 -7 7 190 75 116 40
269 92 340 115 72 24 229 78 350 120 121 42 319 110 440 152 121 41 283 97
360 123 77 27 145 49 151 49 5 1 20 -27 32 -61z m-1901 -584 c-3 -3 -12 -4
-19 -1 -8 3 -5 6 6 6 11 1 17 -2 13 -5z m-105 -174 c13 -5 138 -46 278 -90
140 -45 266 -85 280 -90 14 -5 147 -48 295 -95 149 -48 360 -116 470 -152 110
-35 216 -69 235 -75 51 -15 52 -16 26 -46 -13 -15 -35 -40 -48 -56 l-25 -29
-189 77 c-104 43 -202 84 -219 91 -16 8 -120 50 -230 95 -216 89 -293 120
-485 200 -69 29 -159 66 -200 82 -41 16 -88 35 -105 43 -16 7 -52 22 -80 33
-27 12 -45 21 -38 22 7 0 22 -4 35 -10z m-218 -133 c5 -34 36 -202 61 -327 3
-14 23 -122 45 -240 22 -118 45 -235 50 -260 9 -44 68 -351 76 -400 3 -14 7
-33 10 -42 5 -17 0 -19 -136 -33 -49 -5 -56 -4 -56 12 -2 58 -16 324 -19 353
-1 19 -6 103 -10 185 -3 83 -8 177 -10 210 -2 33 -7 112 -10 175 -7 150 -14
287 -19 380 -4 72 5 66 18 -13z"/>
<path d="M635 2114 l-30 -26 33 22 c17 12 32 23 32 26 0 7 -4 5 -35 -22z"/>
</g>
</svg>
