<svg xmlns="http://www.w3.org/2000/svg" width="426.667" height="426.667" preserveAspectRatio="xMidYMid meet" version="1.0" viewBox="0 0 320 320"><metadata>Created by potrace 1.11, written by Peter Selinger 2001-2013</metadata><g fill="#000" stroke="none"><path d="M2808 2830 c35 -46 90 -147 132 -245 75 -171 114 -469 83 -632 -47 -250 -234 -548 -481 -765 -232 -205 -682 -393 -1127 -472 -117 -21 -404 -29 -530 -14 -171 19 -368 79 -523 157 -98 49 -228 128 -255 156 -13 12 -17 12 -30 -3 -15 -16 -14 -22 7 -68 73 -157 443 -439 694 -529 226 -80 392 -108 637 -108 191 0 346 21 509 68 80 23 109 35 271 110 340 156 619 465 808 895 28 64 79 233 91 304 3 16 11 55 18 85 20 89 17 388 -5 491 -29 139 -85 283 -149 385 -40 62 -150 206 -173 225 -10 8 0 -10 23 -40z" transform="translate(0.000000,320.000000) scale(0.100000,-0.100000)"/><path d="M2694 2822 c-21 -15 -77 -52 -124 -81 -108 -68 -844 -583 -848 -593 -2 -4 -8 -8 -12 -8 -5 0 -145 -95 -312 -211 -663 -463 -800 -559 -1053 -732 -118 -82 -215 -150 -215 -153 0 -8 399 262 805 547 28 20 92 64 144 100 51 35 113 78 136 94 24 17 76 53 117 81 40 27 181 125 313 217 132 91 336 233 454 314 422 292 641 446 641 450 0 7 -8 2 -46 -25z" transform="translate(0.000000,320.000000) scale(0.100000,-0.100000)"/><path d="M2483 2597 c-55 -43 -1020 -718 -1411 -987 -84 -58 -185 -128 -225 -156 -40 -27 -168 -116 -285 -196 l-213 -147 58 -33 c109 -64 214 -106 348 -143 178 -49 268 -60 470 -60 180 0 237 7 401 45 179 43 446 165 604 277 279 199 472 491 541 820 30 143 16 225 -63 373 -52 98 -157 240 -177 240 -3 0 -25 -15 -48 -33z m253 -335 c13 -31 12 -33 -9 -41 -22 -9 -201 -59 -234 -66 -21 -4 -367 -97 -468 -125 -39 -11 -79 -22 -90 -24 -11 -3 -80 -21 -154 -41 -73 -20 -135 -35 -136 -33 -2 2 71 29 163 60 473 160 876 299 881 303 12 13 34 -2 47 -33z m-1094 -516 c116 -39 617 -200 751 -242 48 -16 87 -31 87 -34 0 -3 -13 -19 -29 -34 l-29 -28 -224 92 c-122 51 -308 128 -413 171 -300 122 -323 135 -143 75z m-277 -76 c3 -25 10 -61 15 -80 5 -19 11 -51 13 -70 3 -19 12 -71 21 -115 9 -44 18 -91 21 -105 2 -14 7 -36 10 -50 2 -14 7 -38 10 -55 3 -16 7 -41 10 -55 3 -14 8 -41 11 -60 3 -19 12 -63 19 -97 7 -35 9 -63 4 -63 -5 0 -11 -1 -14 -2 -2 0 -25 -4 -50 -8 l-45 -7 -1 46 c0 25 -2 62 -4 81 -1 19 -6 100 -10 180 -4 80 -8 172 -10 205 -12 193 -16 309 -12 305 3 -3 8 -25 12 -50z" transform="translate(0.000000,320.000000) scale(0.100000,-0.100000)"/></g></svg>